  0
SECTION
  2
HEADER
  9
$ACADVER
  1
AC1032
  9
$ACADMAINTVER
 90
      251
  9
$DWGCODEPAGE
  3
ANSI_1252
  9
$REQUIREDVERSIONS
160
                 0
  9
$INSBASE
 10
0.0
 20
0.0
 30
0.0
  9
$EXTMIN
 10
1.000000000000000E+20
 20
1.000000000000000E+20
 30
1.000000000000000E+20
  9
$EXTMAX
 10
-1.000000000000000E+20
 20
-1.000000000000000E+20
 30
-1.000000000000000E+20
  9
$LIMMIN
 10
0.0
 20
0.0
  9
$LIMMAX
 10
12.0
 20
9.0
  9
$ORTHOMODE
 70
     0
  9
$REGENMODE
 70
     1
  9
$FILLMODE
 70
     1
  9
$QTEXTMODE
 70
     0
  9
$MIRRTEXT
 70
     0
  9
$LTSCALE
 40
1.0
  9
$ATTMODE
 70
     1
  9
$TEXTSIZE
 40
0.2
  9
$TRACEWID
 40
0.05
  9
$TEXTSTYLE
  7
Standard
  9
$CLAYER
  8
0
  9
$CELTYPE
  6
ByLayer
  9
$CECOLOR
 62
   256
  9
$CELTSCALE
 40
1.0
  9
$DISPSILH
 70
     0
  9
$DIMSCALE
 40
1.0
  9
$DIMASZ
 40
0.18
  9
$DIMEXO
 40
0.0625
  9
$DIMDLI
 40
0.38
  9
$DIMRND
 40
0.0
  9
$DIMDLE
 40
0.0
  9
$DIMEXE
 40
0.18
  9
$DIMTP
 40
0.0
  9
$DIMTM
 40
0.0
  9
$DIMTXT
 40
0.18
  9
$DIMCEN
 40
0.09
  9
$DIMTSZ
 40
0.0
  9
$DIMTOL
 70
     0
  9
$DIMLIM
 70
     0
  9
$DIMTIH
 70
     1
  9
$DIMTOH
 70
     1
  9
$DIMSE1
 70
     0
  9
$DIMSE2
 70
     0
  9
$DIMTAD
 70
     0
  9
$DIMZIN
 70
     0
  9
$DIMBLK
  1

  9
$DIMASO
 70
     1
  9
$DIMSHO
 70
     1
  9
$DIMPOST
  1

  9
$DIMAPOST
  1

  9
$DIMALT
 70
     0
  9
$DIMALTD
 70
     2
  9
$DIMALTF
 40
25.4
  9
$DIMLFAC
 40
1.0
  9
$DIMTOFL
 70
     0
  9
$DIMTVP
 40
0.0
  9
$DIMTIX
 70
     0
  9
$DIMSOXD
 70
     0
  9
$DIMSAH
 70
     0
  9
$DIMBLK1
  1

  9
$DIMBLK2
  1

  9
$DIMSTYLE
  2
Standard
  9
$DIMCLRD
 70
     0
  9
$DIMCLRE
 70
     0
  9
$DIMCLRT
 70
     0
  9
$DIMTFAC
 40
1.0
  9
$DIMGAP
 40
0.09
  9
$DIMJUST
 70
     0
  9
$DIMSD1
 70
     0
  9
$DIMSD2
 70
     0
  9
$DIMTOLJ
 70
     1
  9
$DIMTZIN
 70
     0
  9
$DIMALTZ
 70
     0
  9
$DIMALTTZ
 70
     0
  9
$DIMUPT
 70
     0
  9
$DIMDEC
 70
     4
  9
$DIMTDEC
 70
     4
  9
$DIMALTU
 70
     2
  9
$DIMALTTD
 70
     2
  9
$DIMTXSTY
  7
Standard
  9
$DIMAUNIT
 70
     0
  9
$DIMADEC
 70
     0
  9
$DIMALTRND
 40
0.0
  9
$DIMAZIN
 70
     0
  9
$DIMDSEP
 70
    46
  9
$DIMATFIT
 70
     3
  9
$DIMFRAC
 70
     0
  9
$DIMLDRBLK
  1

  9
$DIMLUNIT
 70
     2
  9
$DIMLWD
 70
    -2
  9
$DIMLWE
 70
    -2
  9
$DIMTMOVE
 70
     0
  9
$DIMFXL
 40
1.0
  9
$DIMFXLON
 70
     0
  9
$DIMJOGANG
 40
0.7853981633974483
  9
$DIMTFILL
 70
     0
  9
$DIMTFILLCLR
 70
     0
  9
$DIMARCSYM
 70
     0
  9
$DIMLTYPE
  6

  9
$DIMLTEX1
  6

  9
$DIMLTEX2
  6

  9
$DIMTXTDIRECTION
 70
     0
  9
$LUNITS
 70
     2
  9
$LUPREC
 70
     4
  9
$SKETCHINC
 40
0.1
  9
$FILLETRAD
 40
0.0
  9
$AUNITS
 70
     0
  9
$AUPREC
 70
     0
  9
$MENU
  1
.
  9
$ELEVATION
 40
0.0
  9
$PELEVATION
 40
0.0
  9
$THICKNESS
 40
0.0
  9
$LIMCHECK
 70
     0
  9
$CHAMFERA
 40
0.0
  9
$CHAMFERB
 40
0.0
  9
$CHAMFERC
 40
0.0
  9
$CHAMFERD
 40
0.0
  9
$SKPOLY
 70
     0
  9
$TDCREATE
 40
2459844.680347222
  9
$TDUCREATE
 40
2459844.847013889
  9
$TDUPDATE
 40
2459844.680347222
  9
$TDUUPDATE
 40
2459844.847013889
  9
$TDINDWG
 40
0.0000000000
  9
$TDUSRTIMER
 40
0.0000000000
  9
$USRTIMER
 70
     1
  9
$ANGBASE
 50
0.0
  9
$ANGDIR
 70
     0
  9
$PDMODE
 70
     0
  9
$PDSIZE
 40
0.0
  9
$PLINEWID
 40
0.0
  9
$SPLFRAME
 70
     0
  9
$SPLINETYPE
 70
     6
  9
$SPLINESEGS
 70
     8
  9
$HANDSEED
  5
204
  9
$SURFTAB1
 70
     6
  9
$SURFTAB2
 70
     6
  9
$SURFTYPE
 70
     6
  9
$SURFU
 70
     6
  9
$SURFV
 70
     6
  9
$UCSBASE
  2

  9
$UCSNAME
  2

  9
$UCSORG
 10
0.0
 20
0.0
 30
0.0
  9
$UCSXDIR
 10
1.0
 20
0.0
 30
0.0
  9
$UCSYDIR
 10
0.0
 20
1.0
 30
0.0
  9
$UCSORTHOREF
  2

  9
$UCSORTHOVIEW
 70
     0
  9
$UCSORGTOP
 10
0.0
 20
0.0
 30
0.0
  9
$UCSORGBOTTOM
 10
0.0
 20
0.0
 30
0.0
  9
$UCSORGLEFT
 10
0.0
 20
0.0
 30
0.0
  9
$UCSORGRIGHT
 10
0.0
 20
0.0
 30
0.0
  9
$UCSORGFRONT
 10
0.0
 20
0.0
 30
0.0
  9
$UCSORGBACK
 10
0.0
 20
0.0
 30
0.0
  9
$PUCSBASE
  2

  9
$PUCSNAME
  2

  9
$PUCSORG
 10
0.0
 20
0.0
 30
0.0
  9
$PUCSXDIR
 10
1.0
 20
0.0
 30
0.0
  9
$PUCSYDIR
 10
0.0
 20
1.0
 30
0.0
  9
$PUCSORTHOREF
  2

  9
$PUCSORTHOVIEW
 70
     0
  9
$PUCSORGTOP
 10
0.0
 20
0.0
 30
0.0
  9
$PUCSORGBOTTOM
 10
0.0
 20
0.0
 30
0.0
  9
$PUCSORGLEFT
 10
0.0
 20
0.0
 30
0.0
  9
$PUCSORGRIGHT
 10
0.0
 20
0.0
 30
0.0
  9
$PUCSORGFRONT
 10
0.0
 20
0.0
 30
0.0
  9
$PUCSORGBACK
 10
0.0
 20
0.0
 30
0.0
  9
$USERI1
 70
     0
  9
$USERI2
 70
     0
  9
$USERI3
 70
     0
  9
$USERI4
 70
     0
  9
$USERI5
 70
     0
  9
$USERR1
 40
0.0
  9
$USERR2
 40
0.0
  9
$USERR3
 40
0.0
  9
$USERR4
 40
0.0
  9
$USERR5
 40
0.0
  9
$WORLDVIEW
 70
     1
  9
$SHADEDGE
 70
     3
  9
$SHADEDIF
 70
    70
  9
$TILEMODE
 70
     1
  9
$MAXACTVP
 70
    64
  9
$PINSBASE
 10
0.0
 20
0.0
 30
0.0
  9
$PLIMCHECK
 70
     0
  9
$PEXTMIN
 10
1.000000000000000E+20
 20
1.000000000000000E+20
 30
1.000000000000000E+20
  9
$PEXTMAX
 10
-1.000000000000000E+20
 20
-1.000000000000000E+20
 30
-1.000000000000000E+20
  9
$PLIMMIN
 10
0.0
 20
0.0
  9
$PLIMMAX
 10
12.0
 20
9.0
  9
$UNITMODE
 70
     0
  9
$VISRETAIN
 70
     1
  9
$PLINEGEN
 70
     0
  9
$PSLTSCALE
 70
     1
  9
$TREEDEPTH
 70
  3020
  9
$CMLSTYLE
  2
Standard
  9
$CMLJUST
 70
     0
  9
$CMLSCALE
 40
1.0
  9
$PROXYGRAPHICS
 70
     1
  9
$MEASUREMENT
 70
     0
  9
$CELWEIGHT
370
    -1
  9
$ENDCAPS
280
     0
  9
$JOINSTYLE
280
     0
  9
$LWDISPLAY
290
     1
  9
$INSUNITS
 70
     0
  9
$HYPERLINKBASE
  1

  9
$STYLESHEET
  1

  9
$XEDIT
290
     1
  9
$CEPSNTYPE
380
     0
  9
$PSTYLEMODE
290
     1
  9
$FINGERPRINTGUID
  2
{F4383DC8-2336-0744-AE67-51C0C82C8C43}
  9
$VERSIONGUID
  2
{BC169D06-87B8-C94E-BEB9-22DE6CA186E8}
  9
$EXTNAMES
290
     1
  9
$PSVPSCALE
 40
0.0
  9
$OLESTARTUP
290
     0
  9
$SORTENTS
280
   127
  9
$INDEXCTL
280
     0
  9
$HIDETEXT
280
     1
  9
$XCLIPFRAME
280
     2
  9
$HALOGAP
280
     0
  9
$OBSCOLOR
 70
   257
  9
$OBSLTYPE
280
     0
  9
$INTERSECTIONDISPLAY
280
     0
  9
$INTERSECTIONCOLOR
 70
   257
  9
$DIMASSOC
280
     2
  9
$PROJECTNAME
  1

  9
$CAMERADISPLAY
290
     0
  9
$LENSLENGTH
 40
50.0
  9
$CAMERAHEIGHT
 40
0.0
  9
$STEPSPERSEC
 40
2.0
  9
$STEPSIZE
 40
6.0
  9
$3DDWFPREC
 40
2.0
  9
$PSOLWIDTH
 40
0.25
  9
$PSOLHEIGHT
 40
4.0
  9
$LOFTANG1
 40
1.570796326794896
  9
$LOFTANG2
 40
1.570796326794896
  9
$LOFTMAG1
 40
0.0
  9
$LOFTMAG2
 40
0.0
  9
$LOFTPARAM
 70
     7
  9
$LOFTNORMALS
280
     1
  9
$LATITUDE
 40
37.795
  9
$LONGITUDE
 40
-122.394
  9
$NORTHDIRECTION
 40
0.0
  9
$TIMEZONE
 70
 -8000
  9
$LIGHTGLYPHDISPLAY
280
     1
  9
$TILEMODELIGHTSYNCH
280
     1
  9
$CMATERIAL
347
11
  9
$SOLIDHIST
280
     0
  9
$SHOWHIST
280
     1
  9
$DWFFRAME
280
     2
  9
$DGNFRAME
280
     0
  9
$REALWORLDSCALE
290
     1
  9
$INTERFERECOLOR
 62
     1
  9
$INTERFEREOBJVS
345
33
  9
$INTERFEREVPVS
346
30
  9
$CSHADOW
280
     0
  9
$SHADOWPLANELOCATION
 40
0.0
  0
ENDSEC
  0
SECTION
  2
CLASSES
  0
CLASS
  1
ACDBDICTIONARYWDFLT
  2
AcDbDictionaryWithDefault
  3
ObjectDBX Classes
 90
        0
 91
        1
280
     0
281
     0
  0
CLASS
  1
MATERIAL
  2
AcDbMaterial
  3
ObjectDBX Classes
 90
     1153
 91
        3
280
     0
281
     0
  0
CLASS
  1
VISUALSTYLE
  2
AcDbVisualStyle
  3
ObjectDBX Classes
 90
     4095
 91
       24
280
     0
281
     0
  0
CLASS
  1
SCALE
  2
AcDbScale
  3
ObjectDBX Classes
 90
     1153
 91
       17
280
     0
281
     0
  0
CLASS
  1
TABLESTYLE
  2
AcDbTableStyle
  3
ObjectDBX Classes
 90
     4095
 91
        1
280
     0
281
     0
  0
CLASS
  1
MLEADERSTYLE
  2
AcDbMLeaderStyle
  3
ACDB_MLEADERSTYLE_CLASS
 90
     4095
 91
        1
280
     0
281
     0
  0
CLASS
  1
ACDBSECTIONVIEWSTYLE
  2
AcDbSectionViewStyle
  3
ObjectDBX Classes
 90
     1025
 91
        1
280
     0
281
     0
  0
CLASS
  1
ACDBDETAILVIEWSTYLE
  2
AcDbDetailViewStyle
  3
ObjectDBX Classes
 90
     1025
 91
        1
280
     0
281
     0
  0
CLASS
  1
DICTIONARYVAR
  2
AcDbDictionaryVar
  3
ObjectDBX Classes
 90
        0
 91
        5
280
     0
281
     0
  0
CLASS
  1
CELLSTYLEMAP
  2
AcDbCellStyleMap
  3
ObjectDBX Classes
 90
     1152
 91
        1
280
     0
281
     0
  0
ENDSEC
  0
SECTION
  2
TABLES
  0
TABLE
  2
VPORT
  5
8
330
0
100
AcDbSymbolTable
 70
     1
  0
VPORT
  5
57
330
8
100
AcDbSymbolTableRecord
100
AcDbViewportTableRecord
  2
*Active
 70
     0
 10
0.0
 20
0.0
 11
1.0
 21
1.0
 12
0.0
 22
0.0
 13
0.0
 23
0.0
 14
1.0
 24
1.0
 15
0.0
 25
0.0
 16
0.0
 26
0.0
 36
1.0
 17
960.0
 27
540.0
 37
0.0
 40
1101.6
 41
1.777777777777777
 42
50.0
 43
0.0
 44
0.0
 50
0.0
 51
0.0
 71
     0
 72
   100
 73
     1
 74
     1
 75
     0
 76
     0
 77
     0
 78
     0
281
     0
 65
     1
110
0.0
120
0.0
130
0.0
111
1.0
121
0.0
131
0.0
112
0.0
122
1.0
132
0.0
 79
     0
146
0.0
 60
     3
 61
     5
292
     1
282
     1
141
0.0
142
0.0
 63
   250
421
  3355443
  0
ENDTAB
  0
TABLE
  2
LTYPE
  5
5
330
0
100
AcDbSymbolTable
 70
     1
  0
LTYPE
  5
5B
330
5
100
AcDbSymbolTableRecord
100
AcDbLinetypeTableRecord
  2
ByBlock
 70
     0
  3

 72
    65
 73
     0
 40
0.0
  0
LTYPE
  5
5C
330
5
100
AcDbSymbolTableRecord
100
AcDbLinetypeTableRecord
  2
ByLayer
 70
     0
  3

 72
    65
 73
     0
 40
0.0
  0
LTYPE
  5
5D
330
5
100
AcDbSymbolTableRecord
100
AcDbLinetypeTableRecord
  2
Continuous
 70
     0
  3
Solid line
 72
    65
 73
     0
 40
0.0
  0
ENDTAB
  0
TABLE
  2
LAYER
  5
2
330
0
100
AcDbSymbolTable
 70
    21
  0
LAYER
  5
54
330
2
100
AcDbSymbolTableRecord
100
AcDbLayerTableRecord
  2
0
 70
     0
 62
     7
  6
Continuous
370
    -3
390
F
347
21
348
0
  0
LAYER
  5
78
330
2
100
AcDbSymbolTableRecord
100
AcDbLayerTableRecord
  2
SHAPE2DVIEW019
 70
     0
 62
     7
  6
Continuous
370
     0
390
F
347
21
348
0
  0
LAYER
  5
91
330
2
100
AcDbSymbolTableRecord
100
AcDbLayerTableRecord
  2
SHAPE2DVIEW
 70
     0
 62
     7
  6
Continuous
370
     0
390
F
347
21
348
0
  0
LAYER
  5
B2
330
2
100
AcDbSymbolTableRecord
100
AcDbLayerTableRecord
  2
SHAPE2DVIEW001
 70
     0
 62
     7
  6
Continuous
370
     0
390
F
347
21
348
0
  0
LAYER
  5
C2
330
2
100
AcDbSymbolTableRecord
100
AcDbLayerTableRecord
  2
SHAPE2DVIEW002
 70
     0
 62
     7
  6
Continuous
370
     0
390
F
347
21
348
0
  0
LAYER
  5
DC
330
2
100
AcDbSymbolTableRecord
100
AcDbLayerTableRecord
  2
SHAPE2DVIEW003
 70
     0
 62
     7
  6
Continuous
370
     0
390
F
347
21
348
0
  0
LAYER
  5
F7
330
2
100
AcDbSymbolTableRecord
100
AcDbLayerTableRecord
  2
SHAPE2DVIEW004
 70
     0
 62
     7
  6
Continuous
370
     0
390
F
347
21
348
0
  0
LAYER
  5
112
330
2
100
AcDbSymbolTableRecord
100
AcDbLayerTableRecord
  2
SHAPE2DVIEW005
 70
     0
 62
     7
  6
Continuous
370
     0
390
F
347
21
348
0
  0
LAYER
  5
11D
330
2
100
AcDbSymbolTableRecord
100
AcDbLayerTableRecord
  2
SHAPE2DVIEW006
 70
     0
 62
     7
  6
Continuous
370
     0
390
F
347
21
348
0
  0
LAYER
  5
13E
330
2
100
AcDbSymbolTableRecord
100
AcDbLayerTableRecord
  2
SHAPE2DVIEW007
 70
     0
 62
     7
  6
Continuous
370
     0
390
F
347
21
348
0
  0
LAYER
  5
14B
330
2
100
AcDbSymbolTableRecord
100
AcDbLayerTableRecord
  2
SHAPE2DVIEW008
 70
     0
 62
     7
  6
Continuous
370
     0
390
F
347
21
348
0
  0
LAYER
  5
163
330
2
100
AcDbSymbolTableRecord
100
AcDbLayerTableRecord
  2
SHAPE2DVIEW009
 70
     0
 62
     7
  6
Continuous
370
     0
390
F
347
21
348
0
  0
LAYER
  5
16E
330
2
100
AcDbSymbolTableRecord
100
AcDbLayerTableRecord
  2
SHAPE2DVIEW010
 70
     0
 62
     7
  6
Continuous
370
     0
390
F
347
21
348
0
  0
LAYER
  5
179
330
2
100
AcDbSymbolTableRecord
100
AcDbLayerTableRecord
  2
SHAPE2DVIEW011
 70
     0
 62
     7
  6
Continuous
370
     0
390
F
347
21
348
0
  0
LAYER
  5
184
330
2
100
AcDbSymbolTableRecord
100
AcDbLayerTableRecord
  2
SHAPE2DVIEW012
 70
     0
 62
     7
  6
Continuous
370
     0
390
F
347
21
348
0
  0
LAYER
  5
18F
330
2
100
AcDbSymbolTableRecord
100
AcDbLayerTableRecord
  2
SHAPE2DVIEW013
 70
     0
 62
     7
  6
Continuous
370
     0
390
F
347
21
348
0
  0
LAYER
  5
192
330
2
100
AcDbSymbolTableRecord
100
AcDbLayerTableRecord
  2
SHAPE2DVIEW014
 70
     0
 62
     7
  6
Continuous
370
     0
390
F
347
21
348
0
  0
LAYER
  5
195
330
2
100
AcDbSymbolTableRecord
100
AcDbLayerTableRecord
  2
SHAPE2DVIEW015
 70
     0
 62
     7
  6
Continuous
370
     0
390
F
347
21
348
0
  0
LAYER
  5
1B0
330
2
100
AcDbSymbolTableRecord
100
AcDbLayerTableRecord
  2
SHAPE2DVIEW016
 70
     0
 62
     7
  6
Continuous
370
     0
390
F
347
21
348
0
  0
LAYER
  5
1C9
330
2
100
AcDbSymbolTableRecord
100
AcDbLayerTableRecord
  2
SHAPE2DVIEW017
 70
     0
 62
     7
  6
Continuous
370
     0
390
F
347
21
348
0
  0
LAYER
  5
1E2
330
2
100
AcDbSymbolTableRecord
100
AcDbLayerTableRecord
  2
SHAPE2DVIEW018
 70
     0
 62
     7
  6
Continuous
370
     0
390
F
347
21
348
0
  0
ENDTAB
  0
TABLE
  2
STYLE
  5
3
330
0
100
AcDbSymbolTable
 70
     2
  0
STYLE
  5
55
330
3
100
AcDbSymbolTableRecord
100
AcDbTextStyleTableRecord
  2
Standard
 70
     0
 40
0.0
 41
1.0
 50
0.0
 71
     0
 42
0.2
  3
txt
  4

  0
STYLE
  5
5A
330
3
100
AcDbSymbolTableRecord
100
AcDbTextStyleTableRecord
  2
Annotative
 70
     0
 40
0.0
 41
1.0
 50
0.0
 71
     0
 42
0.2
  3
txt
  4

1001
AcadAnnotative
1000
AnnotativeData
1002
{
1070
     1
1070
     1
1002
}
  0
ENDTAB
  0
TABLE
  2
VIEW
  5
6
330
0
100
AcDbSymbolTable
 70
     0
  0
ENDTAB
  0
TABLE
  2
UCS
  5
7
330
0
100
AcDbSymbolTable
 70
     0
  0
ENDTAB
  0
TABLE
  2
APPID
  5
9
330
0
100
AcDbSymbolTable
 70
     2
  0
APPID
  5
56
330
9
100
AcDbSymbolTableRecord
100
AcDbRegAppTableRecord
  2
ACAD
 70
     0
  0
APPID
  5
5E
330
9
100
AcDbSymbolTableRecord
100
AcDbRegAppTableRecord
  2
AcadAnnotative
 70
     0
  0
ENDTAB
  0
TABLE
  2
DIMSTYLE
  5
A
330
0
100
AcDbSymbolTable
 70
     2
100
AcDbDimStyleTable
 71
     0
  0
DIMSTYLE
105
58
330
A
100
AcDbSymbolTableRecord
100
AcDbDimStyleTableRecord
  2
Standard
 70
     0
340
55
  0
DIMSTYLE
105
59
330
A
100
AcDbSymbolTableRecord
100
AcDbDimStyleTableRecord
  2
Annotative
 70
     0
340
55
1001
AcadAnnotative
1000
AnnotativeData
1002
{
1070
     1
1070
     1
1002
}
  0
ENDTAB
  0
TABLE
  2
BLOCK_RECORD
  5
1
330
0
100
AcDbSymbolTable
 70
     1
  0
BLOCK_RECORD
  5
70
330
1
100
AcDbSymbolTableRecord
100
AcDbBlockTableRecord
  2
*Model_Space
340
73
 70
     0
280
     1
281
     0
  0
BLOCK_RECORD
  5
6C
330
1
100
AcDbSymbolTableRecord
100
AcDbBlockTableRecord
  2
*Paper_Space
340
6F
 70
     0
280
     1
281
     0
  0
BLOCK_RECORD
  5
74
330
1
100
AcDbSymbolTableRecord
100
AcDbBlockTableRecord
  2
*Paper_Space0
340
77
 70
     0
280
     1
281
     0
  0
ENDTAB
  0
ENDSEC
  0
SECTION
  2
BLOCKS
  0
BLOCK
  5
71
330
70
100
AcDbEntity
  8
0
100
AcDbBlockBegin
  2
*Model_Space
 70
     0
 10
0.0
 20
0.0
 30
0.0
  3
*Model_Space
  1

  0
ENDBLK
  5
72
330
70
100
AcDbEntity
  8
0
100
AcDbBlockEnd
  0
BLOCK
  5
6D
330
6C
100
AcDbEntity
 67
     1
  8
0
100
AcDbBlockBegin
  2
*Paper_Space
 70
     0
 10
0.0
 20
0.0
 30
0.0
  3
*Paper_Space
  1

  0
ENDBLK
  5
6E
330
6C
100
AcDbEntity
 67
     1
  8
0
100
AcDbBlockEnd
  0
BLOCK
  5
75
330
74
100
AcDbEntity
 67
     1
  8
0
100
AcDbBlockBegin
  2
*Paper_Space0
 70
     0
 10
0.0
 20
0.0
 30
0.0
  3
*Paper_Space0
  1

  0
ENDBLK
  5
76
330
74
100
AcDbEntity
 67
     1
  8
0
100
AcDbBlockEnd
  0
ENDSEC
  0
SECTION
  2
ENTITIES
  0
LINE
  5
79
330
70
100
AcDbEntity
  8
SHAPE2DVIEW019
 62
    18
420
        0
370
    25
100
AcDbLine
 10
1144.625
 20
590.5
 30
0.0
 11
1144.625
 21
585.0
 31
0.0
  0
LINE
  5
7A
330
70
100
AcDbEntity
  8
SHAPE2DVIEW019
 62
    18
420
        0
370
    25
100
AcDbLine
 10
1144.625
 20
585.0
 30
0.0
 11
1106.125
 21
585.0
 31
0.0
  0
LINE
  5
7B
330
70
100
AcDbEntity
  8
SHAPE2DVIEW019
 62
    18
420
        0
370
    25
100
AcDbLine
 10
1106.125
 20
585.0
 30
0.0
 11
1106.125
 21
590.5
 31
0.0
  0
LINE
  5
7C
330
70
100
AcDbEntity
  8
SHAPE2DVIEW019
 62
    18
420
        0
370
    25
100
AcDbLine
 10
1101.125
 20
590.5
 30
0.0
 11
1106.125
 21
590.5
 31
0.0
  0
LINE
  5
7D
330
70
100
AcDbEntity
  8
SHAPE2DVIEW019
 62
    18
420
        0
370
    25
100
AcDbLine
 10
1101.125
 20
600.4999999999999
 30
0.0
 11
1101.125
 21
590.5
 31
0.0
  0
LINE
  5
7E
330
70
100
AcDbEntity
  8
SHAPE2DVIEW019
 62
    18
420
        0
370
    25
100
AcDbLine
 10
1106.125
 20
600.4999999999999
 30
0.0
 11
1101.125
 21
600.4999999999999
 31
0.0
  0
LINE
  5
7F
330
70
100
AcDbEntity
  8
SHAPE2DVIEW019
 62
    18
420
        0
370
    25
100
AcDbLine
 10
1106.125
 20
600.4999999999999
 30
0.0
 11
1106.125
 21
606.0
 31
0.0
  0
LINE
  5
80
330
70
100
AcDbEntity
  8
SHAPE2DVIEW019
 62
    18
420
        0
370
    25
100
AcDbLine
 10
1106.125
 20
606.0
 30
0.0
 11
1144.625
 21
606.0
 31
0.0
  0
LINE
  5
81
330
70
100
AcDbEntity
  8
SHAPE2DVIEW019
 62
    18
420
        0
370
    25
100
AcDbLine
 10
1144.625
 20
606.0
 30
0.0
 11
1144.625
 21
600.4999999999999
 31
0.0
  0
LINE
  5
82
330
70
100
AcDbEntity
  8
SHAPE2DVIEW019
 62
    18
420
        0
370
    25
100
AcDbLine
 10
1149.625
 20
600.4999999999999
 30
0.0
 11
1144.625
 21
600.4999999999999
 31
0.0
  0
LINE
  5
83
330
70
100
AcDbEntity
  8
SHAPE2DVIEW019
 62
    18
420
        0
370
    25
100
AcDbLine
 10
1149.625
 20
590.5
 30
0.0
 11
1149.625
 21
600.4999999999999
 31
0.0
  0
LINE
  5
84
330
70
100
AcDbEntity
  8
SHAPE2DVIEW019
 62
    18
420
        0
370
    25
100
AcDbLine
 10
1144.625
 20
590.5
 30
0.0
 11
1149.625
 21
590.5
 31
0.0
  0
LINE
  5
85
330
70
100
AcDbEntity
  8
SHAPE2DVIEW019
 62
    18
420
        0
370
    25
100
AcDbLine
 10
1109.1
 20
588.4999999999999
 30
0.0
 11
1125.375
 21
593.75
 31
0.0
  0
LINE
  5
86
330
70
100
AcDbEntity
  8
SHAPE2DVIEW019
 62
    18
420
        0
370
    25
100
AcDbLine
 10
1125.375
 20
593.75
 30
0.0
 11
1141.65
 21
588.4999999999999
 31
0.0
  0
LINE
  5
87
330
70
100
AcDbEntity
  8
SHAPE2DVIEW019
 62
    18
420
        0
370
    25
100
AcDbLine
 10
1141.65
 20
588.4999999999999
 30
0.0
 11
1109.1
 21
588.4999999999999
 31
0.0
  0
LINE
  5
88
330
70
100
AcDbEntity
  8
SHAPE2DVIEW019
 62
    18
420
        0
370
    25
100
AcDbLine
 10
1141.65
 20
602.5
 30
0.0
 11
1109.1
 21
602.5
 31
0.0
  0
LINE
  5
89
330
70
100
AcDbEntity
  8
SHAPE2DVIEW019
 62
    18
420
        0
370
    25
100
AcDbLine
 10
1109.1
 20
602.5
 30
0.0
 11
1125.375
 21
597.25
 31
0.0
  0
LINE
  5
8A
330
70
100
AcDbEntity
  8
SHAPE2DVIEW019
 62
    18
420
        0
370
    25
100
AcDbLine
 10
1125.375
 20
597.25
 30
0.0
 11
1141.65
 21
602.5
 31
0.0
  0
LINE
  5
8B
330
70
100
AcDbEntity
  8
SHAPE2DVIEW019
 62
    18
420
        0
370
    25
100
AcDbLine
 10
1126.862999999999
 20
595.5
 30
0.0
 11
1141.65
 21
600.2700000000004
 31
0.0
  0
LINE
  5
8C
330
70
100
AcDbEntity
  8
SHAPE2DVIEW019
 62
    18
420
        0
370
    25
100
AcDbLine
 10
1141.65
 20
600.2700000000004
 30
0.0
 11
1141.65
 21
590.7299999999995
 31
0.0
  0
LINE
  5
8D
330
70
100
AcDbEntity
  8
SHAPE2DVIEW019
 62
    18
420
        0
370
    25
100
AcDbLine
 10
1141.65
 20
590.7299999999995
 30
0.0
 11
1126.862999999999
 21
595.5
 31
0.0
  0
LINE
  5
8E
330
70
100
AcDbEntity
  8
SHAPE2DVIEW019
 62
    18
420
        0
370
    25
100
AcDbLine
 10
1109.1
 20
600.2700000000004
 30
0.0
 11
1123.887
 21
595.5
 31
0.0
  0
LINE
  5
8F
330
70
100
AcDbEntity
  8
SHAPE2DVIEW019
 62
    18
420
        0
370
    25
100
AcDbLine
 10
1123.887
 20
595.5
 30
0.0
 11
1109.1
 21
590.7299999999995
 31
0.0
  0
LINE
  5
90
330
70
100
AcDbEntity
  8
SHAPE2DVIEW019
 62
    18
420
        0
370
    25
100
AcDbLine
 10
1109.1
 20
590.7299999999995
 30
0.0
 11
1109.1
 21
600.2700000000004
 31
0.0
  0
LINE
  5
92
330
70
100
AcDbEntity
  8
SHAPE2DVIEW
 62
    18
420
        0
370
    25
100
AcDbLine
 10
846.6099999999997
 20
637.9650000000001
 30
0.0
 11
839.375
 21
664.9650000000001
 31
0.0
  0
SPLINE
  5
93
330
70
100
AcDbEntity
  8
SHAPE2DVIEW
 62
    18
420
        0
370
    25
100
AcDbSpline
210
0.0
220
0.0
230
1.0
 70
     8
 71
     3
 72
    11
 73
     7
 74
     0
 42
0.0000000001
 43
0.0000000001
 40
0.0
 40
0.0
 40
0.0
 40
0.0
 40
1.0
 40
1.0
 40
1.0
 40
2.0
 40
2.0
 40
2.0
 40
2.0
 10
843.2389999999996
 20
670.0
 30
0.0
 10
841.0298610006766
 20
670.0
 30
0.0
 10
839.2389999999995
 20
668.2091389993229
 30
0.0
 10
839.2389999999995
 20
666.0
 30
0.0
 10
839.2389999999995
 20
665.6504348649851
 30
0.0
 10
839.2848225803982
 20
665.3023778114711
 30
0.0
 10
839.375296694844
 20
664.9647238195902
 30
0.0
  0
LINE
  5
94
330
70
100
AcDbEntity
  8
SHAPE2DVIEW
 62
    18
420
        0
370
    25
100
AcDbLine
 10
843.2389999999996
 20
670.0
 30
0.0
 11
925.375
 21
670.0
 31
0.0
  0
LINE
  5
95
330
70
100
AcDbEntity
  8
SHAPE2DVIEW
 62
    18
420
        0
370
    25
100
AcDbLine
 10
925.375
 20
652.5
 30
0.0
 11
925.375
 21
670.0
 31
0.0
  0
LINE
  5
96
330
70
100
AcDbEntity
  8
SHAPE2DVIEW
 62
    18
420
        0
370
    25
100
AcDbLine
 10
929.3750000000001
 20
652.5
 30
0.0
 11
925.375
 21
652.5
 31
0.0
  0
LINE
  5
97
330
70
100
AcDbEntity
  8
SHAPE2DVIEW
 62
    18
420
        0
370
    25
100
AcDbLine
 10
929.3750000000001
 20
670.0
 30
0.0
 11
929.3750000000001
 21
652.5
 31
0.0
  0
LINE
  5
98
330
70
100
AcDbEntity
  8
SHAPE2DVIEW
 62
    18
420
        0
370
    25
100
AcDbLine
 10
929.3750000000001
 20
670.0
 30
0.0
 11
949.375
 21
670.0
 31
0.0
  0
LINE
  5
99
330
70
100
AcDbEntity
  8
SHAPE2DVIEW
 62
    18
420
        0
370
    25
100
AcDbLine
 10
949.375
 20
652.5
 30
0.0
 11
949.375
 21
670.0
 31
0.0
  0
LINE
  5
9A
330
70
100
AcDbEntity
  8
SHAPE2DVIEW
 62
    18
420
        0
370
    25
100
AcDbLine
 10
953.3749999999999
 20
652.5
 30
0.0
 11
949.375
 21
652.5
 31
0.0
  0
LINE
  5
9B
330
70
100
AcDbEntity
  8
SHAPE2DVIEW
 62
    18
420
        0
370
    25
100
AcDbLine
 10
953.3749999999999
 20
670.0
 30
0.0
 11
953.3749999999999
 21
652.5
 31
0.0
  0
LINE
  5
9C
330
70
100
AcDbEntity
  8
SHAPE2DVIEW
 62
    18
420
        0
370
    25
100
AcDbLine
 10
953.3749999999999
 20
670.0
 30
0.0
 11
1035.5113
 21
670.0
 31
0.0
  0
SPLINE
  5
9D
330
70
100
AcDbEntity
  8
SHAPE2DVIEW
 62
    18
420
        0
370
    25
100
AcDbSpline
210
0.0
220
0.0
230
1.0
 70
     8
 71
     3
 72
    11
 73
     7
 74
     0
 42
0.0000000001
 43
0.0000000001
 40
0.0
 40
0.0
 40
0.0
 40
0.0
 40
1.0
 40
1.0
 40
1.0
 40
2.0
 40
2.0
 40
2.0
 40
2.0
 10
1039.375003305156
 20
664.9647238195902
 30
0.0
 10
1039.94677055146
 20
667.0985882328986
 30
0.0
 10
1038.680440593718
 20
669.291936058853
 30
0.0
 10
1036.54657618041
 20
669.8637033051563
 30
0.0
 10
1036.208922188529
 20
669.9541774196022
 30
0.0
 10
1035.860865135015
 20
670.0
 30
0.0
 10
1035.5113
 20
670.0
 30
0.0
  0
LINE
  5
9E
330
70
100
AcDbEntity
  8
SHAPE2DVIEW
 62
    18
420
        0
370
    25
100
AcDbLine
 10
1039.375
 20
664.9650000000001
 30
0.0
 11
1032.1404
 21
637.9650000000001
 31
0.0
  0
SPLINE
  5
9F
330
70
100
AcDbEntity
  8
SHAPE2DVIEW
 62
    18
420
        0
370
    25
100
AcDbSpline
210
0.0
220
0.0
230
1.0
 70
     8
 71
     3
 72
     8
 73
     4
 74
     0
 42
0.0000000001
 43
0.0000000001
 40
0.0
 40
0.0
 40
0.0
 40
0.0
 40
1.0
 40
1.0
 40
1.0
 40
1.0
 10
1028.2767
 20
635.0
 30
0.0
 10
1030.087122713938
 20
635.0
 30
0.0
 10
1031.671831427102
 20
636.2159897636965
 30
0.0
 10
1032.140403305157
 20
637.9647238195903
 30
0.0
  0
LINE
  5
A0
330
70
100
AcDbEntity
  8
SHAPE2DVIEW
 62
    18
420
        0
370
    25
100
AcDbLine
 10
1028.2767
 20
635.0
 30
0.0
 11
850.4732999999996
 21
635.0
 31
0.0
  0
SPLINE
  5
A1
330
70
100
AcDbEntity
  8
SHAPE2DVIEW
 62
    18
420
        0
370
    25
100
AcDbSpline
210
0.0
220
0.0
230
1.0
 70
     8
 71
     3
 72
     8
 73
     4
 74
     0
 42
0.0000000001
 43
0.0000000001
 40
0.0
 40
0.0
 40
0.0
 40
0.0
 40
1.0
 40
1.0
 40
1.0
 40
1.0
 10
846.6095966948433
 20
637.9647238195903
 30
0.0
 10
847.0781685728971
 20
636.2159897636965
 30
0.0
 10
848.6628772860623
 20
635.0
 30
0.0
 10
850.4732999999996
 20
635.0
 30
0.0
  0
LINE
  5
A2
330
70
100
AcDbEntity
  8
SHAPE2DVIEW
 62
    18
420
        0
370
    25
100
AcDbLine
 10
1003.375
 20
657.5
 30
0.0
 11
1007.375
 21
657.5
 31
0.0
  0
LINE
  5
A3
330
70
100
AcDbEntity
  8
SHAPE2DVIEW
 62
    18
420
        0
370
    25
100
AcDbLine
 10
1007.375
 20
657.5
 30
0.0
 11
1007.375
 21
647.5
 31
0.0
  0
LINE
  5
A4
330
70
100
AcDbEntity
  8
SHAPE2DVIEW
 62
    18
420
        0
370
    25
100
AcDbLine
 10
1007.375
 20
647.5
 30
0.0
 11
1003.375
 21
647.5
 31
0.0
  0
LINE
  5
A5
330
70
100
AcDbEntity
  8
SHAPE2DVIEW
 62
    18
420
        0
370
    25
100
AcDbLine
 10
1003.375
 20
647.5
 30
0.0
 11
1003.375
 21
657.5
 31
0.0
  0
LINE
  5
A6
330
70
100
AcDbEntity
  8
SHAPE2DVIEW
 62
    18
420
        0
370
    25
100
AcDbLine
 10
979.3750000000001
 20
657.5
 30
0.0
 11
983.375
 21
657.5
 31
0.0
  0
LINE
  5
A7
330
70
100
AcDbEntity
  8
SHAPE2DVIEW
 62
    18
420
        0
370
    25
100
AcDbLine
 10
983.375
 20
657.5
 30
0.0
 11
983.375
 21
647.5
 31
0.0
  0
LINE
  5
A8
330
70
100
AcDbEntity
  8
SHAPE2DVIEW
 62
    18
420
        0
370
    25
100
AcDbLine
 10
983.375
 20
647.5
 30
0.0
 11
979.3750000000001
 21
647.5
 31
0.0
  0
LINE
  5
A9
330
70
100
AcDbEntity
  8
SHAPE2DVIEW
 62
    18
420
        0
370
    25
100
AcDbLine
 10
979.3750000000001
 20
647.5
 30
0.0
 11
979.3750000000001
 21
657.5
 31
0.0
  0
LINE
  5
AA
330
70
100
AcDbEntity
  8
SHAPE2DVIEW
 62
    18
420
        0
370
    25
100
AcDbLine
 10
895.3749999999999
 20
657.5
 30
0.0
 11
899.375
 21
657.5
 31
0.0
  0
LINE
  5
AB
330
70
100
AcDbEntity
  8
SHAPE2DVIEW
 62
    18
420
        0
370
    25
100
AcDbLine
 10
899.375
 20
657.5
 30
0.0
 11
899.375
 21
647.5
 31
0.0
  0
LINE
  5
AC
330
70
100
AcDbEntity
  8
SHAPE2DVIEW
 62
    18
420
        0
370
    25
100
AcDbLine
 10
899.375
 20
647.5
 30
0.0
 11
895.3749999999999
 21
647.5
 31
0.0
  0
LINE
  5
AD
330
70
100
AcDbEntity
  8
SHAPE2DVIEW
 62
    18
420
        0
370
    25
100
AcDbLine
 10
895.3749999999999
 20
647.5
 30
0.0
 11
895.3749999999999
 21
657.5
 31
0.0
  0
LINE
  5
AE
330
70
100
AcDbEntity
  8
SHAPE2DVIEW
 62
    18
420
        0
370
    25
100
AcDbLine
 10
871.375
 20
657.5
 30
0.0
 11
875.375
 21
657.5
 31
0.0
  0
LINE
  5
AF
330
70
100
AcDbEntity
  8
SHAPE2DVIEW
 62
    18
420
        0
370
    25
100
AcDbLine
 10
875.375
 20
657.5
 30
0.0
 11
875.375
 21
647.5
 31
0.0
  0
LINE
  5
B0
330
70
100
AcDbEntity
  8
SHAPE2DVIEW
 62
    18
420
        0
370
    25
100
AcDbLine
 10
875.375
 20
647.5
 30
0.0
 11
871.375
 21
647.5
 31
0.0
  0
LINE
  5
B1
330
70
100
AcDbEntity
  8
SHAPE2DVIEW
 62
    18
420
        0
370
    25
100
AcDbLine
 10
871.375
 20
647.5
 30
0.0
 11
871.375
 21
657.5
 31
0.0
  0
SPLINE
  5
B3
330
70
100
AcDbEntity
  8
SHAPE2DVIEW001
 62
    18
420
        0
370
    25
100
AcDbSpline
210
0.0
220
0.0
230
1.0
 70
     8
 71
     3
 72
     8
 73
     4
 74
     0
 42
0.0000000001
 43
0.0000000001
 40
0.0
 40
0.0
 40
0.0
 40
0.0
 40
1.0
 40
1.0
 40
1.0
 40
1.0
 10
850.6153832601221
 20
514.9494851710041
 30
0.0
 10
868.794998215073
 20
489.7363352906086
 30
0.0
 10
903.2204066448885
 20
482.5821081259782
 30
0.0
 10
929.9403834227851
 20
498.4643046928958
 30
0.0
  0
SPLINE
  5
B4
330
70
100
AcDbEntity
  8
SHAPE2DVIEW001
 62
    18
420
        0
370
    25
100
AcDbSpline
210
0.0
220
0.0
230
1.0
 70
     8
 71
     3
 72
     8
 73
     4
 74
     0
 42
0.0000000001
 43
0.0000000001
 40
0.0
 40
0.0
 40
0.0
 40
0.0
 40
1.0
 40
1.0
 40
1.0
 40
1.0
 10
850.7502469191086
 20
515.90904693413
 30
0.0
 10
850.4554756919306
 20
515.6770265317864
 30
0.0
 10
850.3960065051487
 20
515.2538812807415
 30
0.0
 10
850.6154053047012
 20
514.9495989936622
 30
0.0
  0
SPLINE
  5
B5
330
70
100
AcDbEntity
  8
SHAPE2DVIEW001
 62
    18
420
        0
370
    25
100
AcDbSpline
210
0.0
220
0.0
230
1.0
 70
     8
 71
     3
 72
     8
 73
     4
 74
     0
 42
0.0000000001
 43
0.0000000001
 40
0.0
 40
0.0
 40
0.0
 40
0.0
 40
1.0
 40
1.0
 40
1.0
 40
1.0
 10
929.9403604176795
 20
498.4640390640143
 30
0.0
 10
931.4549127889149
 20
494.8701951203256
 30
0.0
 10
934.7227036197455
 20
492.317121706139
 30
0.0
 10
938.5761994672703
 20
491.7169942780729
 30
0.0
  0
SPLINE
  5
B6
330
70
100
AcDbEntity
  8
SHAPE2DVIEW001
 62
    18
420
        0
370
    25
100
AcDbSpline
210
0.0
220
0.0
230
1.0
 70
     8
 71
     3
 72
     8
 73
     4
 74
     0
 42
0.0000000001
 43
0.0000000001
 40
0.0
 40
0.0
 40
0.0
 40
0.0
 40
1.0
 40
1.0
 40
1.0
 40
1.0
 10
931.5462516673987
 20
509.8905193175542
 30
0.0
 10
910.2390881407163
 20
532.522490271247
 30
0.0
 10
875.17528939153
 20
535.1343342863601
 30
0.0
 10
850.7502359235777
 20
515.9088800683385
 30
0.0
  0
SPLINE
  5
B7
330
70
100
AcDbEntity
  8
SHAPE2DVIEW001
 62
    18
420
        0
370
    25
100
AcDbSpline
210
0.0
220
0.0
230
1.0
 70
     8
 71
     3
 72
     8
 73
     4
 74
     0
 42
0.0000000001
 43
0.0000000001
 40
0.0
 40
0.0
 40
0.0
 40
0.0
 40
1.0
 40
1.0
 40
1.0
 40
1.0
 10
938.5761816172598
 20
491.7174110686082
 30
0.0
 10
929.6299015969907
 20
461.9488806950666
 30
0.0
 10
944.8998777037742
 20
430.2768182175295
 30
0.0
 10
973.7621361898527
 20
418.7368285345001
 30
0.0
  0
SPLINE
  5
B8
330
70
100
AcDbEntity
  8
SHAPE2DVIEW001
 62
    18
420
        0
370
    25
100
AcDbSpline
210
0.0
220
0.0
230
1.0
 70
     8
 71
     3
 72
     8
 73
     4
 74
     0
 42
0.0000000001
 43
0.0000000001
 40
0.0
 40
0.0
 40
0.0
 40
0.0
 40
1.0
 40
1.0
 40
1.0
 40
1.0
 10
949.2744790927744
 20
496.0393798180939
 30
0.0
 10
951.6295727046317
 20
499.1479440778984
 30
0.0
 10
952.2067084566343
 20
503.2544783334051
 30
0.0
 10
950.7996836101666
 20
506.8917738615909
 30
0.0
  0
SPLINE
  5
B9
330
70
100
AcDbEntity
  8
SHAPE2DVIEW001
 62
    18
420
        0
370
    25
100
AcDbSpline
210
0.0
220
0.0
230
1.0
 70
     8
 71
     3
 72
     8
 73
     4
 74
     0
 42
0.0000000001
 43
0.0000000001
 40
0.0
 40
0.0
 40
0.0
 40
0.0
 40
1.0
 40
1.0
 40
1.0
 40
1.0
 10
941.7072481148052
 20
513.9955630240565
 30
0.0
 10
937.8376126236972
 20
514.4808509208378
 30
0.0
 10
933.9926880625879
 20
512.9274044648337
 30
0.0
 10
931.5462092397693
 20
509.8902471514393
 30
0.0
  0
SPLINE
  5
BA
330
70
100
AcDbEntity
  8
SHAPE2DVIEW001
 62
    18
420
        0
370
    25
100
AcDbSpline
210
0.0
220
0.0
230
1.0
 70
     8
 71
     3
 72
    11
 73
     7
 74
     0
 42
0.0000000001
 43
0.0000000001
 40
0.0
 40
0.0
 40
0.0
 40
0.0
 40
1.0
 40
1.0
 40
1.0
 40
2.0
 40
2.0
 40
2.0
 40
2.0
 10
941.3511582572009
 20
510.2600105155615
 30
0.0
 10
937.2493336126225
 20
510.8364843749131
 30
0.0
 10
933.4568233437904
 20
507.9786229017773
 30
0.0
 10
932.8803494844377
 20
503.8767982572007
 30
0.0
 10
932.6971246210542
 20
502.5730856118916
 30
0.0
 10
932.8603021543894
 20
501.2441112511441
 30
0.0
 10
933.3534810907494
 20
500.0234505493808
 30
0.0
  0
SPLINE
  5
BB
330
70
100
AcDbEntity
  8
SHAPE2DVIEW001
 62
    18
420
        0
370
    25
100
AcDbSpline
210
0.0
220
0.0
230
1.0
 70
     8
 71
     3
 72
    11
 73
     7
 74
     0
 42
0.0000000001
 43
0.0000000001
 40
0.0
 40
0.0
 40
0.0
 40
0.0
 40
1.0
 40
1.0
 40
1.0
 40
2.0
 40
2.0
 40
2.0
 40
2.0
 10
946.2174406520507
 20
498.2155389350573
 30
0.0
 10
948.7675939811561
 20
501.4795863494546
 30
0.0
 10
948.1888684793402
 20
506.1929273229452
 30
0.0
 10
944.924821064942
 20
508.7430806520496
 30
0.0
 10
943.8873852265624
 20
509.5536143610006
 30
0.0
 10
942.6548709025091
 20
510.0767856521779
 30
0.0
 10
941.3511582572009
 20
510.2600105155615
 30
0.0
  0
SPLINE
  5
BC
330
70
100
AcDbEntity
  8
SHAPE2DVIEW001
 62
    18
420
        0
370
    25
100
AcDbSpline
210
0.0
220
0.0
230
1.0
 70
     8
 71
     3
 72
    11
 73
     7
 74
     0
 42
0.0000000001
 43
0.0000000001
 40
0.0
 40
0.0
 40
0.0
 40
0.0
 40
1.0
 40
1.0
 40
1.0
 40
2.0
 40
2.0
 40
2.0
 40
2.0
 10
933.3534810907494
 20
500.0234505493808
 30
0.0
 10
934.9051524062215
 20
496.1829292756319
 30
0.0
 10
939.2763881768697
 20
494.3274497752772
 30
0.0
 10
943.1169094506195
 20
495.8791210907492
 30
0.0
 10
944.3375701523837
 20
496.3723000271074
 30
0.0
 10
945.4069069431007
 20
497.1781030966776
 30
0.0
 10
946.2174406520507
 20
498.2155389350573
 30
0.0
  0
SPLINE
  5
BD
330
70
100
AcDbEntity
  8
SHAPE2DVIEW001
 62
    18
420
        0
370
    25
100
AcDbSpline
210
0.0
220
0.0
230
1.0
 70
     8
 71
     3
 72
     8
 73
     4
 74
     0
 42
0.0000000001
 43
0.0000000001
 40
0.0
 40
0.0
 40
0.0
 40
0.0
 40
1.0
 40
1.0
 40
1.0
 40
1.0
 10
973.7621219222146
 20
418.7368281662365
 30
0.0
 10
974.1104435376547
 20
418.5975588207511
 30
0.0
 10
974.506633132867
 20
418.7576302098005
 30
0.0
 10
974.6604495204246
 20
419.0997769872101
 30
0.0
  0
SPLINE
  5
BE
330
70
100
AcDbEntity
  8
SHAPE2DVIEW001
 62
    18
420
        0
370
    25
100
AcDbSpline
210
0.0
220
0.0
230
1.0
 70
     8
 71
     3
 72
     8
 73
     4
 74
     0
 42
0.0000000001
 43
0.0000000001
 40
0.0
 40
0.0
 40
0.0
 40
0.0
 40
1.0
 40
1.0
 40
1.0
 40
1.0
 10
974.6604446077526
 20
419.0997274752044
 30
0.0
 10
987.4057994813629
 20
447.4502963986124
 30
0.0
 10
976.3888257057514
 20
480.840626748919
 30
0.0
 10
949.2744866678085
 20
496.0396874985417
 30
0.0
  0
SPLINE
  5
BF
330
70
100
AcDbEntity
  8
SHAPE2DVIEW001
 62
    18
420
        0
370
    25
100
AcDbSpline
210
0.0
220
0.0
230
1.0
 70
     8
 71
     3
 72
     8
 73
     4
 74
     0
 42
0.0000000001
 43
0.0000000001
 40
0.0
 40
0.0
 40
0.0
 40
0.0
 40
1.0
 40
1.0
 40
1.0
 40
1.0
 10
995.6462108858032
 20
574.4505722956255
 30
0.0
 10
964.7212205495852
 20
571.3130889347158
 30
0.0
 10
941.312833113271
 20
545.0769445970554
 30
0.0
 10
941.707229909406
 20
513.9957078085626
 30
0.0
  0
SPLINE
  5
C0
330
70
100
AcDbEntity
  8
SHAPE2DVIEW001
 62
    18
420
        0
370
    25
100
AcDbSpline
210
0.0
220
0.0
230
1.0
 70
     8
 71
     3
 72
     8
 73
     4
 74
     0
 42
0.0000000001
 43
0.0000000001
 40
0.0
 40
0.0
 40
0.0
 40
0.0
 40
1.0
 40
1.0
 40
1.0
 40
1.0
 10
950.7996667153411
 20
506.8917696138377
 30
0.0
 10
981.053071159129
 20
514.0283198095458
 30
0.0
 10
1000.846888422395
 20
543.0884758694064
 30
0.0
 10
996.4097428352088
 20
573.8538877498495
 30
0.0
  0
SPLINE
  5
C1
330
70
100
AcDbEntity
  8
SHAPE2DVIEW001
 62
    18
420
        0
370
    25
100
AcDbSpline
210
0.0
220
0.0
230
1.0
 70
     8
 71
     3
 72
     8
 73
     4
 74
     0
 42
0.0000000001
 43
0.0000000001
 40
0.0
 40
0.0
 40
0.0
 40
0.0
 40
1.0
 40
1.0
 40
1.0
 40
1.0
 10
996.4097313330766
 20
573.8539236904152
 30
0.0
 10
996.3561818970138
 20
574.2252142924635
 30
0.0
 10
996.0194609257888
 20
574.4882895474257
 30
0.0
 10
995.6462444603348
 20
574.4504250101154
 30
0.0
  0
LINE
  5
C3
330
70
100
AcDbEntity
  8
SHAPE2DVIEW002
 62
    18
420
        0
370
    25
100
AcDbLine
 10
847.6099999999997
 20
594.9650000000001
 30
0.0
 11
840.375
 21
621.9650000000001
 31
0.0
  0
SPLINE
  5
C4
330
70
100
AcDbEntity
  8
SHAPE2DVIEW002
 62
    18
420
        0
370
    25
100
AcDbSpline
210
0.0
220
0.0
230
1.0
 70
     8
 71
     3
 72
    11
 73
     7
 74
     0
 42
0.0000000001
 43
0.0000000001
 40
0.0
 40
0.0
 40
0.0
 40
0.0
 40
1.0
 40
1.0
 40
1.0
 40
2.0
 40
2.0
 40
2.0
 40
2.0
 10
844.2389999999996
 20
627.0
 30
0.0
 10
842.0298610006765
 20
627.0
 30
0.0
 10
840.2389999999995
 20
625.2091389993229
 30
0.0
 10
840.2389999999995
 20
623.0
 30
0.0
 10
840.2389999999995
 20
622.650434864985
 30
0.0
 10
840.2848225803982
 20
622.3023778114711
 30
0.0
 10
840.3752966948442
 20
621.9647238195903
 30
0.0
  0
LINE
  5
C5
330
70
100
AcDbEntity
  8
SHAPE2DVIEW002
 62
    18
420
        0
370
    25
100
AcDbLine
 10
844.2389999999996
 20
627.0
 30
0.0
 11
940.3749900000002
 21
627.0
 31
0.0
  0
LINE
  5
C6
330
70
100
AcDbEntity
  8
SHAPE2DVIEW002
 62
    18
420
        0
370
    25
100
AcDbLine
 10
940.3749900000002
 20
627.0
 30
0.0
 11
1036.5113
 21
627.0
 31
0.0
  0
SPLINE
  5
C7
330
70
100
AcDbEntity
  8
SHAPE2DVIEW002
 62
    18
420
        0
370
    25
100
AcDbSpline
210
0.0
220
0.0
230
1.0
 70
     8
 71
     3
 72
    11
 73
     7
 74
     0
 42
0.0000000001
 43
0.0000000001
 40
0.0
 40
0.0
 40
0.0
 40
0.0
 40
1.0
 40
1.0
 40
1.0
 40
2.0
 40
2.0
 40
2.0
 40
2.0
 10
1040.375003305156
 20
621.9647238195903
 30
0.0
 10
1040.94677055146
 20
624.0985882328986
 30
0.0
 10
1039.680440593718
 20
626.291936058853
 30
0.0
 10
1037.54657618041
 20
626.8637033051564
 30
0.0
 10
1037.208915416124
 20
626.9541792342624
 30
0.0
 10
1036.860851202367
 20
627.0000018303008
 30
0.0
 10
1036.511279056049
 20
626.9999999999454
 30
0.0
  0
LINE
  5
C8
330
70
100
AcDbEntity
  8
SHAPE2DVIEW002
 62
    18
420
        0
370
    25
100
AcDbLine
 10
1040.375
 20
621.9650000000001
 30
0.0
 11
1033.1404
 21
594.9650000000001
 31
0.0
  0
SPLINE
  5
C9
330
70
100
AcDbEntity
  8
SHAPE2DVIEW002
 62
    18
420
        0
370
    25
100
AcDbSpline
210
0.0
220
0.0
230
1.0
 70
     8
 71
     3
 72
     8
 73
     4
 74
     0
 42
0.0000000001
 43
0.0000000001
 40
0.0
 40
0.0
 40
0.0
 40
0.0
 40
1.0
 40
1.0
 40
1.0
 40
1.0
 10
1029.2767
 20
592.0
 30
0.0
 10
1031.087122713937
 20
592.0
 30
0.0
 10
1032.671831427102
 20
593.2159897636966
 30
0.0
 10
1033.140403305156
 20
594.9647238195902
 30
0.0
  0
LINE
  5
CA
330
70
100
AcDbEntity
  8
SHAPE2DVIEW002
 62
    18
420
        0
370
    25
100
AcDbLine
 10
1029.2767
 20
592.0
 30
0.0
 11
851.4732999999996
 21
592.0
 31
0.0
  0
SPLINE
  5
CB
330
70
100
AcDbEntity
  8
SHAPE2DVIEW002
 62
    18
420
        0
370
    25
100
AcDbSpline
210
0.0
220
0.0
230
1.0
 70
     8
 71
     3
 72
     8
 73
     4
 74
     0
 42
0.0000000001
 43
0.0000000001
 40
0.0
 40
0.0
 40
0.0
 40
0.0
 40
1.0
 40
1.0
 40
1.0
 40
1.0
 10
847.6095966948433
 20
594.9647238195902
 30
0.0
 10
848.078168572897
 20
593.2159897636966
 30
0.0
 10
849.6628772860622
 20
592.0
 30
0.0
 10
851.4732999999996
 20
592.0
 30
0.0
  0
LINE
  5
CC
330
70
100
AcDbEntity
  8
SHAPE2DVIEW002
 62
    18
420
        0
370
    25
100
AcDbLine
 10
1004.375
 20
614.5
 30
0.0
 11
1008.375
 21
614.5
 31
0.0
  0
LINE
  5
CD
330
70
100
AcDbEntity
  8
SHAPE2DVIEW002
 62
    18
420
        0
370
    25
100
AcDbLine
 10
1008.375
 20
614.5
 30
0.0
 11
1008.375
 21
604.4999999999999
 31
0.0
  0
LINE
  5
CE
330
70
100
AcDbEntity
  8
SHAPE2DVIEW002
 62
    18
420
        0
370
    25
100
AcDbLine
 10
1008.375
 20
604.4999999999999
 30
0.0
 11
1004.375
 21
604.4999999999999
 31
0.0
  0
LINE
  5
CF
330
70
100
AcDbEntity
  8
SHAPE2DVIEW002
 62
    18
420
        0
370
    25
100
AcDbLine
 10
1004.375
 20
604.4999999999999
 30
0.0
 11
1004.375
 21
614.5
 31
0.0
  0
LINE
  5
D0
330
70
100
AcDbEntity
  8
SHAPE2DVIEW002
 62
    18
420
        0
370
    25
100
AcDbLine
 10
896.375
 20
614.5
 30
0.0
 11
900.375
 21
614.5
 31
0.0
  0
LINE
  5
D1
330
70
100
AcDbEntity
  8
SHAPE2DVIEW002
 62
    18
420
        0
370
    25
100
AcDbLine
 10
900.375
 20
614.5
 30
0.0
 11
900.375
 21
604.4999999999999
 31
0.0
  0
LINE
  5
D2
330
70
100
AcDbEntity
  8
SHAPE2DVIEW002
 62
    18
420
        0
370
    25
100
AcDbLine
 10
900.375
 20
604.4999999999999
 30
0.0
 11
896.375
 21
604.4999999999999
 31
0.0
  0
LINE
  5
D3
330
70
100
AcDbEntity
  8
SHAPE2DVIEW002
 62
    18
420
        0
370
    25
100
AcDbLine
 10
896.375
 20
604.4999999999999
 30
0.0
 11
896.375
 21
614.5
 31
0.0
  0
LINE
  5
D4
330
70
100
AcDbEntity
  8
SHAPE2DVIEW002
 62
    18
420
        0
370
    25
100
AcDbLine
 10
980.375
 20
614.5
 30
0.0
 11
984.375
 21
614.5
 31
0.0
  0
LINE
  5
D5
330
70
100
AcDbEntity
  8
SHAPE2DVIEW002
 62
    18
420
        0
370
    25
100
AcDbLine
 10
984.375
 20
614.5
 30
0.0
 11
984.375
 21
604.4999999999999
 31
0.0
  0
LINE
  5
D6
330
70
100
AcDbEntity
  8
SHAPE2DVIEW002
 62
    18
420
        0
370
    25
100
AcDbLine
 10
984.375
 20
604.4999999999999
 30
0.0
 11
980.375
 21
604.4999999999999
 31
0.0
  0
LINE
  5
D7
330
70
100
AcDbEntity
  8
SHAPE2DVIEW002
 62
    18
420
        0
370
    25
100
AcDbLine
 10
980.375
 20
604.4999999999999
 30
0.0
 11
980.375
 21
614.5
 31
0.0
  0
LINE
  5
D8
330
70
100
AcDbEntity
  8
SHAPE2DVIEW002
 62
    18
420
        0
370
    25
100
AcDbLine
 10
872.375
 20
614.5
 30
0.0
 11
876.3749999999999
 21
614.5
 31
0.0
  0
LINE
  5
D9
330
70
100
AcDbEntity
  8
SHAPE2DVIEW002
 62
    18
420
        0
370
    25
100
AcDbLine
 10
876.3749999999999
 20
614.5
 30
0.0
 11
876.3749999999999
 21
604.4999999999999
 31
0.0
  0
LINE
  5
DA
330
70
100
AcDbEntity
  8
SHAPE2DVIEW002
 62
    18
420
        0
370
    25
100
AcDbLine
 10
876.3749999999999
 20
604.4999999999999
 30
0.0
 11
872.375
 21
604.4999999999999
 31
0.0
  0
LINE
  5
DB
330
70
100
AcDbEntity
  8
SHAPE2DVIEW002
 62
    18
420
        0
370
    25
100
AcDbLine
 10
872.375
 20
604.4999999999999
 30
0.0
 11
872.375
 21
614.5
 31
0.0
  0
LINE
  5
DD
330
70
100
AcDbEntity
  8
SHAPE2DVIEW003
 62
    18
420
        0
370
    25
100
AcDbLine
 10
829.3749999999999
 20
494.0
 30
0.0
 11
829.3749999999999
 21
511.5
 31
0.0
  0
LINE
  5
DE
330
70
100
AcDbEntity
  8
SHAPE2DVIEW003
 62
    18
420
        0
370
    25
100
AcDbLine
 10
829.3749999999999
 20
511.5
 30
0.0
 11
833.375
 21
511.5
 31
0.0
  0
LINE
  5
DF
330
70
100
AcDbEntity
  8
SHAPE2DVIEW003
 62
    18
420
        0
370
    25
100
AcDbLine
 10
833.375
 20
511.5
 30
0.0
 11
833.375
 21
494.0
 31
0.0
  0
SPLINE
  5
E0
330
70
100
AcDbEntity
  8
SHAPE2DVIEW003
 62
    18
420
        0
370
    25
100
AcDbSpline
210
0.0
220
0.0
230
1.0
 70
     8
 71
     3
 72
     8
 73
     4
 74
     0
 42
0.0000000001
 43
0.0000000001
 40
0.0
 40
0.0
 40
0.0
 40
0.0
 40
1.0
 40
1.0
 40
1.0
 40
1.0
 10
833.375
 20
494.0
 30
0.0
 10
836.6887084989848
 20
494.0
 30
0.0
 10
839.375
 20
496.6862915010151
 30
0.0
 10
839.375
 20
500.0
 30
0.0
  0
LINE
  5
E1
330
70
100
AcDbEntity
  8
SHAPE2DVIEW003
 62
    18
420
        0
370
    25
100
AcDbLine
 10
839.375
 20
500.0
 30
0.0
 11
839.375
 21
517.4999999999999
 31
0.0
  0
LINE
  5
E2
330
70
100
AcDbEntity
  8
SHAPE2DVIEW003
 62
    18
420
        0
370
    25
100
AcDbLine
 10
839.375
 20
517.4999999999999
 30
0.0
 11
819.1800000000002
 21
661.1949999999997
 31
0.0
  0
SPLINE
  5
E3
330
70
100
AcDbEntity
  8
SHAPE2DVIEW003
 62
    18
420
        0
370
    25
100
AcDbSpline
210
0.0
220
0.0
230
1.0
 70
     8
 71
     3
 72
     8
 73
     4
 74
     0
 42
0.0000000001
 43
0.0000000001
 40
0.0
 40
0.0
 40
0.0
 40
0.0
 40
1.0
 40
1.0
 40
1.0
 40
1.0
 10
819.1799799999998
 20
661.1949999999997
 30
0.0
 10
819.1799799999998
 20
665.5055714267346
 30
0.0
 10
815.685571426734
 20
668.9999799999996
 30
0.0
 10
811.3749999999999
 20
668.9999799999996
 30
0.0
  0
LINE
  5
E4
330
70
100
AcDbEntity
  8
SHAPE2DVIEW003
 62
    18
420
        0
370
    25
100
AcDbLine
 10
811.3749999999999
 20
654.0
 30
0.0
 11
811.3749999999999
 21
669.0
 31
0.0
  0
LINE
  5
E5
330
70
100
AcDbEntity
  8
SHAPE2DVIEW003
 62
    18
420
        0
370
    25
100
AcDbLine
 10
807.375
 20
654.0
 30
0.0
 11
811.3749999999999
 21
654.0
 31
0.0
  0
LINE
  5
E6
330
70
100
AcDbEntity
  8
SHAPE2DVIEW003
 62
    18
420
        0
370
    25
100
AcDbLine
 10
807.375
 20
669.0
 30
0.0
 11
807.375
 21
654.0
 31
0.0
  0
SPLINE
  5
E7
330
70
100
AcDbEntity
  8
SHAPE2DVIEW003
 62
    18
420
        0
370
    25
100
AcDbSpline
210
0.0
220
0.0
230
1.0
 70
     8
 71
     3
 72
    11
 73
     7
 74
     0
 42
0.0000000001
 43
0.0000000001
 40
0.0
 40
0.0
 40
0.0
 40
0.0
 40
1.0
 40
1.0
 40
1.0
 40
2.0
 40
2.0
 40
2.0
 40
2.0
 10
807.3751309365306
 20
668.9999450435798
 30
0.0
 10
800.4716019152382
 20
665.5178620101451
 30
0.0
 10
797.6979719229866
 20
657.0986599578227
 30
0.0
 10
801.1800549564204
 20
650.1951309365304
 30
0.0
 10
802.5291151997343
 20
647.5205030049846
 30
0.0
 10
804.7005030049849
 20
645.3491151997341
 30
0.0
 10
807.3751309365306
 20
644.0000549564201
 30
0.0
  0
LINE
  5
E8
330
70
100
AcDbEntity
  8
SHAPE2DVIEW003
 62
    18
420
        0
370
    25
100
AcDbLine
 10
807.375
 20
644.0
 30
0.0
 11
807.375
 21
563.0
 31
0.0
  0
LINE
  5
E9
330
70
100
AcDbEntity
  8
SHAPE2DVIEW003
 62
    18
420
        0
370
    25
100
AcDbLine
 10
822.375
 20
563.0
 30
0.0
 11
807.375
 21
563.0
 31
0.0
  0
LINE
  5
EA
330
70
100
AcDbEntity
  8
SHAPE2DVIEW003
 62
    18
420
        0
370
    25
100
AcDbLine
 10
822.375
 20
559.0
 30
0.0
 11
822.375
 21
563.0
 31
0.0
  0
LINE
  5
EB
330
70
100
AcDbEntity
  8
SHAPE2DVIEW003
 62
    18
420
        0
370
    25
100
AcDbLine
 10
807.375
 20
559.0
 30
0.0
 11
822.375
 21
559.0
 31
0.0
  0
LINE
  5
EC
330
70
100
AcDbEntity
  8
SHAPE2DVIEW003
 62
    18
420
        0
370
    25
100
AcDbLine
 10
807.375
 20
559.0
 30
0.0
 11
807.375
 21
478.0
 31
0.0
  0
SPLINE
  5
ED
330
70
100
AcDbEntity
  8
SHAPE2DVIEW003
 62
    18
420
        0
370
    25
100
AcDbSpline
210
0.0
220
0.0
230
1.0
 70
     8
 71
     3
 72
     8
 73
     4
 74
     0
 42
0.0000000001
 43
0.0000000001
 40
0.0
 40
0.0
 40
0.0
 40
0.0
 40
1.0
 40
1.0
 40
1.0
 40
1.0
 10
807.375
 20
478.0
 30
0.0
 10
807.375
 20
475.7908610006762
 30
0.0
 10
809.1658610006771
 20
474.0
 30
0.0
 10
811.3749999999999
 20
474.0
 30
0.0
  0
LINE
  5
EE
330
70
100
AcDbEntity
  8
SHAPE2DVIEW003
 62
    18
420
        0
370
    25
100
AcDbLine
 10
811.3749999999999
 20
474.0
 30
0.0
 11
829.3749999999999
 21
474.0
 31
0.0
  0
LINE
  5
EF
330
70
100
AcDbEntity
  8
SHAPE2DVIEW003
 62
    18
420
        0
370
    25
100
AcDbLine
 10
829.3749999999999
 20
480.0
 30
0.0
 11
829.3749999999999
 21
474.0
 31
0.0
  0
LINE
  5
F0
330
70
100
AcDbEntity
  8
SHAPE2DVIEW003
 62
    18
420
        0
370
    25
100
AcDbLine
 10
814.375
 20
480.0
 30
0.0
 11
829.3749999999999
 21
480.0
 31
0.0
  0
LINE
  5
F1
330
70
100
AcDbEntity
  8
SHAPE2DVIEW003
 62
    18
420
        0
370
    25
100
AcDbLine
 10
814.375
 20
484.0
 30
0.0
 11
814.375
 21
480.0
 31
0.0
  0
LINE
  5
F2
330
70
100
AcDbEntity
  8
SHAPE2DVIEW003
 62
    18
420
        0
370
    25
100
AcDbLine
 10
829.3749999999999
 20
484.0
 30
0.0
 11
814.375
 21
484.0
 31
0.0
  0
LINE
  5
F3
330
70
100
AcDbEntity
  8
SHAPE2DVIEW003
 62
    18
420
        0
370
    25
100
AcDbLine
 10
829.3749999999999
 20
490.0
 30
0.0
 11
829.3749999999999
 21
484.0
 31
0.0
  0
LINE
  5
F4
330
70
100
AcDbEntity
  8
SHAPE2DVIEW003
 62
    18
420
        0
370
    25
100
AcDbLine
 10
814.375
 20
490.0
 30
0.0
 11
829.3749999999999
 21
490.0
 31
0.0
  0
LINE
  5
F5
330
70
100
AcDbEntity
  8
SHAPE2DVIEW003
 62
    18
420
        0
370
    25
100
AcDbLine
 10
814.375
 20
494.0
 30
0.0
 11
814.375
 21
490.0
 31
0.0
  0
LINE
  5
F6
330
70
100
AcDbEntity
  8
SHAPE2DVIEW003
 62
    18
420
        0
370
    25
100
AcDbLine
 10
829.3749999999999
 20
494.0
 30
0.0
 11
814.375
 21
494.0
 31
0.0
  0
LINE
  5
F8
330
70
100
AcDbEntity
  8
SHAPE2DVIEW004
 62
    18
420
        0
370
    25
100
AcDbLine
 10
866.6095999999997
 20
548.9650000000001
 30
0.0
 11
859.375
 21
575.9650000000001
 31
0.0
  0
SPLINE
  5
F9
330
70
100
AcDbEntity
  8
SHAPE2DVIEW004
 62
    18
420
        0
370
    25
100
AcDbSpline
210
0.0
220
0.0
230
1.0
 70
     8
 71
     3
 72
    11
 73
     7
 74
     0
 42
0.0000000001
 43
0.0000000001
 40
0.0
 40
0.0
 40
0.0
 40
0.0
 40
1.0
 40
1.0
 40
1.0
 40
2.0
 40
2.0
 40
2.0
 40
2.0
 10
863.2386999999999
 20
581.0
 30
0.0
 10
861.0295610006769
 20
581.0
 30
0.0
 10
859.2386999999998
 20
579.2091389993229
 30
0.0
 10
859.2386999999998
 20
577.0
 30
0.0
 10
859.2386999999998
 20
576.650434864985
 30
0.0
 10
859.2845225803976
 20
576.3023778114711
 30
0.0
 10
859.3749966948434
 20
575.9647238195903
 30
0.0
  0
LINE
  5
FA
330
70
100
AcDbEntity
  8
SHAPE2DVIEW004
 62
    18
420
        0
370
    25
100
AcDbLine
 10
863.2386999999999
 20
581.0
 30
0.0
 11
895.3749999999999
 21
581.0
 31
0.0
  0
SPLINE
  5
FB
330
70
100
AcDbEntity
  8
SHAPE2DVIEW004
 62
    18
420
        0
370
    25
100
AcDbSpline
210
0.0
220
0.0
230
1.0
 70
     8
 71
     3
 72
     8
 73
     4
 74
     0
 42
0.0000000001
 43
0.0000000001
 40
0.0
 40
0.0
 40
0.0
 40
0.0
 40
1.0
 40
1.0
 40
1.0
 40
1.0
 10
897.375
 20
579.0
 30
0.0
 10
897.375
 20
580.1045694996619
 30
0.0
 10
896.4795694996618
 20
581.0
 30
0.0
 10
895.3749999999999
 20
581.0
 30
0.0
  0
LINE
  5
FC
330
70
100
AcDbEntity
  8
SHAPE2DVIEW004
 62
    18
420
        0
370
    25
100
AcDbLine
 10
897.375
 20
579.0
 30
0.0
 11
897.375
 21
566.0
 31
0.0
  0
LINE
  5
FD
330
70
100
AcDbEntity
  8
SHAPE2DVIEW004
 62
    18
420
        0
370
    25
100
AcDbLine
 10
897.375
 20
566.0
 30
0.0
 11
901.3749999999999
 21
566.0
 31
0.0
  0
LINE
  5
FE
330
70
100
AcDbEntity
  8
SHAPE2DVIEW004
 62
    18
420
        0
370
    25
100
AcDbLine
 10
901.3749999999999
 20
566.0
 30
0.0
 11
901.3749999999999
 21
579.0
 31
0.0
  0
SPLINE
  5
FF
330
70
100
AcDbEntity
  8
SHAPE2DVIEW004
 62
    18
420
        0
370
    25
100
AcDbSpline
210
0.0
220
0.0
230
1.0
 70
     8
 71
     3
 72
     8
 73
     4
 74
     0
 42
0.0000000001
 43
0.0000000001
 40
0.0
 40
0.0
 40
0.0
 40
0.0
 40
1.0
 40
1.0
 40
1.0
 40
1.0
 10
903.3749999999999
 20
581.0
 30
0.0
 10
902.2704305003381
 20
581.0
 30
0.0
 10
901.3749999999999
 20
580.1045694996619
 30
0.0
 10
901.3749999999999
 20
579.0
 30
0.0
  0
LINE
  5
100
330
70
100
AcDbEntity
  8
SHAPE2DVIEW004
 62
    18
420
        0
370
    25
100
AcDbLine
 10
903.3749999999999
 20
581.0
 30
0.0
 11
935.5113000000001
 21
581.0
 31
0.0
  0
SPLINE
  5
101
330
70
100
AcDbEntity
  8
SHAPE2DVIEW004
 62
    18
420
        0
370
    25
100
AcDbSpline
210
0.0
220
0.0
230
1.0
 70
     8
 71
     3
 72
    11
 73
     7
 74
     0
 42
0.0000000001
 43
0.0000000001
 40
0.0
 40
0.0
 40
0.0
 40
0.0
 40
1.0
 40
1.0
 40
1.0
 40
2.0
 40
2.0
 40
2.0
 40
2.0
 10
939.3750033051565
 20
575.9647238195903
 30
0.0
 10
939.9467705514599
 20
578.0985882328987
 30
0.0
 10
938.6804405937182
 20
580.291936058853
 30
0.0
 10
936.5465761804099
 20
580.8637033051564
 30
0.0
 10
936.2089312183998
 20
580.9541750000553
 30
0.0
 10
935.8608837118644
 20
580.9999975595428
 30
0.0
 10
935.5113279252682
 20
580.9999999999027
 30
0.0
  0
LINE
  5
102
330
70
100
AcDbEntity
  8
SHAPE2DVIEW004
 62
    18
420
        0
370
    25
100
AcDbLine
 10
939.375
 20
575.9650000000001
 30
0.0
 11
932.1404000000002
 21
548.9650000000001
 31
0.0
  0
SPLINE
  5
103
330
70
100
AcDbEntity
  8
SHAPE2DVIEW004
 62
    18
420
        0
370
    25
100
AcDbSpline
210
0.0
220
0.0
230
1.0
 70
     8
 71
     3
 72
     8
 73
     4
 74
     0
 42
0.0000000001
 43
0.0000000001
 40
0.0
 40
0.0
 40
0.0
 40
0.0
 40
1.0
 40
1.0
 40
1.0
 40
1.0
 10
928.2767000000003
 20
546.0
 30
0.0
 10
930.0871227139378
 20
546.0
 30
0.0
 10
931.6718314271028
 20
547.2159897636966
 30
0.0
 10
932.1404033051567
 20
548.9647238195902
 30
0.0
  0
LINE
  5
104
330
70
100
AcDbEntity
  8
SHAPE2DVIEW004
 62
    18
420
        0
370
    25
100
AcDbLine
 10
928.2767000000003
 20
546.0
 30
0.0
 11
917.375
 21
546.0
 31
0.0
  0
SPLINE
  5
105
330
70
100
AcDbEntity
  8
SHAPE2DVIEW004
 62
    18
420
        0
370
    25
100
AcDbSpline
210
0.0
220
0.0
230
1.0
 70
     8
 71
     3
 72
     8
 73
     4
 74
     0
 42
0.0000000001
 43
0.0000000001
 40
0.0
 40
0.0
 40
0.0
 40
0.0
 40
1.0
 40
1.0
 40
1.0
 40
1.0
 10
913.375
 20
550.0
 30
0.0
 10
913.375
 20
547.790861000677
 30
0.0
 10
915.1658610006771
 20
546.0
 30
0.0
 10
917.375
 20
546.0
 30
0.0
  0
LINE
  5
106
330
70
100
AcDbEntity
  8
SHAPE2DVIEW004
 62
    18
420
        0
370
    25
100
AcDbLine
 10
913.375
 20
561.0
 30
0.0
 11
913.375
 21
550.0
 31
0.0
  0
LINE
  5
107
330
70
100
AcDbEntity
  8
SHAPE2DVIEW004
 62
    18
420
        0
370
    25
100
AcDbLine
 10
909.375
 20
561.0
 30
0.0
 11
913.375
 21
561.0
 31
0.0
  0
LINE
  5
108
330
70
100
AcDbEntity
  8
SHAPE2DVIEW004
 62
    18
420
        0
370
    25
100
AcDbLine
 10
909.375
 20
550.0
 30
0.0
 11
909.375
 21
561.0
 31
0.0
  0
SPLINE
  5
109
330
70
100
AcDbEntity
  8
SHAPE2DVIEW004
 62
    18
420
        0
370
    25
100
AcDbSpline
210
0.0
220
0.0
230
1.0
 70
     8
 71
     3
 72
     8
 73
     4
 74
     0
 42
0.0000000001
 43
0.0000000001
 40
0.0
 40
0.0
 40
0.0
 40
0.0
 40
1.0
 40
1.0
 40
1.0
 40
1.0
 10
905.375
 20
546.0
 30
0.0
 10
907.5841389993229
 20
546.0
 30
0.0
 10
909.375
 20
547.790861000677
 30
0.0
 10
909.375
 20
550.0
 30
0.0
  0
LINE
  5
10A
330
70
100
AcDbEntity
  8
SHAPE2DVIEW004
 62
    18
420
        0
370
    25
100
AcDbLine
 10
905.375
 20
546.0
 30
0.0
 11
893.3749999999999
 21
546.0
 31
0.0
  0
SPLINE
  5
10B
330
70
100
AcDbEntity
  8
SHAPE2DVIEW004
 62
    18
420
        0
370
    25
100
AcDbSpline
210
0.0
220
0.0
230
1.0
 70
     8
 71
     3
 72
     8
 73
     4
 74
     0
 42
0.0000000001
 43
0.0000000001
 40
0.0
 40
0.0
 40
0.0
 40
0.0
 40
1.0
 40
1.0
 40
1.0
 40
1.0
 10
889.375
 20
550.0
 30
0.0
 10
889.375
 20
547.790861000677
 30
0.0
 10
891.1658610006771
 20
546.0
 30
0.0
 10
893.3749999999999
 20
546.0
 30
0.0
  0
LINE
  5
10C
330
70
100
AcDbEntity
  8
SHAPE2DVIEW004
 62
    18
420
        0
370
    25
100
AcDbLine
 10
889.375
 20
550.0
 30
0.0
 11
889.375
 21
561.0
 31
0.0
  0
LINE
  5
10D
330
70
100
AcDbEntity
  8
SHAPE2DVIEW004
 62
    18
420
        0
370
    25
100
AcDbLine
 10
889.375
 20
561.0
 30
0.0
 11
885.3749999999999
 21
561.0
 31
0.0
  0
LINE
  5
10E
330
70
100
AcDbEntity
  8
SHAPE2DVIEW004
 62
    18
420
        0
370
    25
100
AcDbLine
 10
885.3749999999999
 20
561.0
 30
0.0
 11
885.3749999999999
 21
550.0
 31
0.0
  0
SPLINE
  5
10F
330
70
100
AcDbEntity
  8
SHAPE2DVIEW004
 62
    18
420
        0
370
    25
100
AcDbSpline
210
0.0
220
0.0
230
1.0
 70
     8
 71
     3
 72
     8
 73
     4
 74
     0
 42
0.0000000001
 43
0.0000000001
 40
0.0
 40
0.0
 40
0.0
 40
0.0
 40
1.0
 40
1.0
 40
1.0
 40
1.0
 10
881.375
 20
546.0
 30
0.0
 10
883.5841389993229
 20
546.0
 30
0.0
 10
885.3749999999999
 20
547.790861000677
 30
0.0
 10
885.3749999999999
 20
550.0
 30
0.0
  0
LINE
  5
110
330
70
100
AcDbEntity
  8
SHAPE2DVIEW004
 62
    18
420
        0
370
    25
100
AcDbLine
 10
881.375
 20
546.0
 30
0.0
 11
870.4732999999997
 21
546.0
 31
0.0
  0
SPLINE
  5
111
330
70
100
AcDbEntity
  8
SHAPE2DVIEW004
 62
    18
420
        0
370
    25
100
AcDbSpline
210
0.0
220
0.0
230
1.0
 70
     8
 71
     3
 72
     8
 73
     4
 74
     0
 42
0.0000000001
 43
0.0000000001
 40
0.0
 40
0.0
 40
0.0
 40
0.0
 40
1.0
 40
1.0
 40
1.0
 40
1.0
 10
866.6095966948432
 20
548.9647238195902
 30
0.0
 10
867.0781679011952
 20
547.2159922705214
 30
0.0
 10
868.6628729000039
 20
546.0000031597855
 30
0.0
 10
870.4732930186828
 20
546.0000000000063
 30
0.0
  0
SPLINE
  5
113
330
70
100
AcDbEntity
  8
SHAPE2DVIEW005
 62
    18
420
        0
370
    25
100
AcDbSpline
210
0.0
220
0.0
230
1.0
 70
     8
 71
     3
 72
     8
 73
     4
 74
     0
 42
0.0000000001
 43
0.0000000001
 40
0.0
 40
0.0
 40
0.0
 40
0.0
 40
1.0
 40
1.0
 40
1.0
 40
1.0
 10
893.8279000000003
 20
462.4930000000004
 30
0.0
 10
893.5693666666665
 20
464.7206000000005
 30
0.0
 10
895.7471333333332
 20
462.5979333333325
 30
0.0
 10
900.3612000000002
 20
456.125
 30
0.0
  0
SPLINE
  5
114
330
70
100
AcDbEntity
  8
SHAPE2DVIEW005
 62
    18
420
        0
370
    25
100
AcDbSpline
210
0.0
220
0.0
230
1.0
 70
     8
 71
     3
 72
     8
 73
     4
 74
     0
 42
0.0000000001
 43
0.0000000001
 40
0.0
 40
0.0
 40
0.0
 40
0.0
 40
1.0
 40
1.0
 40
1.0
 40
1.0
 10
884.4461
 20
447.3991999999998
 30
0.0
 10
891.8737000000001
 20
447.0828666666675
 30
0.0
 10
895.0009666666664
 20
452.1141333333325
 30
0.0
 10
893.8279000000003
 20
462.4930000000004
 30
0.0
  0
SPLINE
  5
115
330
70
100
AcDbEntity
  8
SHAPE2DVIEW005
 62
    18
420
        0
370
    25
100
AcDbSpline
210
0.0
220
0.0
230
1.0
 70
     8
 71
     3
 72
     8
 73
     4
 74
     0
 42
0.0000000001
 43
0.0000000001
 40
0.0
 40
0.0
 40
0.0
 40
0.0
 40
1.0
 40
1.0
 40
1.0
 40
1.0
 10
884.4461
 20
447.3991999999998
 30
0.0
 10
864.0544333333336
 20
444.8408666666673
 30
0.0
 10
852.7448999999997
 20
447.9455333333334
 30
0.0
 10
850.5174999999999
 20
456.7132000000001
 30
0.0
  0
SPLINE
  5
116
330
70
100
AcDbEntity
  8
SHAPE2DVIEW005
 62
    18
420
        0
370
    25
100
AcDbSpline
210
0.0
220
0.0
230
1.0
 70
     8
 71
     3
 72
     8
 73
     4
 74
     0
 42
0.0000000001
 43
0.0000000001
 40
0.0
 40
0.0
 40
0.0
 40
0.0
 40
1.0
 40
1.0
 40
1.0
 40
1.0
 10
850.5174999999999
 20
456.7132000000001
 30
0.0
 10
847.4984999999996
 20
465.6647333333331
 30
0.0
 10
857.5395333333336
 20
473.7079666666668
 30
0.0
 10
880.6405999999997
 20
480.8428999999996
 30
0.0
  0
LINE
  5
117
330
70
100
AcDbEntity
  8
SHAPE2DVIEW005
 62
    18
420
        0
370
    25
100
AcDbLine
 10
880.6405999999997
 20
467.3986999999997
 30
0.0
 11
880.6405999999997
 21
480.8428999999996
 31
0.0
  0
LINE
  5
118
330
70
100
AcDbEntity
  8
SHAPE2DVIEW005
 62
    18
420
        0
370
    25
100
AcDbLine
 10
884.6405999999998
 20
467.3986999999997
 30
0.0
 11
880.6405999999997
 21
467.3986999999997
 31
0.0
  0
LINE
  5
119
330
70
100
AcDbEntity
  8
SHAPE2DVIEW005
 62
    18
420
        0
370
    25
100
AcDbLine
 10
884.6405999999998
 20
482.3989999999994
 30
0.0
 11
884.6405999999998
 21
467.3986999999997
 31
0.0
  0
SPLINE
  5
11A
330
70
100
AcDbEntity
  8
SHAPE2DVIEW005
 62
    18
420
        0
370
    25
100
AcDbSpline
210
0.0
220
0.0
230
1.0
 70
     8
 71
     3
 72
     8
 73
     4
 74
     0
 42
0.0000000001
 43
0.0000000001
 40
0.0
 40
0.0
 40
0.0
 40
0.0
 40
1.0
 40
1.0
 40
1.0
 40
1.0
 10
898.7878
 20
469.0563000000001
 30
0.0
 10
898.8602666666665
 20
478.3840999999993
 30
0.0
 10
894.1445333333332
 20
482.8316666666669
 30
0.0
 10
884.6405999999998
 20
482.3989999999994
 30
0.0
  0
SPLINE
  5
11B
330
70
100
AcDbEntity
  8
SHAPE2DVIEW005
 62
    18
420
        0
370
    25
100
AcDbSpline
210
0.0
220
0.0
230
1.0
 70
     8
 71
     3
 72
     8
 73
     4
 74
     0
 42
0.0000000001
 43
0.0000000001
 40
0.0
 40
0.0
 40
0.0
 40
0.0
 40
1.0
 40
1.0
 40
1.0
 40
1.0
 10
898.7878
 20
469.0563000000001
 30
0.0
 10
898.5087999999995
 20
466.6736333333338
 30
0.0
 10
901.0747000000002
 20
464.9001000000007
 30
0.0
 10
906.4854999999997
 20
463.7356999999992
 30
0.0
  0
SPLINE
  5
11C
330
70
100
AcDbEntity
  8
SHAPE2DVIEW005
 62
    18
420
        0
370
    25
100
AcDbSpline
210
0.0
220
0.0
230
1.0
 70
     8
 71
     3
 72
    17
 73
    13
 74
     0
 42
0.0000000001
 43
0.0000000001
 40
0.0
 40
0.0
 40
0.0
 40
0.0
 40
1.0
 40
1.0
 40
1.0
 40
2.0
 40
2.0
 40
2.0
 40
3.0
 40
3.0
 40
3.0
 40
4.0
 40
4.0
 40
4.0
 40
4.0
 10
900.3611629530796
 20
456.1250949342084
 30
0.0
 10
897.5522455131995
 20
448.331563454998
 30
0.0
 10
901.5930735865795
 20
439.7365803929606
 30
0.0
 10
909.3866050657906
 20
436.9276629530795
 30
0.0
 10
917.1801365450027
 20
434.1187455131985
 30
0.0
 10
925.7751196070403
 20
438.1595735865793
 30
0.0
 10
928.5840370469204
 20
445.9531050657915
 30
0.0
 10
931.3929544868006
 20
453.7466365450018
 30
0.0
 10
927.3521264134206
 20
462.3416196070393
 30
0.0
 10
919.5585949342094
 20
465.1505370469203
 30
0.0
 10
915.2153576458903
 20
466.7159114856131
 30
0.0
 10
910.3932342680845
 20
466.1940623061637
 30
0.0
 10
906.4854381332478
 20
463.7357627628808
 30
0.0
  0
LINE
  5
11E
330
70
100
AcDbEntity
  8
SHAPE2DVIEW006
 62
    18
420
        0
370
    25
100
AcDbLine
 10
1047.375
 20
577.0330000000003
 30
0.0
 11
1047.375
 21
562.0330000000003
 31
0.0
  0
SPLINE
  5
11F
330
70
100
AcDbEntity
  8
SHAPE2DVIEW006
 62
    18
420
        0
370
    25
100
AcDbSpline
210
0.0
220
0.0
230
1.0
 70
     8
 71
     3
 72
    11
 73
     7
 74
     0
 42
0.0000000001
 43
0.0000000001
 40
0.0
 40
0.0
 40
0.0
 40
0.0
 40
1.0
 40
1.0
 40
1.0
 40
2.0
 40
2.0
 40
2.0
 40
2.0
 10
1047.375064501118
 20
577.0330323564258
 30
0.0
 10
1032.721275363898
 20
569.3010814817789
 30
0.0
 10
1027.110016768927
 20
551.1538536383396
 30
0.0
 10
1034.841967643573
 20
536.5000645011186
 30
0.0
 10
1037.662023414812
 20
531.1554233753668
 30
0.0
 10
1042.030423375367
 20
526.7870234148122
 30
0.0
 10
1047.375064501118
 20
523.9669676435733
 30
0.0
  0
LINE
  5
120
330
70
100
AcDbEntity
  8
SHAPE2DVIEW006
 62
    18
420
        0
370
    25
100
AcDbLine
 10
1047.375
 20
523.9670000000005
 30
0.0
 11
1018.5075
 21
473.9670000000005
 31
0.0
  0
LINE
  5
121
330
70
100
AcDbEntity
  8
SHAPE2DVIEW006
 62
    18
420
        0
370
    25
100
AcDbLine
 10
1018.5075
 20
473.9670000000005
 30
0.0
 11
1012.507499999999
 21
473.9670000000005
 31
0.0
  0
LINE
  5
122
330
70
100
AcDbEntity
  8
SHAPE2DVIEW006
 62
    18
420
        0
370
    25
100
AcDbLine
 10
1012.507499999999
 20
473.9670000000005
 30
0.0
 11
1012.507499999999
 21
469.4943999999996
 31
0.0
  0
LINE
  5
123
330
70
100
AcDbEntity
  8
SHAPE2DVIEW006
 62
    18
420
        0
370
    25
100
AcDbLine
 10
1012.507499999999
 20
469.4943999999996
 30
0.0
 11
1018.5075
 21
469.4943999999996
 31
0.0
  0
LINE
  5
124
330
70
100
AcDbEntity
  8
SHAPE2DVIEW006
 62
    18
420
        0
370
    25
100
AcDbLine
 10
1018.5075
 20
469.4943999999996
 30
0.0
 11
1018.5075
 21
465.4943999999995
 31
0.0
  0
LINE
  5
125
330
70
100
AcDbEntity
  8
SHAPE2DVIEW006
 62
    18
420
        0
370
    25
100
AcDbLine
 10
1018.5075
 20
465.4943999999995
 30
0.0
 11
1012.507499999999
 21
465.4943999999995
 31
0.0
  0
LINE
  5
126
330
70
100
AcDbEntity
  8
SHAPE2DVIEW006
 62
    18
420
        0
370
    25
100
AcDbLine
 10
1012.507499999999
 20
465.4943999999995
 30
0.0
 11
1012.507499999999
 21
461.0218000000004
 31
0.0
  0
LINE
  5
127
330
70
100
AcDbEntity
  8
SHAPE2DVIEW006
 62
    18
420
        0
370
    25
100
AcDbLine
 10
1012.507499999999
 20
461.0218000000004
 30
0.0
 11
1025.8408
 21
461.0218000000004
 31
0.0
  0
LINE
  5
128
330
70
100
AcDbEntity
  8
SHAPE2DVIEW006
 62
    18
420
        0
370
    25
100
AcDbLine
 10
1025.8408
 20
461.0218000000004
 30
0.0
 11
1054.708
 21
511.0220000000008
 31
0.0
  0
LINE
  5
129
330
70
100
AcDbEntity
  8
SHAPE2DVIEW006
 62
    18
420
        0
370
    25
100
AcDbLine
 10
1068.041999999999
 20
511.0220000000008
 30
0.0
 11
1054.708
 21
511.0220000000008
 31
0.0
  0
LINE
  5
12A
330
70
100
AcDbEntity
  8
SHAPE2DVIEW006
 62
    18
420
        0
370
    25
100
AcDbLine
 10
1096.908999999999
 20
461.0218000000004
 30
0.0
 11
1068.041999999999
 21
511.0220000000008
 31
0.0
  0
LINE
  5
12B
330
70
100
AcDbEntity
  8
SHAPE2DVIEW006
 62
    18
420
        0
370
    25
100
AcDbLine
 10
1110.243
 20
461.0218000000004
 30
0.0
 11
1096.908999999999
 21
461.0218000000004
 31
0.0
  0
LINE
  5
12C
330
70
100
AcDbEntity
  8
SHAPE2DVIEW006
 62
    18
420
        0
370
    25
100
AcDbLine
 10
1110.243
 20
465.4943999999995
 30
0.0
 11
1110.243
 21
461.0218000000004
 31
0.0
  0
LINE
  5
12D
330
70
100
AcDbEntity
  8
SHAPE2DVIEW006
 62
    18
420
        0
370
    25
100
AcDbLine
 10
1110.243
 20
465.4943999999995
 30
0.0
 11
1104.243
 21
465.4943999999995
 31
0.0
  0
LINE
  5
12E
330
70
100
AcDbEntity
  8
SHAPE2DVIEW006
 62
    18
420
        0
370
    25
100
AcDbLine
 10
1104.243
 20
465.4943999999995
 30
0.0
 11
1104.243
 21
469.4943999999996
 31
0.0
  0
LINE
  5
12F
330
70
100
AcDbEntity
  8
SHAPE2DVIEW006
 62
    18
420
        0
370
    25
100
AcDbLine
 10
1104.243
 20
469.4943999999996
 30
0.0
 11
1110.243
 21
469.4943999999996
 31
0.0
  0
LINE
  5
130
330
70
100
AcDbEntity
  8
SHAPE2DVIEW006
 62
    18
420
        0
370
    25
100
AcDbLine
 10
1110.243
 20
473.9670000000005
 30
0.0
 11
1110.243
 21
469.4943999999996
 31
0.0
  0
LINE
  5
131
330
70
100
AcDbEntity
  8
SHAPE2DVIEW006
 62
    18
420
        0
370
    25
100
AcDbLine
 10
1104.243
 20
473.9670000000005
 30
0.0
 11
1110.243
 21
473.9670000000005
 31
0.0
  0
LINE
  5
132
330
70
100
AcDbEntity
  8
SHAPE2DVIEW006
 62
    18
420
        0
370
    25
100
AcDbLine
 10
1075.375
 20
523.9670000000005
 30
0.0
 11
1104.243
 21
473.9670000000005
 31
0.0
  0
SPLINE
  5
133
330
70
100
AcDbEntity
  8
SHAPE2DVIEW006
 62
    18
420
        0
370
    25
100
AcDbSpline
210
0.0
220
0.0
230
1.0
 70
     8
 71
     3
 72
    11
 73
     7
 74
     0
 42
0.0000000001
 43
0.0000000001
 40
0.0
 40
0.0
 40
0.0
 40
0.0
 40
1.0
 40
1.0
 40
1.0
 40
2.0
 40
2.0
 40
2.0
 40
2.0
 10
1075.374981807738
 20
523.9669920781107
 30
0.0
 10
1090.028757450136
 20
531.6989685284333
 30
0.0
 10
1095.63998437221
 20
549.846206165339
 30
0.0
 10
1087.908007921889
 20
564.4999818077376
 30
0.0
 10
1085.087959484004
 20
569.8445864343775
 30
0.0
 10
1080.719586434377
 20
574.2129594840035
 30
0.0
 10
1075.374981807738
 20
577.0330079218884
 30
0.0
  0
LINE
  5
134
330
70
100
AcDbEntity
  8
SHAPE2DVIEW006
 62
    18
420
        0
370
    25
100
AcDbLine
 10
1075.375
 20
562.0330000000003
 30
0.0
 11
1075.375
 21
577.0330000000003
 31
0.0
  0
LINE
  5
135
330
70
100
AcDbEntity
  8
SHAPE2DVIEW006
 62
    18
420
        0
370
    25
100
AcDbLine
 10
1071.375
 20
562.0330000000003
 30
0.0
 11
1075.375
 21
562.0330000000003
 31
0.0
  0
LINE
  5
136
330
70
100
AcDbEntity
  8
SHAPE2DVIEW006
 62
    18
420
        0
370
    25
100
AcDbLine
 10
1071.375
 20
577.0330000000003
 30
0.0
 11
1071.375
 21
562.0330000000003
 31
0.0
  0
LINE
  5
137
330
70
100
AcDbEntity
  8
SHAPE2DVIEW006
 62
    18
420
        0
370
    25
100
AcDbLine
 10
1063.375
 20
577.0330000000003
 30
0.0
 11
1071.375
 21
577.0330000000003
 31
0.0
  0
LINE
  5
138
330
70
100
AcDbEntity
  8
SHAPE2DVIEW006
 62
    18
420
        0
370
    25
100
AcDbLine
 10
1063.375
 20
577.0330000000003
 30
0.0
 11
1063.375
 21
562.0330000000003
 31
0.0
  0
LINE
  5
139
330
70
100
AcDbEntity
  8
SHAPE2DVIEW006
 62
    18
420
        0
370
    25
100
AcDbLine
 10
1063.375
 20
562.0330000000003
 30
0.0
 11
1059.375
 21
562.0330000000003
 31
0.0
  0
LINE
  5
13A
330
70
100
AcDbEntity
  8
SHAPE2DVIEW006
 62
    18
420
        0
370
    25
100
AcDbLine
 10
1059.375
 20
562.0330000000003
 30
0.0
 11
1059.375
 21
577.0330000000003
 31
0.0
  0
LINE
  5
13B
330
70
100
AcDbEntity
  8
SHAPE2DVIEW006
 62
    18
420
        0
370
    25
100
AcDbLine
 10
1051.375
 20
577.0330000000003
 30
0.0
 11
1059.375
 21
577.0330000000003
 31
0.0
  0
LINE
  5
13C
330
70
100
AcDbEntity
  8
SHAPE2DVIEW006
 62
    18
420
        0
370
    25
100
AcDbLine
 10
1051.375
 20
562.0330000000003
 30
0.0
 11
1051.375
 21
577.0330000000003
 31
0.0
  0
LINE
  5
13D
330
70
100
AcDbEntity
  8
SHAPE2DVIEW006
 62
    18
420
        0
370
    25
100
AcDbLine
 10
1047.375
 20
562.0330000000003
 30
0.0
 11
1051.375
 21
562.0330000000003
 31
0.0
  0
LINE
  5
13F
330
70
100
AcDbEntity
  8
SHAPE2DVIEW007
 62
    18
420
        0
370
    25
100
AcDbLine
 10
1070.375
 20
668.0330000000004
 30
0.0
 11
1070.375
 21
653.0330000000003
 31
0.0
  0
LINE
  5
140
330
70
100
AcDbEntity
  8
SHAPE2DVIEW007
 62
    18
420
        0
370
    25
100
AcDbLine
 10
1070.375
 20
653.0330000000003
 30
0.0
 11
1074.375
 21
653.0330000000003
 31
0.0
  0
LINE
  5
141
330
70
100
AcDbEntity
  8
SHAPE2DVIEW007
 62
    18
420
        0
370
    25
100
AcDbLine
 10
1074.375
 20
653.0330000000003
 30
0.0
 11
1074.375
 21
668.0330000000004
 31
0.0
  0
LINE
  5
142
330
70
100
AcDbEntity
  8
SHAPE2DVIEW007
 62
    18
420
        0
370
    25
100
AcDbLine
 10
1074.375
 20
668.0330000000004
 30
0.0
 11
1082.375
 21
668.0330000000004
 31
0.0
  0
LINE
  5
143
330
70
100
AcDbEntity
  8
SHAPE2DVIEW007
 62
    18
420
        0
370
    25
100
AcDbLine
 10
1082.375
 20
668.0330000000004
 30
0.0
 11
1082.375
 21
653.0330000000003
 31
0.0
  0
LINE
  5
144
330
70
100
AcDbEntity
  8
SHAPE2DVIEW007
 62
    18
420
        0
370
    25
100
AcDbLine
 10
1082.375
 20
653.0330000000003
 30
0.0
 11
1086.375
 21
653.0330000000003
 31
0.0
  0
LINE
  5
145
330
70
100
AcDbEntity
  8
SHAPE2DVIEW007
 62
    18
420
        0
370
    25
100
AcDbLine
 10
1086.375
 20
653.0330000000003
 30
0.0
 11
1086.375
 21
668.0330000000004
 31
0.0
  0
LINE
  5
146
330
70
100
AcDbEntity
  8
SHAPE2DVIEW007
 62
    18
420
        0
370
    25
100
AcDbLine
 10
1086.375
 20
668.0330000000004
 30
0.0
 11
1094.375
 21
668.0330000000004
 31
0.0
  0
LINE
  5
147
330
70
100
AcDbEntity
  8
SHAPE2DVIEW007
 62
    18
420
        0
370
    25
100
AcDbLine
 10
1094.375
 20
653.0330000000003
 30
0.0
 11
1094.375
 21
668.0330000000004
 31
0.0
  0
LINE
  5
148
330
70
100
AcDbEntity
  8
SHAPE2DVIEW007
 62
    18
420
        0
370
    25
100
AcDbLine
 10
1098.375
 20
653.0330000000003
 30
0.0
 11
1094.375
 21
653.0330000000003
 31
0.0
  0
LINE
  5
149
330
70
100
AcDbEntity
  8
SHAPE2DVIEW007
 62
    18
420
        0
370
    25
100
AcDbLine
 10
1098.375
 20
668.0330000000004
 30
0.0
 11
1098.375
 21
653.0330000000003
 31
0.0
  0
SPLINE
  5
14A
330
70
100
AcDbEntity
  8
SHAPE2DVIEW007
 62
    18
420
        0
370
    25
100
AcDbSpline
210
0.0
220
0.0
230
1.0
 70
     8
 71
     3
 72
    17
 73
    13
 74
     0
 42
0.0000000001
 43
0.0000000001
 40
0.0
 40
0.0
 40
0.0
 40
0.0
 40
1.0
 40
1.0
 40
1.0
 40
2.0
 40
2.0
 40
2.0
 40
3.0
 40
3.0
 40
3.0
 40
4.0
 40
4.0
 40
4.0
 40
4.0
 10
1070.375064501118
 20
668.0330323564257
 30
0.0
 10
1055.721275363898
 20
660.3010814817789
 30
0.0
 10
1050.110016768927
 20
642.1538536383395
 30
0.0
 10
1057.841967643573
 20
627.5000645011187
 30
0.0
 10
1065.573918518221
 20
612.8462753638968
 30
0.0
 10
1083.72114636166
 20
607.2350167689265
 30
0.0
 10
1098.374935498881
 20
614.9669676435742
 30
0.0
 10
1113.028724636102
 20
622.698918518221
 30
0.0
 10
1118.639983231072
 20
640.8461463616604
 30
0.0
 10
1110.908032356427
 20
655.4999354988813
 30
0.0
 10
1108.087984915913
 20
660.8445608360288
 30
0.0
 10
1103.719602222965
 20
665.2129511532502
 30
0.0
 10
1098.374981807737
 20
668.0330079218883
 30
0.0
  0
LINE
  5
14C
330
70
100
AcDbEntity
  8
SHAPE2DVIEW008
 62
    18
420
        0
370
    25
100
AcDbLine
 10
979.3750000000001
 20
496.0
 30
0.0
 11
979.3750000000001
 21
512.5
 31
0.0
  0
SPLINE
  5
14D
330
70
100
AcDbEntity
  8
SHAPE2DVIEW008
 62
    18
420
        0
370
    25
100
AcDbSpline
210
0.0
220
0.0
230
1.0
 70
     8
 71
     3
 72
     8
 73
     4
 74
     0
 42
0.0000000001
 43
0.0000000001
 40
0.0
 40
0.0
 40
0.0
 40
0.0
 40
1.0
 40
1.0
 40
1.0
 40
1.0
 10
983.375
 20
516.5
 30
0.0
 10
981.1658610006761
 20
516.5
 30
0.0
 10
979.3750000000001
 20
514.7091389993238
 30
0.0
 10
979.3750000000001
 20
512.5
 30
0.0
  0
LINE
  5
14E
330
70
100
AcDbEntity
  8
SHAPE2DVIEW008
 62
    18
420
        0
370
    25
100
AcDbLine
 10
983.375
 20
516.5
 30
0.0
 11
1005.375
 21
516.5
 31
0.0
  0
SPLINE
  5
14F
330
70
100
AcDbEntity
  8
SHAPE2DVIEW008
 62
    18
420
        0
370
    25
100
AcDbSpline
210
0.0
220
0.0
230
1.0
 70
     8
 71
     3
 72
     8
 73
     4
 74
     0
 42
0.0000000001
 43
0.0000000001
 40
0.0
 40
0.0
 40
0.0
 40
0.0
 40
1.0
 40
1.0
 40
1.0
 40
1.0
 10
1009.375
 20
512.5
 30
0.0
 10
1009.375
 20
514.7091389993238
 30
0.0
 10
1007.584138999324
 20
516.5
 30
0.0
 10
1005.375
 20
516.5
 30
0.0
  0
LINE
  5
150
330
70
100
AcDbEntity
  8
SHAPE2DVIEW008
 62
    18
420
        0
370
    25
100
AcDbLine
 10
1009.375
 20
512.5
 30
0.0
 11
1015.375
 21
512.5
 31
0.0
  0
LINE
  5
151
330
70
100
AcDbEntity
  8
SHAPE2DVIEW008
 62
    18
420
        0
370
    25
100
AcDbLine
 10
1015.375
 20
512.5
 30
0.0
 11
1015.375
 21
507.0
 31
0.0
  0
LINE
  5
152
330
70
100
AcDbEntity
  8
SHAPE2DVIEW008
 62
    18
420
        0
370
    25
100
AcDbLine
 10
1015.375
 20
507.0
 30
0.0
 11
1009.375
 21
507.0
 31
0.0
  0
LINE
  5
153
330
70
100
AcDbEntity
  8
SHAPE2DVIEW008
 62
    18
420
        0
370
    25
100
AcDbLine
 10
1009.375
 20
507.0
 30
0.0
 11
1009.375
 21
503.0
 31
0.0
  0
LINE
  5
154
330
70
100
AcDbEntity
  8
SHAPE2DVIEW008
 62
    18
420
        0
370
    25
100
AcDbLine
 10
1009.375
 20
503.0
 30
0.0
 11
1015.375
 21
503.0
 31
0.0
  0
LINE
  5
155
330
70
100
AcDbEntity
  8
SHAPE2DVIEW008
 62
    18
420
        0
370
    25
100
AcDbLine
 10
1015.375
 20
503.0
 30
0.0
 11
1015.375
 21
497.5
 31
0.0
  0
LINE
  5
156
330
70
100
AcDbEntity
  8
SHAPE2DVIEW008
 62
    18
420
        0
370
    25
100
AcDbLine
 10
1015.375
 20
497.5
 30
0.0
 11
1009.375
 21
497.5
 31
0.0
  0
LINE
  5
157
330
70
100
AcDbEntity
  8
SHAPE2DVIEW008
 62
    18
420
        0
370
    25
100
AcDbLine
 10
1009.375
 20
497.5
 30
0.0
 11
1009.375
 21
488.4999999999999
 31
0.0
  0
SPLINE
  5
158
330
70
100
AcDbEntity
  8
SHAPE2DVIEW008
 62
    18
420
        0
370
    25
100
AcDbSpline
210
0.0
220
0.0
230
1.0
 70
     8
 71
     3
 72
     8
 73
     4
 74
     0
 42
0.0000000001
 43
0.0000000001
 40
0.0
 40
0.0
 40
0.0
 40
0.0
 40
1.0
 40
1.0
 40
1.0
 40
1.0
 10
1005.375
 20
484.4999999999999
 30
0.0
 10
1007.584138999324
 20
484.4999999999999
 30
0.0
 10
1009.375
 20
486.2908610006761
 30
0.0
 10
1009.375
 20
488.4999999999999
 30
0.0
  0
LINE
  5
159
330
70
100
AcDbEntity
  8
SHAPE2DVIEW008
 62
    18
420
        0
370
    25
100
AcDbLine
 10
1005.375
 20
484.4999999999999
 30
0.0
 11
1003.375
 21
484.4999999999999
 31
0.0
  0
LINE
  5
15A
330
70
100
AcDbEntity
  8
SHAPE2DVIEW008
 62
    18
420
        0
370
    25
100
AcDbLine
 10
1003.375
 20
499.5
 30
0.0
 11
1003.375
 21
484.4999999999999
 31
0.0
  0
LINE
  5
15B
330
70
100
AcDbEntity
  8
SHAPE2DVIEW008
 62
    18
420
        0
370
    25
100
AcDbLine
 10
999.375
 20
499.5
 30
0.0
 11
1003.375
 21
499.5
 31
0.0
  0
LINE
  5
15C
330
70
100
AcDbEntity
  8
SHAPE2DVIEW008
 62
    18
420
        0
370
    25
100
AcDbLine
 10
999.375
 20
484.4999999999999
 30
0.0
 11
999.375
 21
499.5
 31
0.0
  0
LINE
  5
15D
330
70
100
AcDbEntity
  8
SHAPE2DVIEW008
 62
    18
420
        0
370
    25
100
AcDbLine
 10
999.375
 20
484.4999999999999
 30
0.0
 11
993.3749999999999
 21
484.4999999999999
 31
0.0
  0
LINE
  5
15E
330
70
100
AcDbEntity
  8
SHAPE2DVIEW008
 62
    18
420
        0
370
    25
100
AcDbLine
 10
993.3749999999999
 20
484.4999999999999
 30
0.0
 11
993.3749999999999
 21
499.5
 31
0.0
  0
LINE
  5
15F
330
70
100
AcDbEntity
  8
SHAPE2DVIEW008
 62
    18
420
        0
370
    25
100
AcDbLine
 10
993.3749999999999
 20
499.5
 30
0.0
 11
989.375
 21
499.5
 31
0.0
  0
LINE
  5
160
330
70
100
AcDbEntity
  8
SHAPE2DVIEW008
 62
    18
420
        0
370
    25
100
AcDbLine
 10
989.375
 20
499.5
 30
0.0
 11
989.375
 21
492.0
 31
0.0
  0
LINE
  5
161
330
70
100
AcDbEntity
  8
SHAPE2DVIEW008
 62
    18
420
        0
370
    25
100
AcDbLine
 10
989.375
 20
492.0
 30
0.0
 11
983.375
 21
492.0
 31
0.0
  0
SPLINE
  5
162
330
70
100
AcDbEntity
  8
SHAPE2DVIEW008
 62
    18
420
        0
370
    25
100
AcDbSpline
210
0.0
220
0.0
230
1.0
 70
     8
 71
     3
 72
     8
 73
     4
 74
     0
 42
0.0000000001
 43
0.0000000001
 40
0.0
 40
0.0
 40
0.0
 40
0.0
 40
1.0
 40
1.0
 40
1.0
 40
1.0
 10
979.3750000000001
 20
496.0
 30
0.0
 10
979.3750000000001
 20
493.7908610006761
 30
0.0
 10
981.1658610006761
 20
492.0
 30
0.0
 10
983.375
 20
492.0
 30
0.0
  0
LINE
  5
164
330
70
100
AcDbEntity
  8
SHAPE2DVIEW009
 62
    18
420
        0
370
    25
100
AcDbLine
 10
1113.375
 20
544.0330000000003
 30
0.0
 11
1113.375
 21
529.0329999999994
 31
0.0
  0
LINE
  5
165
330
70
100
AcDbEntity
  8
SHAPE2DVIEW009
 62
    18
420
        0
370
    25
100
AcDbLine
 10
1113.375
 20
529.0329999999994
 30
0.0
 11
1117.375
 21
529.0329999999994
 31
0.0
  0
LINE
  5
166
330
70
100
AcDbEntity
  8
SHAPE2DVIEW009
 62
    18
420
        0
370
    25
100
AcDbLine
 10
1117.375
 20
529.0329999999994
 30
0.0
 11
1117.375
 21
544.0330000000003
 31
0.0
  0
LINE
  5
167
330
70
100
AcDbEntity
  8
SHAPE2DVIEW009
 62
    18
420
        0
370
    25
100
AcDbLine
 10
1117.375
 20
544.0330000000003
 30
0.0
 11
1137.375
 21
544.0330000000003
 31
0.0
  0
LINE
  5
168
330
70
100
AcDbEntity
  8
SHAPE2DVIEW009
 62
    18
420
        0
370
    25
100
AcDbLine
 10
1137.375
 20
529.0329999999994
 30
0.0
 11
1137.375
 21
544.0330000000003
 31
0.0
  0
LINE
  5
169
330
70
100
AcDbEntity
  8
SHAPE2DVIEW009
 62
    18
420
        0
370
    25
100
AcDbLine
 10
1141.375
 20
529.0329999999994
 30
0.0
 11
1137.375
 21
529.0329999999994
 31
0.0
  0
LINE
  5
16A
330
70
100
AcDbEntity
  8
SHAPE2DVIEW009
 62
    18
420
        0
370
    25
100
AcDbLine
 10
1141.375
 20
544.0330000000003
 30
0.0
 11
1141.375
 21
529.0329999999994
 31
0.0
  0
SPLINE
  5
16B
330
70
100
AcDbEntity
  8
SHAPE2DVIEW009
 62
    18
420
        0
370
    25
100
AcDbSpline
210
0.0
220
0.0
230
1.0
 70
     8
 71
     3
 72
     8
 73
     4
 74
     0
 42
0.0000000001
 43
0.0000000001
 40
0.0
 40
0.0
 40
0.0
 40
0.0
 40
1.0
 40
1.0
 40
1.0
 40
1.0
 10
1157.375
 20
517.4999999999999
 30
0.0
 10
1157.375
 20
528.6271785040844
 30
0.0
 10
1151.216232320976
 20
538.8403313676008
 30
0.0
 10
1141.374981807737
 20
544.0330079218884
 30
0.0
  0
SPLINE
  5
16C
330
70
100
AcDbEntity
  8
SHAPE2DVIEW009
 62
    18
420
        0
370
    25
100
AcDbSpline
210
0.0
220
0.0
230
1.0
 70
     8
 71
     3
 72
     8
 73
     4
 74
     0
 42
0.0000000001
 43
0.0000000001
 40
0.0
 40
0.0
 40
0.0
 40
0.0
 40
1.0
 40
1.0
 40
1.0
 40
1.0
 10
1097.375
 20
517.500475772933
 30
0.0
 10
1115.939064605511
 20
506.7825080756883
 30
0.0
 10
1138.810935394489
 20
506.7825080756883
 30
0.0
 10
1157.375
 20
517.500475772933
 30
0.0
  0
SPLINE
  5
16D
330
70
100
AcDbEntity
  8
SHAPE2DVIEW009
 62
    18
420
        0
370
    25
100
AcDbSpline
210
0.0
220
0.0
230
1.0
 70
     8
 71
     3
 72
     8
 73
     4
 74
     0
 42
0.0000000001
 43
0.0000000001
 40
0.0
 40
0.0
 40
0.0
 40
0.0
 40
1.0
 40
1.0
 40
1.0
 40
1.0
 10
1113.375064501118
 20
544.0330323564258
 30
0.0
 10
1103.533788294151
 20
538.8403642032572
 30
0.0
 10
1097.375
 20
528.6271973079819
 30
0.0
 10
1097.375
 20
517.4999999999999
 30
0.0
  0
SPLINE
  5
16F
330
70
100
AcDbEntity
  8
SHAPE2DVIEW010
 62
    18
420
        0
370
    25
100
AcDbSpline
210
0.0
220
0.0
230
1.0
 70
     8
 71
     3
 72
    11
 73
     7
 74
     0
 42
0.0000000001
 43
0.0000000001
 40
0.0
 40
0.0
 40
0.0
 40
0.0
 40
1.0
 40
1.0
 40
1.0
 40
2.0
 40
2.0
 40
2.0
 40
2.0
 10
827.875
 20
436.5
 30
0.0
 10
827.875
 20
447.2695526217012
 30
0.0
 10
819.1445526217004
 20
456.0
 30
0.0
 10
808.375
 20
456.0
 30
0.0
 10
797.6054473782997
 20
456.0
 30
0.0
 10
788.8749999999999
 20
447.2695526217012
 30
0.0
 10
788.8749999999999
 20
436.5
 30
0.0
  0
LINE
  5
170
330
70
100
AcDbEntity
  8
SHAPE2DVIEW010
 62
    18
420
        0
370
    25
100
AcDbLine
 10
788.8749999999999
 20
436.5
 30
0.0
 11
800.875
 21
436.5
 31
0.0
  0
LINE
  5
171
330
70
100
AcDbEntity
  8
SHAPE2DVIEW010
 62
    18
420
        0
370
    25
100
AcDbLine
 10
800.875
 20
436.5
 30
0.0
 11
800.875
 21
424.5
 31
0.0
  0
LINE
  5
172
330
70
100
AcDbEntity
  8
SHAPE2DVIEW010
 62
    18
420
        0
370
    25
100
AcDbLine
 10
800.875
 20
424.5
 30
0.0
 11
806.375
 21
424.5
 31
0.0
  0
LINE
  5
173
330
70
100
AcDbEntity
  8
SHAPE2DVIEW010
 62
    18
420
        0
370
    25
100
AcDbLine
 10
806.375
 20
424.5
 30
0.0
 11
806.375
 21
432.5
 31
0.0
  0
LINE
  5
174
330
70
100
AcDbEntity
  8
SHAPE2DVIEW010
 62
    18
420
        0
370
    25
100
AcDbLine
 10
806.375
 20
432.5
 30
0.0
 11
810.3749999999999
 21
432.5
 31
0.0
  0
LINE
  5
175
330
70
100
AcDbEntity
  8
SHAPE2DVIEW010
 62
    18
420
        0
370
    25
100
AcDbLine
 10
810.3749999999999
 20
432.5
 30
0.0
 11
810.3749999999999
 21
424.5
 31
0.0
  0
LINE
  5
176
330
70
100
AcDbEntity
  8
SHAPE2DVIEW010
 62
    18
420
        0
370
    25
100
AcDbLine
 10
810.3749999999999
 20
424.5
 30
0.0
 11
815.8749999999999
 21
424.5
 31
0.0
  0
LINE
  5
177
330
70
100
AcDbEntity
  8
SHAPE2DVIEW010
 62
    18
420
        0
370
    25
100
AcDbLine
 10
815.8749999999999
 20
424.5
 30
0.0
 11
815.8749999999999
 21
436.5
 31
0.0
  0
LINE
  5
178
330
70
100
AcDbEntity
  8
SHAPE2DVIEW010
 62
    18
420
        0
370
    25
100
AcDbLine
 10
815.8749999999999
 20
436.5
 30
0.0
 11
827.875
 21
436.5
 31
0.0
  0
SPLINE
  5
17A
330
70
100
AcDbEntity
  8
SHAPE2DVIEW011
 62
    18
420
        0
370
    25
100
AcDbSpline
210
0.0
220
0.0
230
1.0
 70
     8
 71
     3
 72
    11
 73
     7
 74
     0
 42
0.0000000001
 43
0.0000000001
 40
0.0
 40
0.0
 40
0.0
 40
0.0
 40
1.0
 40
1.0
 40
1.0
 40
2.0
 40
2.0
 40
2.0
 40
2.0
 10
1041.875
 20
463.4999999999999
 30
0.0
 10
1041.875
 20
452.7304473782987
 30
0.0
 10
1050.605447378299
 20
444.0
 30
0.0
 10
1061.375
 20
444.0
 30
0.0
 10
1072.144552621701
 20
444.0
 30
0.0
 10
1080.875
 20
452.7304473782987
 30
0.0
 10
1080.875
 20
463.4999999999999
 30
0.0
  0
LINE
  5
17B
330
70
100
AcDbEntity
  8
SHAPE2DVIEW011
 62
    18
420
        0
370
    25
100
AcDbLine
 10
1080.875
 20
463.4999999999999
 30
0.0
 11
1068.875
 21
463.4999999999999
 31
0.0
  0
LINE
  5
17C
330
70
100
AcDbEntity
  8
SHAPE2DVIEW011
 62
    18
420
        0
370
    25
100
AcDbLine
 10
1068.875
 20
463.4999999999999
 30
0.0
 11
1068.875
 21
475.4999999999999
 31
0.0
  0
LINE
  5
17D
330
70
100
AcDbEntity
  8
SHAPE2DVIEW011
 62
    18
420
        0
370
    25
100
AcDbLine
 10
1068.875
 20
475.4999999999999
 30
0.0
 11
1063.375
 21
475.4999999999999
 31
0.0
  0
LINE
  5
17E
330
70
100
AcDbEntity
  8
SHAPE2DVIEW011
 62
    18
420
        0
370
    25
100
AcDbLine
 10
1063.375
 20
475.4999999999999
 30
0.0
 11
1063.375
 21
467.4999999999999
 31
0.0
  0
LINE
  5
17F
330
70
100
AcDbEntity
  8
SHAPE2DVIEW011
 62
    18
420
        0
370
    25
100
AcDbLine
 10
1063.375
 20
467.4999999999999
 30
0.0
 11
1059.375
 21
467.4999999999999
 31
0.0
  0
LINE
  5
180
330
70
100
AcDbEntity
  8
SHAPE2DVIEW011
 62
    18
420
        0
370
    25
100
AcDbLine
 10
1059.375
 20
467.4999999999999
 30
0.0
 11
1059.375
 21
475.4999999999999
 31
0.0
  0
LINE
  5
181
330
70
100
AcDbEntity
  8
SHAPE2DVIEW011
 62
    18
420
        0
370
    25
100
AcDbLine
 10
1059.375
 20
475.4999999999999
 30
0.0
 11
1053.875
 21
475.4999999999999
 31
0.0
  0
LINE
  5
182
330
70
100
AcDbEntity
  8
SHAPE2DVIEW011
 62
    18
420
        0
370
    25
100
AcDbLine
 10
1053.875
 20
475.4999999999999
 30
0.0
 11
1053.875
 21
463.4999999999999
 31
0.0
  0
LINE
  5
183
330
70
100
AcDbEntity
  8
SHAPE2DVIEW011
 62
    18
420
        0
370
    25
100
AcDbLine
 10
1053.875
 20
463.4999999999999
 30
0.0
 11
1041.875
 21
463.4999999999999
 31
0.0
  0
SPLINE
  5
185
330
70
100
AcDbEntity
  8
SHAPE2DVIEW012
 62
    18
420
        0
370
    25
100
AcDbSpline
210
0.0
220
0.0
230
1.0
 70
     8
 71
     3
 72
    11
 73
     7
 74
     0
 42
0.0000000001
 43
0.0000000001
 40
0.0
 40
0.0
 40
0.0
 40
0.0
 40
1.0
 40
1.0
 40
1.0
 40
2.0
 40
2.0
 40
2.0
 40
2.0
 10
1030.875
 20
430.4999999999999
 30
0.0
 10
1030.875
 20
441.2695526217012
 30
0.0
 10
1022.144552621701
 20
450.0
 30
0.0
 10
1011.375
 20
450.0
 30
0.0
 10
1000.605447378299
 20
450.0
 30
0.0
 10
991.8750000000001
 20
441.2695526217012
 30
0.0
 10
991.8750000000001
 20
430.4999999999999
 30
0.0
  0
LINE
  5
186
330
70
100
AcDbEntity
  8
SHAPE2DVIEW012
 62
    18
420
        0
370
    25
100
AcDbLine
 10
991.8750000000001
 20
430.4999999999999
 30
0.0
 11
1003.875
 21
430.4999999999999
 31
0.0
  0
LINE
  5
187
330
70
100
AcDbEntity
  8
SHAPE2DVIEW012
 62
    18
420
        0
370
    25
100
AcDbLine
 10
1003.875
 20
430.4999999999999
 30
0.0
 11
1003.875
 21
418.5
 31
0.0
  0
LINE
  5
188
330
70
100
AcDbEntity
  8
SHAPE2DVIEW012
 62
    18
420
        0
370
    25
100
AcDbLine
 10
1003.875
 20
418.5
 30
0.0
 11
1009.375
 21
418.5
 31
0.0
  0
LINE
  5
189
330
70
100
AcDbEntity
  8
SHAPE2DVIEW012
 62
    18
420
        0
370
    25
100
AcDbLine
 10
1009.375
 20
418.5
 30
0.0
 11
1009.375
 21
426.4999999999999
 31
0.0
  0
LINE
  5
18A
330
70
100
AcDbEntity
  8
SHAPE2DVIEW012
 62
    18
420
        0
370
    25
100
AcDbLine
 10
1009.375
 20
426.4999999999999
 30
0.0
 11
1013.375
 21
426.4999999999999
 31
0.0
  0
LINE
  5
18B
330
70
100
AcDbEntity
  8
SHAPE2DVIEW012
 62
    18
420
        0
370
    25
100
AcDbLine
 10
1013.375
 20
426.4999999999999
 30
0.0
 11
1013.375
 21
418.5
 31
0.0
  0
LINE
  5
18C
330
70
100
AcDbEntity
  8
SHAPE2DVIEW012
 62
    18
420
        0
370
    25
100
AcDbLine
 10
1013.375
 20
418.5
 30
0.0
 11
1018.875
 21
418.5
 31
0.0
  0
LINE
  5
18D
330
70
100
AcDbEntity
  8
SHAPE2DVIEW012
 62
    18
420
        0
370
    25
100
AcDbLine
 10
1018.875
 20
418.5
 30
0.0
 11
1018.875
 21
430.4999999999999
 31
0.0
  0
LINE
  5
18E
330
70
100
AcDbEntity
  8
SHAPE2DVIEW012
 62
    18
420
        0
370
    25
100
AcDbLine
 10
1018.875
 20
430.4999999999999
 30
0.0
 11
1030.875
 21
430.4999999999999
 31
0.0
  0
CIRCLE
  5
190
330
70
100
AcDbEntity
  8
SHAPE2DVIEW013
 62
    18
420
        0
370
    25
100
AcDbCircle
 10
1153.375
 20
449.5
 30
0.0
 40
12.75
  0
CIRCLE
  5
191
330
70
100
AcDbEntity
  8
SHAPE2DVIEW013
 62
    18
420
        0
370
    25
100
AcDbCircle
 10
1153.375
 20
449.5
 30
0.0
 40
7.5
  0
CIRCLE
  5
193
330
70
100
AcDbEntity
  8
SHAPE2DVIEW014
 62
    18
420
        0
370
    25
100
AcDbCircle
 10
1129.375
 20
562.5
 30
0.0
 40
12.75
  0
CIRCLE
  5
194
330
70
100
AcDbEntity
  8
SHAPE2DVIEW014
 62
    18
420
        0
370
    25
100
AcDbCircle
 10
1129.375
 20
562.5
 30
0.0
 40
7.5
  0
LINE
  5
196
330
70
100
AcDbEntity
  8
SHAPE2DVIEW015
 62
    18
420
        0
370
    25
100
AcDbLine
 10
762.375
 20
649.0
 30
0.0
 11
762.375
 21
631.5
 31
0.0
  0
LINE
  5
197
330
70
100
AcDbEntity
  8
SHAPE2DVIEW015
 62
    18
420
        0
370
    25
100
AcDbLine
 10
762.375
 20
631.5
 30
0.0
 11
758.375
 21
631.5
 31
0.0
  0
LINE
  5
198
330
70
100
AcDbEntity
  8
SHAPE2DVIEW015
 62
    18
420
        0
370
    25
100
AcDbLine
 10
758.375
 20
631.5
 30
0.0
 11
758.375
 21
649.0
 31
0.0
  0
SPLINE
  5
199
330
70
100
AcDbEntity
  8
SHAPE2DVIEW015
 62
    18
420
        0
370
    25
100
AcDbSpline
210
0.0
220
0.0
230
1.0
 70
     8
 71
     3
 72
     8
 73
     4
 74
     0
 42
0.0000000001
 43
0.0000000001
 40
0.0
 40
0.0
 40
0.0
 40
0.0
 40
1.0
 40
1.0
 40
1.0
 40
1.0
 10
758.375
 20
649.0
 30
0.0
 10
755.0612915010151
 20
649.0
 30
0.0
 10
752.3749999999999
 20
646.3137084989848
 30
0.0
 10
752.3749999999999
 20
643.0
 30
0.0
  0
LINE
  5
19A
330
70
100
AcDbEntity
  8
SHAPE2DVIEW015
 62
    18
420
        0
370
    25
100
AcDbLine
 10
752.3749999999999
 20
643.0
 30
0.0
 11
752.3749999999999
 21
625.4999999999999
 31
0.0
  0
LINE
  5
19B
330
70
100
AcDbEntity
  8
SHAPE2DVIEW015
 62
    18
420
        0
370
    25
100
AcDbLine
 10
752.3749999999999
 20
625.4999999999999
 30
0.0
 11
772.5699999999997
 21
481.8050000000003
 31
0.0
  0
SPLINE
  5
19C
330
70
100
AcDbEntity
  8
SHAPE2DVIEW015
 62
    18
420
        0
370
    25
100
AcDbSpline
210
0.0
220
0.0
230
1.0
 70
     8
 71
     3
 72
     8
 73
     4
 74
     0
 42
0.0000000001
 43
0.0000000001
 40
0.0
 40
0.0
 40
0.0
 40
0.0
 40
1.0
 40
1.0
 40
1.0
 40
1.0
 10
772.5700200000001
 20
481.8050000000003
 30
0.0
 10
772.5700200000001
 20
477.4944285732654
 30
0.0
 10
776.064428573266
 20
474.0000199999995
 30
0.0
 10
780.3749999999999
 20
474.0000199999995
 30
0.0
  0
LINE
  5
19D
330
70
100
AcDbEntity
  8
SHAPE2DVIEW015
 62
    18
420
        0
370
    25
100
AcDbLine
 10
780.3749999999999
 20
489.0
 30
0.0
 11
780.3749999999999
 21
474.0
 31
0.0
  0
LINE
  5
19E
330
70
100
AcDbEntity
  8
SHAPE2DVIEW015
 62
    18
420
        0
370
    25
100
AcDbLine
 10
784.375
 20
489.0
 30
0.0
 11
780.3749999999999
 21
489.0
 31
0.0
  0
LINE
  5
19F
330
70
100
AcDbEntity
  8
SHAPE2DVIEW015
 62
    18
420
        0
370
    25
100
AcDbLine
 10
784.375
 20
474.0
 30
0.0
 11
784.375
 21
489.0
 31
0.0
  0
SPLINE
  5
1A0
330
70
100
AcDbEntity
  8
SHAPE2DVIEW015
 62
    18
420
        0
370
    25
100
AcDbSpline
210
0.0
220
0.0
230
1.0
 70
     8
 71
     3
 72
    11
 73
     7
 74
     0
 42
0.0000000001
 43
0.0000000001
 40
0.0
 40
0.0
 40
0.0
 40
0.0
 40
1.0
 40
1.0
 40
1.0
 40
2.0
 40
2.0
 40
2.0
 40
2.0
 10
784.3747599806301
 20
473.9999999365336
 30
0.0
 10
791.2783193885661
 20
477.4820227251803
 30
0.0
 10
794.0520228521108
 20
485.9012005726945
 30
0.0
 10
790.570000063466
 20
492.8047599806304
 30
0.0
 10
789.2209255364814
 20
495.4794742797839
 30
0.0
 10
787.0494742797846
 20
497.6509255364817
 30
0.0
 10
784.3747599806301
 20
499.0000000634664
 30
0.0
  0
LINE
  5
1A1
330
70
100
AcDbEntity
  8
SHAPE2DVIEW015
 62
    18
420
        0
370
    25
100
AcDbLine
 10
784.375
 20
499.0
 30
0.0
 11
784.375
 21
580.0
 31
0.0
  0
LINE
  5
1A2
330
70
100
AcDbEntity
  8
SHAPE2DVIEW015
 62
    18
420
        0
370
    25
100
AcDbLine
 10
769.375
 20
580.0
 30
0.0
 11
784.375
 21
580.0
 31
0.0
  0
LINE
  5
1A3
330
70
100
AcDbEntity
  8
SHAPE2DVIEW015
 62
    18
420
        0
370
    25
100
AcDbLine
 10
769.375
 20
584.0
 30
0.0
 11
769.375
 21
580.0
 31
0.0
  0
LINE
  5
1A4
330
70
100
AcDbEntity
  8
SHAPE2DVIEW015
 62
    18
420
        0
370
    25
100
AcDbLine
 10
784.375
 20
584.0
 30
0.0
 11
769.375
 21
584.0
 31
0.0
  0
LINE
  5
1A5
330
70
100
AcDbEntity
  8
SHAPE2DVIEW015
 62
    18
420
        0
370
    25
100
AcDbLine
 10
784.375
 20
584.0
 30
0.0
 11
784.375
 21
665.0
 31
0.0
  0
SPLINE
  5
1A6
330
70
100
AcDbEntity
  8
SHAPE2DVIEW015
 62
    18
420
        0
370
    25
100
AcDbSpline
210
0.0
220
0.0
230
1.0
 70
     8
 71
     3
 72
     8
 73
     4
 74
     0
 42
0.0000000001
 43
0.0000000001
 40
0.0
 40
0.0
 40
0.0
 40
0.0
 40
1.0
 40
1.0
 40
1.0
 40
1.0
 10
784.375
 20
665.0
 30
0.0
 10
784.375
 20
667.2091389993229
 30
0.0
 10
782.5841389993229
 20
669.0
 30
0.0
 10
780.3749999999999
 20
669.0
 30
0.0
  0
LINE
  5
1A7
330
70
100
AcDbEntity
  8
SHAPE2DVIEW015
 62
    18
420
        0
370
    25
100
AcDbLine
 10
780.3749999999999
 20
669.0
 30
0.0
 11
762.375
 21
669.0
 31
0.0
  0
LINE
  5
1A8
330
70
100
AcDbEntity
  8
SHAPE2DVIEW015
 62
    18
420
        0
370
    25
100
AcDbLine
 10
762.375
 20
663.0
 30
0.0
 11
762.375
 21
669.0
 31
0.0
  0
LINE
  5
1A9
330
70
100
AcDbEntity
  8
SHAPE2DVIEW015
 62
    18
420
        0
370
    25
100
AcDbLine
 10
777.375
 20
663.0
 30
0.0
 11
762.375
 21
663.0
 31
0.0
  0
LINE
  5
1AA
330
70
100
AcDbEntity
  8
SHAPE2DVIEW015
 62
    18
420
        0
370
    25
100
AcDbLine
 10
777.375
 20
659.0
 30
0.0
 11
777.375
 21
663.0
 31
0.0
  0
LINE
  5
1AB
330
70
100
AcDbEntity
  8
SHAPE2DVIEW015
 62
    18
420
        0
370
    25
100
AcDbLine
 10
762.375
 20
659.0
 30
0.0
 11
777.375
 21
659.0
 31
0.0
  0
LINE
  5
1AC
330
70
100
AcDbEntity
  8
SHAPE2DVIEW015
 62
    18
420
        0
370
    25
100
AcDbLine
 10
762.375
 20
653.0
 30
0.0
 11
762.375
 21
659.0
 31
0.0
  0
LINE
  5
1AD
330
70
100
AcDbEntity
  8
SHAPE2DVIEW015
 62
    18
420
        0
370
    25
100
AcDbLine
 10
777.375
 20
653.0
 30
0.0
 11
762.375
 21
653.0
 31
0.0
  0
LINE
  5
1AE
330
70
100
AcDbEntity
  8
SHAPE2DVIEW015
 62
    18
420
        0
370
    25
100
AcDbLine
 10
777.375
 20
649.0
 30
0.0
 11
777.375
 21
653.0
 31
0.0
  0
LINE
  5
1AF
330
70
100
AcDbEntity
  8
SHAPE2DVIEW015
 62
    18
420
        0
370
    25
100
AcDbLine
 10
762.375
 20
649.0
 30
0.0
 11
777.375
 21
649.0
 31
0.0
  0
LINE
  5
1B1
330
70
100
AcDbEntity
  8
SHAPE2DVIEW016
 62
    18
420
        0
370
    25
100
AcDbLine
 10
882.6249999999999
 20
416.5
 30
0.0
 11
882.6249999999999
 21
411.0
 31
0.0
  0
LINE
  5
1B2
330
70
100
AcDbEntity
  8
SHAPE2DVIEW016
 62
    18
420
        0
370
    25
100
AcDbLine
 10
882.6249999999999
 20
411.0
 30
0.0
 11
844.125
 21
411.0
 31
0.0
  0
LINE
  5
1B3
330
70
100
AcDbEntity
  8
SHAPE2DVIEW016
 62
    18
420
        0
370
    25
100
AcDbLine
 10
844.125
 20
411.0
 30
0.0
 11
844.125
 21
416.5
 31
0.0
  0
LINE
  5
1B4
330
70
100
AcDbEntity
  8
SHAPE2DVIEW016
 62
    18
420
        0
370
    25
100
AcDbLine
 10
839.1249999999999
 20
416.5
 30
0.0
 11
844.125
 21
416.5
 31
0.0
  0
LINE
  5
1B5
330
70
100
AcDbEntity
  8
SHAPE2DVIEW016
 62
    18
420
        0
370
    25
100
AcDbLine
 10
839.1249999999999
 20
426.4999999999999
 30
0.0
 11
839.1249999999999
 21
416.5
 31
0.0
  0
LINE
  5
1B6
330
70
100
AcDbEntity
  8
SHAPE2DVIEW016
 62
    18
420
        0
370
    25
100
AcDbLine
 10
844.125
 20
426.4999999999999
 30
0.0
 11
839.1249999999999
 21
426.4999999999999
 31
0.0
  0
LINE
  5
1B7
330
70
100
AcDbEntity
  8
SHAPE2DVIEW016
 62
    18
420
        0
370
    25
100
AcDbLine
 10
844.125
 20
426.4999999999999
 30
0.0
 11
844.125
 21
432.0
 31
0.0
  0
LINE
  5
1B8
330
70
100
AcDbEntity
  8
SHAPE2DVIEW016
 62
    18
420
        0
370
    25
100
AcDbLine
 10
844.125
 20
432.0
 30
0.0
 11
882.6249999999999
 21
432.0
 31
0.0
  0
LINE
  5
1B9
330
70
100
AcDbEntity
  8
SHAPE2DVIEW016
 62
    18
420
        0
370
    25
100
AcDbLine
 10
882.6249999999999
 20
432.0
 30
0.0
 11
882.6249999999999
 21
426.4999999999999
 31
0.0
  0
LINE
  5
1BA
330
70
100
AcDbEntity
  8
SHAPE2DVIEW016
 62
    18
420
        0
370
    25
100
AcDbLine
 10
887.625
 20
426.4999999999999
 30
0.0
 11
882.6249999999999
 21
426.4999999999999
 31
0.0
  0
LINE
  5
1BB
330
70
100
AcDbEntity
  8
SHAPE2DVIEW016
 62
    18
420
        0
370
    25
100
AcDbLine
 10
887.625
 20
416.5
 30
0.0
 11
887.625
 21
426.4999999999999
 31
0.0
  0
LINE
  5
1BC
330
70
100
AcDbEntity
  8
SHAPE2DVIEW016
 62
    18
420
        0
370
    25
100
AcDbLine
 10
882.6249999999999
 20
416.5
 30
0.0
 11
887.625
 21
416.5
 31
0.0
  0
LINE
  5
1BD
330
70
100
AcDbEntity
  8
SHAPE2DVIEW016
 62
    18
420
        0
370
    25
100
AcDbLine
 10
847.1000000000003
 20
414.5
 30
0.0
 11
863.375
 21
419.7499999999999
 31
0.0
  0
LINE
  5
1BE
330
70
100
AcDbEntity
  8
SHAPE2DVIEW016
 62
    18
420
        0
370
    25
100
AcDbLine
 10
863.375
 20
419.7499999999999
 30
0.0
 11
879.6499999999996
 21
414.5
 31
0.0
  0
LINE
  5
1BF
330
70
100
AcDbEntity
  8
SHAPE2DVIEW016
 62
    18
420
        0
370
    25
100
AcDbLine
 10
879.6499999999996
 20
414.5
 30
0.0
 11
847.1000000000003
 21
414.5
 31
0.0
  0
LINE
  5
1C0
330
70
100
AcDbEntity
  8
SHAPE2DVIEW016
 62
    18
420
        0
370
    25
100
AcDbLine
 10
879.6499999999996
 20
428.5
 30
0.0
 11
847.1000000000003
 21
428.5
 31
0.0
  0
LINE
  5
1C1
330
70
100
AcDbEntity
  8
SHAPE2DVIEW016
 62
    18
420
        0
370
    25
100
AcDbLine
 10
847.1000000000003
 20
428.5
 30
0.0
 11
863.375
 21
423.2499999999999
 31
0.0
  0
LINE
  5
1C2
330
70
100
AcDbEntity
  8
SHAPE2DVIEW016
 62
    18
420
        0
370
    25
100
AcDbLine
 10
863.375
 20
423.2499999999999
 30
0.0
 11
879.6499999999996
 21
428.5
 31
0.0
  0
LINE
  5
1C3
330
70
100
AcDbEntity
  8
SHAPE2DVIEW016
 62
    18
420
        0
370
    25
100
AcDbLine
 10
864.8625000000002
 20
421.4999999999999
 30
0.0
 11
879.6499999999996
 21
426.2702000000008
 31
0.0
  0
LINE
  5
1C4
330
70
100
AcDbEntity
  8
SHAPE2DVIEW016
 62
    18
420
        0
370
    25
100
AcDbLine
 10
879.6499999999996
 20
426.2702000000008
 30
0.0
 11
879.6499999999996
 21
416.7297999999991
 31
0.0
  0
LINE
  5
1C5
330
70
100
AcDbEntity
  8
SHAPE2DVIEW016
 62
    18
420
        0
370
    25
100
AcDbLine
 10
879.6499999999996
 20
416.7297999999991
 30
0.0
 11
864.8625000000002
 21
421.4999999999999
 31
0.0
  0
LINE
  5
1C6
330
70
100
AcDbEntity
  8
SHAPE2DVIEW016
 62
    18
420
        0
370
    25
100
AcDbLine
 10
847.1000000000003
 20
426.2702000000008
 30
0.0
 11
861.8874999999999
 21
421.4999999999999
 31
0.0
  0
LINE
  5
1C7
330
70
100
AcDbEntity
  8
SHAPE2DVIEW016
 62
    18
420
        0
370
    25
100
AcDbLine
 10
861.8874999999999
 20
421.4999999999999
 30
0.0
 11
847.1000000000003
 21
416.7297999999991
 31
0.0
  0
LINE
  5
1C8
330
70
100
AcDbEntity
  8
SHAPE2DVIEW016
 62
    18
420
        0
370
    25
100
AcDbLine
 10
847.1000000000003
 20
416.7297999999991
 30
0.0
 11
847.1000000000003
 21
426.2702000000008
 31
0.0
  0
LINE
  5
1CA
330
70
100
AcDbEntity
  8
SHAPE2DVIEW017
 62
    18
420
        0
370
    25
100
AcDbLine
 10
1128.625
 20
432.5
 30
0.0
 11
1128.625
 21
427.0
 31
0.0
  0
LINE
  5
1CB
330
70
100
AcDbEntity
  8
SHAPE2DVIEW017
 62
    18
420
        0
370
    25
100
AcDbLine
 10
1128.625
 20
427.0
 30
0.0
 11
1090.125
 21
427.0
 31
0.0
  0
LINE
  5
1CC
330
70
100
AcDbEntity
  8
SHAPE2DVIEW017
 62
    18
420
        0
370
    25
100
AcDbLine
 10
1090.125
 20
427.0
 30
0.0
 11
1090.125
 21
432.5
 31
0.0
  0
LINE
  5
1CD
330
70
100
AcDbEntity
  8
SHAPE2DVIEW017
 62
    18
420
        0
370
    25
100
AcDbLine
 10
1085.125
 20
432.5
 30
0.0
 11
1090.125
 21
432.5
 31
0.0
  0
LINE
  5
1CE
330
70
100
AcDbEntity
  8
SHAPE2DVIEW017
 62
    18
420
        0
370
    25
100
AcDbLine
 10
1085.125
 20
442.4999999999999
 30
0.0
 11
1085.125
 21
432.5
 31
0.0
  0
LINE
  5
1CF
330
70
100
AcDbEntity
  8
SHAPE2DVIEW017
 62
    18
420
        0
370
    25
100
AcDbLine
 10
1090.125
 20
442.4999999999999
 30
0.0
 11
1085.125
 21
442.4999999999999
 31
0.0
  0
LINE
  5
1D0
330
70
100
AcDbEntity
  8
SHAPE2DVIEW017
 62
    18
420
        0
370
    25
100
AcDbLine
 10
1090.125
 20
442.4999999999999
 30
0.0
 11
1090.125
 21
448.0
 31
0.0
  0
LINE
  5
1D1
330
70
100
AcDbEntity
  8
SHAPE2DVIEW017
 62
    18
420
        0
370
    25
100
AcDbLine
 10
1090.125
 20
448.0
 30
0.0
 11
1128.625
 21
448.0
 31
0.0
  0
LINE
  5
1D2
330
70
100
AcDbEntity
  8
SHAPE2DVIEW017
 62
    18
420
        0
370
    25
100
AcDbLine
 10
1128.625
 20
448.0
 30
0.0
 11
1128.625
 21
442.4999999999999
 31
0.0
  0
LINE
  5
1D3
330
70
100
AcDbEntity
  8
SHAPE2DVIEW017
 62
    18
420
        0
370
    25
100
AcDbLine
 10
1133.625
 20
442.4999999999999
 30
0.0
 11
1128.625
 21
442.4999999999999
 31
0.0
  0
LINE
  5
1D4
330
70
100
AcDbEntity
  8
SHAPE2DVIEW017
 62
    18
420
        0
370
    25
100
AcDbLine
 10
1133.625
 20
432.5
 30
0.0
 11
1133.625
 21
442.4999999999999
 31
0.0
  0
LINE
  5
1D5
330
70
100
AcDbEntity
  8
SHAPE2DVIEW017
 62
    18
420
        0
370
    25
100
AcDbLine
 10
1128.625
 20
432.5
 30
0.0
 11
1133.625
 21
432.5
 31
0.0
  0
LINE
  5
1D6
330
70
100
AcDbEntity
  8
SHAPE2DVIEW017
 62
    18
420
        0
370
    25
100
AcDbLine
 10
1093.1
 20
430.4999999999999
 30
0.0
 11
1109.375
 21
435.7499999999999
 31
0.0
  0
LINE
  5
1D7
330
70
100
AcDbEntity
  8
SHAPE2DVIEW017
 62
    18
420
        0
370
    25
100
AcDbLine
 10
1109.375
 20
435.7499999999999
 30
0.0
 11
1125.65
 21
430.4999999999999
 31
0.0
  0
LINE
  5
1D8
330
70
100
AcDbEntity
  8
SHAPE2DVIEW017
 62
    18
420
        0
370
    25
100
AcDbLine
 10
1125.65
 20
430.4999999999999
 30
0.0
 11
1093.1
 21
430.4999999999999
 31
0.0
  0
LINE
  5
1D9
330
70
100
AcDbEntity
  8
SHAPE2DVIEW017
 62
    18
420
        0
370
    25
100
AcDbLine
 10
1125.65
 20
444.5
 30
0.0
 11
1093.1
 21
444.5
 31
0.0
  0
LINE
  5
1DA
330
70
100
AcDbEntity
  8
SHAPE2DVIEW017
 62
    18
420
        0
370
    25
100
AcDbLine
 10
1093.1
 20
444.5
 30
0.0
 11
1109.375
 21
439.25
 31
0.0
  0
LINE
  5
1DB
330
70
100
AcDbEntity
  8
SHAPE2DVIEW017
 62
    18
420
        0
370
    25
100
AcDbLine
 10
1109.375
 20
439.25
 30
0.0
 11
1125.65
 21
444.5
 31
0.0
  0
LINE
  5
1DC
330
70
100
AcDbEntity
  8
SHAPE2DVIEW017
 62
    18
420
        0
370
    25
100
AcDbLine
 10
1110.862999999999
 20
437.5
 30
0.0
 11
1125.65
 21
442.2702000000008
 31
0.0
  0
LINE
  5
1DD
330
70
100
AcDbEntity
  8
SHAPE2DVIEW017
 62
    18
420
        0
370
    25
100
AcDbLine
 10
1125.65
 20
442.2702000000008
 30
0.0
 11
1125.65
 21
432.7297999999991
 31
0.0
  0
LINE
  5
1DE
330
70
100
AcDbEntity
  8
SHAPE2DVIEW017
 62
    18
420
        0
370
    25
100
AcDbLine
 10
1125.65
 20
432.7297999999991
 30
0.0
 11
1110.862999999999
 21
437.5
 31
0.0
  0
LINE
  5
1DF
330
70
100
AcDbEntity
  8
SHAPE2DVIEW017
 62
    18
420
        0
370
    25
100
AcDbLine
 10
1093.1
 20
442.2702000000008
 30
0.0
 11
1107.887
 21
437.5
 31
0.0
  0
LINE
  5
1E0
330
70
100
AcDbEntity
  8
SHAPE2DVIEW017
 62
    18
420
        0
370
    25
100
AcDbLine
 10
1107.887
 20
437.5
 30
0.0
 11
1093.1
 21
432.7297999999991
 31
0.0
  0
LINE
  5
1E1
330
70
100
AcDbEntity
  8
SHAPE2DVIEW017
 62
    18
420
        0
370
    25
100
AcDbLine
 10
1093.1
 20
432.7297999999991
 30
0.0
 11
1093.1
 21
442.2702000000008
 31
0.0
  0
LINE
  5
1E3
330
70
100
AcDbEntity
  8
SHAPE2DVIEW018
 62
    18
420
        0
370
    25
100
AcDbLine
 10
1163.625
 20
480.4999999999999
 30
0.0
 11
1163.625
 21
475.0
 31
0.0
  0
LINE
  5
1E4
330
70
100
AcDbEntity
  8
SHAPE2DVIEW018
 62
    18
420
        0
370
    25
100
AcDbLine
 10
1163.625
 20
475.0
 30
0.0
 11
1125.125
 21
475.0
 31
0.0
  0
LINE
  5
1E5
330
70
100
AcDbEntity
  8
SHAPE2DVIEW018
 62
    18
420
        0
370
    25
100
AcDbLine
 10
1125.125
 20
475.0
 30
0.0
 11
1125.125
 21
480.4999999999999
 31
0.0
  0
LINE
  5
1E6
330
70
100
AcDbEntity
  8
SHAPE2DVIEW018
 62
    18
420
        0
370
    25
100
AcDbLine
 10
1120.125
 20
480.4999999999999
 30
0.0
 11
1125.125
 21
480.4999999999999
 31
0.0
  0
LINE
  5
1E7
330
70
100
AcDbEntity
  8
SHAPE2DVIEW018
 62
    18
420
        0
370
    25
100
AcDbLine
 10
1120.125
 20
490.5
 30
0.0
 11
1120.125
 21
480.4999999999999
 31
0.0
  0
LINE
  5
1E8
330
70
100
AcDbEntity
  8
SHAPE2DVIEW018
 62
    18
420
        0
370
    25
100
AcDbLine
 10
1125.125
 20
490.5
 30
0.0
 11
1120.125
 21
490.5
 31
0.0
  0
LINE
  5
1E9
330
70
100
AcDbEntity
  8
SHAPE2DVIEW018
 62
    18
420
        0
370
    25
100
AcDbLine
 10
1125.125
 20
490.5
 30
0.0
 11
1125.125
 21
496.0
 31
0.0
  0
LINE
  5
1EA
330
70
100
AcDbEntity
  8
SHAPE2DVIEW018
 62
    18
420
        0
370
    25
100
AcDbLine
 10
1125.125
 20
496.0
 30
0.0
 11
1163.625
 21
496.0
 31
0.0
  0
LINE
  5
1EB
330
70
100
AcDbEntity
  8
SHAPE2DVIEW018
 62
    18
420
        0
370
    25
100
AcDbLine
 10
1163.625
 20
496.0
 30
0.0
 11
1163.625
 21
490.5
 31
0.0
  0
LINE
  5
1EC
330
70
100
AcDbEntity
  8
SHAPE2DVIEW018
 62
    18
420
        0
370
    25
100
AcDbLine
 10
1168.625
 20
490.5
 30
0.0
 11
1163.625
 21
490.5
 31
0.0
  0
LINE
  5
1ED
330
70
100
AcDbEntity
  8
SHAPE2DVIEW018
 62
    18
420
        0
370
    25
100
AcDbLine
 10
1168.625
 20
480.4999999999999
 30
0.0
 11
1168.625
 21
490.5
 31
0.0
  0
LINE
  5
1EE
330
70
100
AcDbEntity
  8
SHAPE2DVIEW018
 62
    18
420
        0
370
    25
100
AcDbLine
 10
1163.625
 20
480.4999999999999
 30
0.0
 11
1168.625
 21
480.4999999999999
 31
0.0
  0
LINE
  5
1EF
330
70
100
AcDbEntity
  8
SHAPE2DVIEW018
 62
    18
420
        0
370
    25
100
AcDbLine
 10
1128.1
 20
478.5
 30
0.0
 11
1144.375
 21
483.75
 31
0.0
  0
LINE
  5
1F0
330
70
100
AcDbEntity
  8
SHAPE2DVIEW018
 62
    18
420
        0
370
    25
100
AcDbLine
 10
1144.375
 20
483.75
 30
0.0
 11
1160.649999999999
 21
478.5
 31
0.0
  0
LINE
  5
1F1
330
70
100
AcDbEntity
  8
SHAPE2DVIEW018
 62
    18
420
        0
370
    25
100
AcDbLine
 10
1160.649999999999
 20
478.5
 30
0.0
 11
1128.1
 21
478.5
 31
0.0
  0
LINE
  5
1F2
330
70
100
AcDbEntity
  8
SHAPE2DVIEW018
 62
    18
420
        0
370
    25
100
AcDbLine
 10
1160.649999999999
 20
492.4999999999999
 30
0.0
 11
1128.1
 21
492.4999999999999
 31
0.0
  0
LINE
  5
1F3
330
70
100
AcDbEntity
  8
SHAPE2DVIEW018
 62
    18
420
        0
370
    25
100
AcDbLine
 10
1128.1
 20
492.4999999999999
 30
0.0
 11
1144.375
 21
487.25
 31
0.0
  0
LINE
  5
1F4
330
70
100
AcDbEntity
  8
SHAPE2DVIEW018
 62
    18
420
        0
370
    25
100
AcDbLine
 10
1144.375
 20
487.25
 30
0.0
 11
1160.649999999999
 21
492.4999999999999
 31
0.0
  0
LINE
  5
1F5
330
70
100
AcDbEntity
  8
SHAPE2DVIEW018
 62
    18
420
        0
370
    25
100
AcDbLine
 10
1145.862999999999
 20
485.5
 30
0.0
 11
1160.649999999999
 21
490.2700000000004
 31
0.0
  0
LINE
  5
1F6
330
70
100
AcDbEntity
  8
SHAPE2DVIEW018
 62
    18
420
        0
370
    25
100
AcDbLine
 10
1160.649999999999
 20
490.2700000000004
 30
0.0
 11
1160.649999999999
 21
480.7297999999991
 31
0.0
  0
LINE
  5
1F7
330
70
100
AcDbEntity
  8
SHAPE2DVIEW018
 62
    18
420
        0
370
    25
100
AcDbLine
 10
1160.649999999999
 20
480.7297999999991
 30
0.0
 11
1145.862999999999
 21
485.5
 31
0.0
  0
LINE
  5
1F8
330
70
100
AcDbEntity
  8
SHAPE2DVIEW018
 62
    18
420
        0
370
    25
100
AcDbLine
 10
1128.1
 20
490.2700000000004
 30
0.0
 11
1142.887
 21
485.5
 31
0.0
  0
LINE
  5
1F9
330
70
100
AcDbEntity
  8
SHAPE2DVIEW018
 62
    18
420
        0
370
    25
100
AcDbLine
 10
1142.887
 20
485.5
 30
0.0
 11
1128.1
 21
480.7297999999991
 31
0.0
  0
LINE
  5
1FA
330
70
100
AcDbEntity
  8
SHAPE2DVIEW018
 62
    18
420
        0
370
    25
100
AcDbLine
 10
1128.1
 20
480.7297999999991
 30
0.0
 11
1128.1
 21
490.2700000000004
 31
0.0
  0
ENDSEC
  0
SECTION
  2
OBJECTS
  0
DICTIONARY
  5
C
330
0
100
AcDbDictionary
281
     1
  3
ACAD_COLOR
350
63
  3
ACAD_DETAILVIEWSTYLE
350
6A
  3
ACAD_GROUP
350
D
  3
ACAD_LAYOUT
350
62
  3
ACAD_MATERIAL
350
10
  3
ACAD_MLEADERSTYLE
350
66
  3
ACAD_MLINESTYLE
350
5F
  3
ACAD_PLOTSETTINGS
350
61
  3
ACAD_PLOTSTYLENAME
350
E
  3
ACAD_SCALELIST
350
42
  3
ACAD_SECTIONVIEWSTYLE
350
68
  3
ACAD_TABLESTYLE
350
64
  3
ACAD_VISUALSTYLE
350
29
  3
ACDB_RECOMPOSE_DATA
350
203
  3
AcDbVariableDictionary
350
1FB
  0
DICTIONARY
  5
63
102
{ACAD_REACTORS
330
C
102
}
330
C
100
AcDbDictionary
281
     1
  0
DICTIONARY
  5
6A
102
{ACAD_REACTORS
330
C
102
}
330
C
100
AcDbDictionary
281
     1
  3
Imperial24
350
6B
  0
DICTIONARY
  5
D
102
{ACAD_REACTORS
330
C
102
}
330
C
100
AcDbDictionary
281
     1
  0
DICTIONARY
  5
62
102
{ACAD_REACTORS
330
C
102
}
330
C
100
AcDbDictionary
281
     1
  3
Layout1
350
6F
  3
Layout2
350
77
  3
Model
350
73
  0
DICTIONARY
  5
10
102
{ACAD_REACTORS
330
C
102
}
330
C
100
AcDbDictionary
281
     1
  3
ByBlock
350
19
  3
ByLayer
350
11
  3
Global
350
21
  0
DICTIONARY
  5
66
102
{ACAD_REACTORS
330
C
102
}
330
C
100
AcDbDictionary
281
     1
  3
Standard
350
67
  0
DICTIONARY
  5
5F
102
{ACAD_REACTORS
330
C
102
}
330
C
100
AcDbDictionary
281
     1
  3
Standard
350
60
  0
DICTIONARY
  5
61
102
{ACAD_REACTORS
330
C
102
}
330
C
100
AcDbDictionary
281
     1
  0
ACDBDICTIONARYWDFLT
  5
E
102
{ACAD_REACTORS
330
C
102
}
330
C
100
AcDbDictionary
281
     1
  3
Normal
350
F
100
AcDbDictionaryWithDefault
340
F
  0
DICTIONARY
  5
42
102
{ACAD_REACTORS
330
C
102
}
330
C
100
AcDbDictionary
281
     1
  3
A0
350
43
  3
A1
350
44
  3
A2
350
45
  3
A3
350
46
  3
A4
350
47
  3
A5
350
48
  3
A6
350
49
  3
A7
350
4A
  3
A8
350
4B
  3
A9
350
4C
  3
B0
350
4D
  3
B1
350
4E
  3
B2
350
4F
  3
B3
350
50
  3
B4
350
51
  3
B5
350
52
  3
B6
350
53
  0
DICTIONARY
  5
68
102
{ACAD_REACTORS
330
C
102
}
330
C
100
AcDbDictionary
281
     1
  3
Imperial24
350
69
  0
DICTIONARY
  5
64
102
{ACAD_REACTORS
330
C
102
}
330
C
100
AcDbDictionary
281
     1
  3
Standard
350
65
  0
DICTIONARY
  5
29
102
{ACAD_REACTORS
330
C
102
}
330
C
100
AcDbDictionary
281
     1
  3
2dWireframe
350
2F
  3
Basic
350
2E
  3
Brighten
350
35
  3
ColorChange
350
39
  3
Conceptual
350
32
  3
Dim
350
34
  3
EdgeColorOff
350
41
  3
Facepattern
350
38
  3
Flat
350
2A
  3
FlatWithEdges
350
2B
  3
Gouraud
350
2C
  3
GouraudWithEdges
350
2D
  3
Hidden
350
31
  3
JitterOff
350
3F
  3
Linepattern
350
37
  3
OverhangOff
350
40
  3
Realistic
350
33
  3
Shaded
350
3E
  3
Shaded with edges
350
3D
  3
Shades of Gray
350
3A
  3
Sketchy
350
3B
  3
Thicken
350
36
  3
Wireframe
350
30
  3
X-Ray
350
3C
  0
XRECORD
  5
203
102
{ACAD_REACTORS
330
C
102
}
330
C
100
AcDbXrecord
280
     1
 90
        1
330
65
  0
DICTIONARY
  5
1FB
102
{ACAD_REACTORS
330
C
102
}
330
C
100
AcDbDictionary
281
     1
  3
CANNOSCALE
350
200
  3
CMLEADERSTYLE
350
1FD
  3
CTABLESTYLE
350
1FC
  3
CVIEWDETAILSTYLE
350
1FE
  3
CVIEWSECTIONSTYLE
350
1FF
  0
ACDBDETAILVIEWSTYLE
  5
6B
102
{ACAD_REACTORS
330
6A
102
}
330
6A
100
AcDbModelDocViewStyle
 70
     0
  3
Imperial24
290
     1
300
Imperial24
 90
        0
100
AcDbDetailViewStyle
 70
     0
 71
     0
 90
        3
 71
     1
340
55
 62
   256
 40
0.24
340
0
 62
   256
 40
0.24
300

 40
0.36
280
     3
 71
     2
340
5D
 90
       25
 62
   256
 71
     3
340
55
 62
   256
 40
0.24
 90
        1
 40
0.75
 90
        1
300
%<\AcVar ViewType \f "%tc1">% %<\AcVar ViewDetailId>%\PSCALE %<\AcVar ViewScale \f "%sn">%
 71
     4
340
5D
 90
       25
 62
   256
340
5D
 90
       25
 62
   256
280
     0
  0
LAYOUT
  5
6F
102
{ACAD_REACTORS
330
62
102
}
330
62
100
AcDbPlotSettings
  1

  2

  4

  6

 40
0.0
 41
0.0
 42
0.0
 43
0.0
 44
0.0
 45
0.0
 46
0.0
 47
0.0
 48
0.0
 49
0.0
140
0.0
141
0.0
142
1.0
143
1.0
 70
   688
 72
     0
 73
     0
 74
     5
  7

 75
    16
147
1.0
 76
     0
 77
     2
 78
   300
148
0.0
149
0.0
100
AcDbLayout
  1
Layout1
 70
     1
 71
     1
 10
0.0
 20
0.0
 11
12.0
 21
9.0
 12
0.0
 22
0.0
 32
0.0
 14
0.0
 24
0.0
 34
0.0
 15
0.0
 25
0.0
 35
0.0
146
0.0
 13
0.0
 23
0.0
 33
0.0
 16
1.0
 26
0.0
 36
0.0
 17
0.0
 27
1.0
 37
0.0
 76
     0
330
6C
  0
LAYOUT
  5
77
102
{ACAD_REACTORS
330
62
102
}
330
62
100
AcDbPlotSettings
  1

  2

  4

  6

 40
0.0
 41
0.0
 42
0.0
 43
0.0
 44
0.0
 45
0.0
 46
0.0
 47
0.0
 48
0.0
 49
0.0
140
0.0
141
0.0
142
1.0
143
1.0
 70
   688
 72
     0
 73
     0
 74
     5
  7

 75
    16
147
1.0
 76
     0
 77
     2
 78
   300
148
0.0
149
0.0
100
AcDbLayout
  1
Layout2
 70
     1
 71
     2
 10
0.0
 20
0.0
 11
12.0
 21
9.0
 12
0.0
 22
0.0
 32
0.0
 14
0.0
 24
0.0
 34
0.0
 15
0.0
 25
0.0
 35
0.0
146
0.0
 13
0.0
 23
0.0
 33
0.0
 16
1.0
 26
0.0
 36
0.0
 17
0.0
 27
1.0
 37
0.0
 76
     0
330
74
  0
LAYOUT
  5
73
102
{ACAD_REACTORS
330
62
102
}
330
62
100
AcDbPlotSettings
  1

  2

  4

  6

 40
0.0
 41
0.0
 42
0.0
 43
0.0
 44
0.0
 45
0.0
 46
0.0
 47
0.0
 48
0.0
 49
0.0
140
0.0
141
0.0
142
1.0
143
1.0
 70
  1712
 72
     0
 73
     0
 74
     0
  7

 75
     0
147
1.0
 76
     0
 77
     2
 78
   300
148
0.0
149
0.0
100
AcDbLayout
  1
Model
 70
     1
 71
     0
 10
0.0
 20
0.0
 11
12.0
 21
9.0
 12
0.0
 22
0.0
 32
0.0
 14
0.0
 24
0.0
 34
0.0
 15
0.0
 25
0.0
 35
0.0
146
0.0
 13
0.0
 23
0.0
 33
0.0
 16
1.0
 26
0.0
 36
0.0
 17
0.0
 27
1.0
 37
0.0
 76
     0
330
70
  0
MATERIAL
  5
19
102
{ACAD_XDICTIONARY
360
1A
102
}
102
{ACAD_REACTORS
330
10
102
}
330
10
100
AcDbMaterial
  1
ByBlock
 72
     0
 43
0.0208333333333333
 43
0.0
 43
0.0
 43
0.0
 43
0.0
 43
0.0208333333333333
 43
0.0
 43
0.0
 43
0.0
 43
0.0
 43
1.0
 43
0.0
 43
0.0
 43
0.0
 43
0.0
 43
1.0
 77
     0
 47
0.0208333333333333
 47
0.0
 47
0.0
 47
0.0
 47
0.0
 47
0.0208333333333333
 47
0.0
 47
0.0
 47
0.0
 47
0.0
 47
1.0
 47
0.0
 47
0.0
 47
0.0
 47
0.0
 47
1.0
171
     0
 49
0.0208333333333333
 49
0.0
 49
0.0
 49
0.0
 49
0.0
 49
0.0208333333333333
 49
0.0
 49
0.0
 49
0.0
 49
0.0
 49
1.0
 49
0.0
 49
0.0
 49
0.0
 49
0.0
 49
1.0
175
     0
142
0.0208333333333333
142
0.0
142
0.0
142
0.0
142
0.0
142
0.0208333333333333
142
0.0
142
0.0
142
0.0
142
0.0
142
1.0
142
0.0
142
0.0
142
0.0
142
0.0
142
1.0
179
     0
144
0.0208333333333333
144
0.0
144
0.0
144
0.0
144
0.0
144
0.0208333333333333
144
0.0
144
0.0
144
0.0
144
0.0
144
1.0
144
0.0
144
0.0
144
0.0
144
0.0
144
1.0
147
0.0208333333333333
147
0.0
147
0.0
147
0.0
147
0.0
147
0.0208333333333333
147
0.0
147
0.0
147
0.0
147
0.0
147
1.0
147
0.0
147
0.0
147
0.0
147
0.0
147
1.0
  0
MATERIAL
  5
11
102
{ACAD_XDICTIONARY
360
12
102
}
102
{ACAD_REACTORS
330
10
102
}
330
10
100
AcDbMaterial
  1
ByLayer
 72
     0
 43
0.0208333333333333
 43
0.0
 43
0.0
 43
0.0
 43
0.0
 43
0.0208333333333333
 43
0.0
 43
0.0
 43
0.0
 43
0.0
 43
1.0
 43
0.0
 43
0.0
 43
0.0
 43
0.0
 43
1.0
 77
     0
 47
0.0208333333333333
 47
0.0
 47
0.0
 47
0.0
 47
0.0
 47
0.0208333333333333
 47
0.0
 47
0.0
 47
0.0
 47
0.0
 47
1.0
 47
0.0
 47
0.0
 47
0.0
 47
0.0
 47
1.0
171
     0
 49
0.0208333333333333
 49
0.0
 49
0.0
 49
0.0
 49
0.0
 49
0.0208333333333333
 49
0.0
 49
0.0
 49
0.0
 49
0.0
 49
1.0
 49
0.0
 49
0.0
 49
0.0
 49
0.0
 49
1.0
175
     0
142
0.0208333333333333
142
0.0
142
0.0
142
0.0
142
0.0
142
0.0208333333333333
142
0.0
142
0.0
142
0.0
142
0.0
142
1.0
142
0.0
142
0.0
142
0.0
142
0.0
142
1.0
179
     0
144
0.0208333333333333
144
0.0
144
0.0
144
0.0
144
0.0
144
0.0208333333333333
144
0.0
144
0.0
144
0.0
144
0.0
144
1.0
144
0.0
144
0.0
144
0.0
144
0.0
144
1.0
147
0.0208333333333333
147
0.0
147
0.0
147
0.0
147
0.0
147
0.0208333333333333
147
0.0
147
0.0
147
0.0
147
0.0
147
1.0
147
0.0
147
0.0
147
0.0
147
0.0
147
1.0
  0
MATERIAL
  5
21
102
{ACAD_XDICTIONARY
360
22
102
}
102
{ACAD_REACTORS
330
10
102
}
330
10
100
AcDbMaterial
  1
Global
 72
     0
 43
0.0208333333333333
 43
0.0
 43
0.0
 43
0.0
 43
0.0
 43
0.0208333333333333
 43
0.0
 43
0.0
 43
0.0
 43
0.0
 43
1.0
 43
0.0
 43
0.0
 43
0.0
 43
0.0
 43
1.0
 77
     0
 47
0.0208333333333333
 47
0.0
 47
0.0
 47
0.0
 47
0.0
 47
0.0208333333333333
 47
0.0
 47
0.0
 47
0.0
 47
0.0
 47
1.0
 47
0.0
 47
0.0
 47
0.0
 47
0.0
 47
1.0
171
     0
 49
0.0208333333333333
 49
0.0
 49
0.0
 49
0.0
 49
0.0
 49
0.0208333333333333
 49
0.0
 49
0.0
 49
0.0
 49
0.0
 49
1.0
 49
0.0
 49
0.0
 49
0.0
 49
0.0
 49
1.0
175
     0
142
0.0208333333333333
142
0.0
142
0.0
142
0.0
142
0.0
142
0.0208333333333333
142
0.0
142
0.0
142
0.0
142
0.0
142
1.0
142
0.0
142
0.0
142
0.0
142
0.0
142
1.0
179
     0
144
0.0208333333333333
144
0.0
144
0.0
144
0.0
144
0.0
144
0.0208333333333333
144
0.0
144
0.0
144
0.0
144
0.0
144
1.0
144
0.0
144
0.0
144
0.0
144
0.0
144
1.0
147
0.0208333333333333
147
0.0
147
0.0
147
0.0
147
0.0
147
0.0208333333333333
147
0.0
147
0.0
147
0.0
147
0.0
147
1.0
147
0.0
147
0.0
147
0.0
147
0.0
147
1.0
  0
MLEADERSTYLE
  5
67
102
{ACAD_REACTORS
330
66
102
}
330
66
100
AcDbMLeaderStyle
179
     2
170
     2
171
     1
172
     0
 90
        2
 40
0.0
 41
0.0
173
     1
 91
-1056964608
340
5B
 92
       -2
290
     1
 42
0.09
291
     1
 43
0.36
  3
Standard
 44
0.18
300

342
55
174
     1
178
     6
175
     1
176
     0
 93
-1056964608
 45
0.18
292
     0
297
     0
 46
0.18
 94
-1056964608
 47
1.0
 49
1.0
140
1.0
293
     1
141
0.0
294
     1
177
     0
142
1.0
295
     1
296
     0
143
0.125
271
     0
272
     9
273
     9
298
     1
  0
MLINESTYLE
  5
60
102
{ACAD_REACTORS
330
5F
102
}
330
5F
100
AcDbMlineStyle
  2
STANDARD
 70
     0
  3

 62
   256
 51
90.0
 52
90.0
 71
     2
 49
0.5
 62
   256
  6
BYLAYER
 49
-0.5
 62
   256
  6
BYLAYER
  0
ACDBPLACEHOLDER
  5
F
102
{ACAD_REACTORS
330
E
102
}
330
E
  0
SCALE
  5
43
102
{ACAD_REACTORS
330
42
102
}
330
42
100
AcDbScale
 70
     0
300
1:1
140
1.0
141
1.0
290
     1
  0
SCALE
  5
44
102
{ACAD_REACTORS
330
42
102
}
330
42
100
AcDbScale
 70
     0
300
1/128" = 1'-0"
140
0.0078125
141
12.0
290
     0
  0
SCALE
  5
45
102
{ACAD_REACTORS
330
42
102
}
330
42
100
AcDbScale
 70
     0
300
1/64" = 1'-0"
140
0.015625
141
12.0
290
     0
  0
SCALE
  5
46
102
{ACAD_REACTORS
330
42
102
}
330
42
100
AcDbScale
 70
     0
300
1/32" = 1'-0"
140
0.03125
141
12.0
290
     0
  0
SCALE
  5
47
102
{ACAD_REACTORS
330
42
102
}
330
42
100
AcDbScale
 70
     0
300
1/16" = 1'-0"
140
0.0625
141
12.0
290
     0
  0
SCALE
  5
48
102
{ACAD_REACTORS
330
42
102
}
330
42
100
AcDbScale
 70
     0
300
3/32" = 1'-0"
140
0.09375
141
12.0
290
     0
  0
SCALE
  5
49
102
{ACAD_REACTORS
330
42
102
}
330
42
100
AcDbScale
 70
     0
300
1/8" = 1'-0"
140
0.125
141
12.0
290
     0
  0
SCALE
  5
4A
102
{ACAD_REACTORS
330
42
102
}
330
42
100
AcDbScale
 70
     0
300
3/16" = 1'-0"
140
0.1875
141
12.0
290
     0
  0
SCALE
  5
4B
102
{ACAD_REACTORS
330
42
102
}
330
42
100
AcDbScale
 70
     0
300
1/4" = 1'-0"
140
0.25
141
12.0
290
     0
  0
SCALE
  5
4C
102
{ACAD_REACTORS
330
42
102
}
330
42
100
AcDbScale
 70
     0
300
3/8" = 1'-0"
140
0.375
141
12.0
290
     0
  0
SCALE
  5
4D
102
{ACAD_REACTORS
330
42
102
}
330
42
100
AcDbScale
 70
     0
300
1/2" = 1'-0"
140
0.5
141
12.0
290
     0
  0
SCALE
  5
4E
102
{ACAD_REACTORS
330
42
102
}
330
42
100
AcDbScale
 70
     0
300
3/4" = 1'-0"
140
0.75
141
12.0
290
     0
  0
SCALE
  5
4F
102
{ACAD_REACTORS
330
42
102
}
330
42
100
AcDbScale
 70
     0
300
1" = 1'-0"
140
1.0
141
12.0
290
     0
  0
SCALE
  5
50
102
{ACAD_REACTORS
330
42
102
}
330
42
100
AcDbScale
 70
     0
300
1-1/2" = 1'-0"
140
1.5
141
12.0
290
     0
  0
SCALE
  5
51
102
{ACAD_REACTORS
330
42
102
}
330
42
100
AcDbScale
 70
     0
300
3" = 1'-0"
140
3.0
141
12.0
290
     0
  0
SCALE
  5
52
102
{ACAD_REACTORS
330
42
102
}
330
42
100
AcDbScale
 70
     0
300
6" = 1'-0"
140
6.0
141
12.0
290
     0
  0
SCALE
  5
53
102
{ACAD_REACTORS
330
42
102
}
330
42
100
AcDbScale
 70
     0
300
1'-0" = 1'-0"
140
12.0
141
12.0
290
     0
  0
ACDBSECTIONVIEWSTYLE
  5
69
102
{ACAD_REACTORS
330
68
102
}
330
68
100
AcDbModelDocViewStyle
 70
     0
  3
Imperial24
290
     1
300
Imperial24
 90
        0
100
AcDbSectionViewStyle
 70
     0
 71
     0
 90
       78
 71
     1
340
55
 62
   256
 40
0.24
340
0
340
0
 62
   256
 40
0.24
300
I, O, Q, S, X, Z
 40
0.48
 90
        3
 40
0.18
 90
        1
 71
     2
340
5D
 90
       25
 62
   256
340
5D
 90
       50
 62
   256
 40
0.24
 40
0.0
 40
0.24
 71
     3
340
55
 62
   256
 40
0.24
 90
        1
 40
0.75
 90
        1
300
%<\AcVar ViewType \f "%tc1">% %<\AcVar ViewSectionStartId>%-%<\AcVar ViewSectionEndId>%\PSCALE %<\AcVar ViewScale \f "%sn">%
 71
     4
 62
   256
 62
   257
300
ANSI31
 40
1.0
 90
        0
290
     0
290
     0
 90
        6
 40
0.0
 40
1.570796326794896
 40
0.2617993877991494
 40
1.308996938995747
 40
-0.2617993877991494
 40
1.832595714594046
  0
TABLESTYLE
  5
65
102
{ACAD_XDICTIONARY
360
201
102
}
102
{ACAD_REACTORS
330
64
102
}
330
64
100
AcDbTableStyle
280
     0
  3
Standard
 70
     0
 71
     0
 40
0.06
 41
0.06
280
     0
281
     0
  7
Standard
140
0.18
170
     2
 62
     0
 63
     7
283
     0
 90
      512
 91
        0
  1

274
    -2
284
     1
 64
     0
275
    -2
285
     1
 65
     0
276
    -2
286
     1
 66
     0
277
    -2
287
     1
 67
     0
278
    -2
288
     1
 68
     0
279
    -2
289
     1
 69
     0
  7
Standard
140
0.25
170
     5
 62
     0
 63
     7
283
     0
 90
      512
 91
        0
  1

274
    -2
284
     1
 64
     0
275
    -2
285
     1
 65
     0
276
    -2
286
     1
 66
     0
277
    -2
287
     1
 67
     0
278
    -2
288
     1
 68
     0
279
    -2
289
     1
 69
     0
  7
Standard
140
0.18
170
     5
 62
     0
 63
     7
283
     0
 90
      512
 91
        0
  1

274
    -2
284
     1
 64
     0
275
    -2
285
     1
 65
     0
276
    -2
286
     1
 66
     0
277
    -2
287
     1
 67
     0
278
    -2
288
     1
 68
     0
279
    -2
289
     1
 69
     0
  0
VISUALSTYLE
  5
2F
102
{ACAD_REACTORS
330
29
102
}
330
29
100
AcDbVisualStyle
  2
2dWireframe
 70
     4
177
     3
291
     0
 70
    58
 90
        0
176
     1
 90
        2
176
     1
 90
        0
176
     1
 90
        0
176
     1
 40
0.6
176
     1
 40
30.0
176
     1
 62
     7
420
 16777215
176
     1
 90
        1
176
     1
 90
        4
176
     1
 62
     7
176
     1
 62
   257
176
     1
 90
        1
176
     1
 90
        1
176
     1
 40
1.0
176
     1
 90
        0
176
     1
 62
   257
176
     1
 40
1.0
176
     1
 90
        1
176
     1
 90
        6
176
     1
 90
        2
176
     1
 62
     7
176
     1
 90
        5
176
     1
 90
        0
176
     1
 90
        0
176
     1
290
     0
176
     1
 90
        1
176
     1
 40
0.0
176
     1
 90
        0
176
     1
290
     1
176
     1
290
     1
176
     1
290
     0
176
     1
290
     0
176
     1
290
     0
176
     1
290
     0
176
     1
290
     0
176
     1
290
     0
176
     1
290
     0
176
     1
 90
       50
176
     1
 40
0.0
176
     1
 40
1.0
176
     1
 90
        0
176
     1
 62
    18
420
        0
176
     1
 90
       50
176
     1
 90
        3
176
     1
 62
     5
420
      255
176
     1
290
     0
176
     1
 90
       50
176
     1
 90
       50
176
     1
 90
       50
176
     1
290
     0
176
     1
 90
       50
176
     1
 62
   256
176
     0
 40
1.0
176
     0
 90
        2
176
     1
  1
strokes_ogs.tif
176
     1
290
     0
176
     1
 40
1.0
176
     1
 40
1.0
176
     1
  0
VISUALSTYLE
  5
2E
102
{ACAD_REACTORS
330
29
102
}
330
29
100
AcDbVisualStyle
  2
Basic
 70
     7
177
     3
291
     1
 70
    58
 90
        1
176
     1
 90
        0
176
     1
 90
        1
176
     1
 90
        0
176
     1
 40
0.6
176
     1
 40
30.0
176
     1
 62
     7
420
 16777215
176
     1
 90
        0
176
     1
 90
        4
176
     1
 62
     7
176
     1
 62
   257
176
     1
 90
        1
176
     1
 90
        1
176
     1
 40
1.0
176
     1
 90
        8
176
     1
 62
     7
176
     1
 40
1.0
176
     1
 90
        1
176
     1
 90
        6
176
     1
 90
        2
176
     1
 62
     7
176
     1
 90
        5
176
     1
 90
        0
176
     1
 90
        0
176
     1
290
     0
176
     1
 90
        1
176
     1
 40
0.0
176
     1
 90
        0
176
     1
290
     0
176
     1
290
     1
176
     1
290
     1
176
     1
290
     0
176
     1
290
     0
176
     1
290
     0
176
     1
290
     0
176
     1
290
     0
176
     1
290
     0
176
     1
 90
       50
176
     1
 40
0.0
176
     1
 40
1.0
176
     1
 90
        0
176
     1
 62
    18
420
        0
176
     1
 90
       50
176
     1
 90
        3
176
     1
 62
     5
420
      255
176
     1
290
     0
176
     1
 90
       50
176
     1
 90
       50
176
     1
 90
       50
176
     1
290
     0
176
     1
 90
       50
176
     1
 62
   256
176
     0
 40
1.0
176
     0
 90
        2
176
     1
  1
strokes_ogs.tif
176
     1
290
     0
176
     1
 40
1.0
176
     1
 40
1.0
176
     1
  0
VISUALSTYLE
  5
35
102
{ACAD_REACTORS
330
29
102
}
330
29
100
AcDbVisualStyle
  2
Brighten
 70
    12
177
     3
291
     1
 70
    58
 90
        2
176
     1
 90
        2
176
     1
 90
        0
176
     1
 90
        0
176
     1
 40
0.6
176
     1
 40
30.0
176
     1
 62
     7
420
 16777215
176
     1
 90
        1
176
     1
 90
        4
176
     1
 62
     7
176
     1
 62
   257
176
     1
 90
        1
176
     1
 90
        1
176
     1
 40
1.0
176
     1
 90
        8
176
     1
 62
     7
176
     1
 40
1.0
176
     1
 90
        1
176
     1
 90
        6
176
     1
 90
        2
176
     1
 62
     7
176
     1
 90
        5
176
     1
 90
        0
176
     1
 90
        0
176
     1
290
     0
176
     1
 90
        1
176
     1
 40
50.0
176
     1
 90
        0
176
     1
290
     0
176
     1
290
     1
176
     1
290
     1
176
     1
290
     0
176
     1
290
     0
176
     1
290
     0
176
     1
290
     0
176
     1
290
     0
176
     1
290
     0
176
     1
 90
       50
176
     1
 40
0.0
176
     1
 40
1.0
176
     1
 90
        0
176
     1
 62
    18
420
        0
176
     1
 90
       50
176
     1
 90
        3
176
     1
 62
     5
420
      255
176
     1
290
     0
176
     1
 90
       50
176
     1
 90
       50
176
     1
 90
       50
176
     1
290
     0
176
     1
 90
       50
176
     1
 62
   256
176
     0
 40
1.0
176
     0
 90
        2
176
     1
  1
strokes_ogs.tif
176
     1
290
     0
176
     1
 40
1.0
176
     1
 40
1.0
176
     1
  0
VISUALSTYLE
  5
39
102
{ACAD_REACTORS
330
29
102
}
330
29
100
AcDbVisualStyle
  2
ColorChange
 70
    16
177
     3
291
     1
 70
    58
 90
        2
176
     1
 90
        2
176
     1
 90
        3
176
     1
 90
        0
176
     1
 40
0.6
176
     1
 40
30.0
176
     1
 62
     8
420
  8421504
176
     1
 90
        1
176
     1
 90
        4
176
     1
 62
     7
176
     1
 62
   257
176
     1
 90
        1
176
     1
 90
        1
176
     1
 40
1.0
176
     1
 90
        8
176
     1
 62
     8
420
  8421504
176
     1
 40
1.0
176
     1
 90
        1
176
     1
 90
        6
176
     1
 90
        2
176
     1
 62
     7
176
     1
 90
        5
176
     1
 90
        0
176
     1
 90
        0
176
     1
290
     0
176
     1
 90
        1
176
     1
 40
0.0
176
     1
 90
        0
176
     1
290
     0
176
     1
290
     1
176
     1
290
     1
176
     1
290
     0
176
     1
290
     0
176
     1
290
     0
176
     1
290
     0
176
     1
290
     0
176
     1
290
     0
176
     1
 90
       50
176
     1
 40
0.0
176
     1
 40
1.0
176
     1
 90
        0
176
     1
 62
    18
420
        0
176
     1
 90
       50
176
     1
 90
        3
176
     1
 62
     5
420
      255
176
     1
290
     0
176
     1
 90
       50
176
     1
 90
       50
176
     1
 90
       50
176
     1
290
     0
176
     1
 90
       50
176
     1
 62
   256
176
     0
 40
1.0
176
     0
 90
        2
176
     1
  1
strokes_ogs.tif
176
     1
290
     0
176
     1
 40
1.0
176
     1
 40
1.0
176
     1
  0
VISUALSTYLE
  5
32
102
{ACAD_REACTORS
330
29
102
}
330
29
100
AcDbVisualStyle
  2
Conceptual
 70
     9
177
     3
291
     0
 70
    58
 90
        3
176
     1
 90
        2
176
     1
 90
        0
176
     1
 90
        0
176
     1
 40
0.6
176
     1
 40
30.0
176
     1
 62
     7
420
 16777215
176
     1
 90
        2
176
     1
 90
        2
176
     1
 62
     7
176
     1
 62
   257
176
     1
 90
        1
176
     1
 90
        1
176
     1
 40
179.0
176
     1
 90
        8
176
     1
 62
     7
176
     1
 40
1.0
176
     1
 90
        1
176
     1
 90
        6
176
     1
 90
        2
176
     1
 62
     7
176
     1
 90
        3
176
     1
 90
        0
176
     1
 90
        0
176
     1
290
     0
176
     1
 90
        1
176
     1
 40
0.0
176
     1
 90
        0
176
     1
290
     0
176
     1
290
     1
176
     1
290
     1
176
     1
290
     0
176
     1
290
     0
176
     1
290
     0
176
     1
290
     0
176
     1
290
     0
176
     1
290
     0
176
     1
 90
       50
176
     1
 40
0.0
176
     1
 40
1.0
176
     1
 90
        0
176
     1
 62
    18
420
        0
176
     1
 90
       50
176
     1
 90
        3
176
     1
 62
     5
420
      255
176
     1
290
     0
176
     1
 90
       50
176
     1
 90
       50
176
     1
 90
       50
176
     1
290
     0
176
     1
 90
       50
176
     1
 62
   256
176
     0
 40
1.0
176
     0
 90
        2
176
     1
  1
strokes_ogs.tif
176
     1
290
     0
176
     1
 40
1.0
176
     1
 40
1.0
176
     1
  0
VISUALSTYLE
  5
34
102
{ACAD_REACTORS
330
29
102
}
330
29
100
AcDbVisualStyle
  2
Dim
 70
    11
177
     3
291
     1
 70
    58
 90
        2
176
     1
 90
        2
176
     1
 90
        0
176
     1
 90
        0
176
     1
 40
0.6
176
     1
 40
30.0
176
     1
 62
     7
420
 16777215
176
     1
 90
        1
176
     1
 90
        4
176
     1
 62
     7
176
     1
 62
   257
176
     1
 90
        1
176
     1
 90
        1
176
     1
 40
1.0
176
     1
 90
        8
176
     1
 62
     7
176
     1
 40
1.0
176
     1
 90
        1
176
     1
 90
        6
176
     1
 90
        2
176
     1
 62
     7
176
     1
 90
        5
176
     1
 90
        0
176
     1
 90
        0
176
     1
290
     0
176
     1
 90
        1
176
     1
 40
-50.0
176
     1
 90
        0
176
     1
290
     0
176
     1
290
     1
176
     1
290
     1
176
     1
290
     0
176
     1
290
     0
176
     1
290
     0
176
     1
290
     0
176
     1
290
     0
176
     1
290
     0
176
     1
 90
       50
176
     1
 40
0.0
176
     1
 40
1.0
176
     1
 90
        0
176
     1
 62
    18
420
        0
176
     1
 90
       50
176
     1
 90
        3
176
     1
 62
     5
420
      255
176
     1
290
     0
176
     1
 90
       50
176
     1
 90
       50
176
     1
 90
       50
176
     1
290
     0
176
     1
 90
       50
176
     1
 62
   256
176
     0
 40
1.0
176
     0
 90
        2
176
     1
  1
strokes_ogs.tif
176
     1
290
     0
176
     1
 40
1.0
176
     1
 40
1.0
176
     1
  0
VISUALSTYLE
  5
41
102
{ACAD_REACTORS
330
29
102
}
330
29
100
AcDbVisualStyle
  2
EdgeColorOff
 70
    22
177
     3
291
     1
 70
    58
 90
        2
176
     0
 90
        2
176
     0
 90
        0
176
     0
 90
        0
176
     0
 40
0.6
176
     0
 40
30.0
176
     0
 62
     7
420
 16777215
176
     0
 90
        1
176
     0
 90
        4
176
     0
 62
     7
176
     0
 62
   257
176
     0
 90
        1
176
     0
 90
        1
176
     0
 40
1.0
176
     0
 90
        8
176
     2
 62
     7
176
     0
 40
1.0
176
     0
 90
        1
176
     0
 90
        6
176
     0
 90
        2
176
     0
 62
     7
176
     0
 90
        5
176
     0
 90
        0
176
     0
 90
        0
176
     0
290
     0
176
     0
 90
        1
176
     0
 40
0.0
176
     0
 90
        0
176
     0
290
     0
176
     0
290
     1
176
     0
290
     1
176
     0
290
     0
176
     0
290
     0
176
     0
290
     0
176
     0
290
     0
176
     0
290
     0
176
     0
290
     0
176
     0
 90
       50
176
     0
 40
0.0
176
     0
 40
1.0
176
     0
 90
        0
176
     0
 62
    18
420
        0
176
     0
 90
       50
176
     0
 90
        3
176
     0
 62
     5
420
      255
176
     0
290
     0
176
     0
 90
       50
176
     0
 90
       50
176
     0
 90
       50
176
     0
290
     0
176
     0
 90
       50
176
     0
 62
   256
176
     0
 40
1.0
176
     0
 90
        2
176
     0
  1
strokes_ogs.tif
176
     0
290
     0
176
     0
 40
1.0
176
     0
 40
1.0
176
     0
  0
VISUALSTYLE
  5
38
102
{ACAD_REACTORS
330
29
102
}
330
29
100
AcDbVisualStyle
  2
Facepattern
 70
    15
177
     3
291
     1
 70
    58
 90
        2
176
     1
 90
        2
176
     1
 90
        0
176
     1
 90
        0
176
     1
 40
0.6
176
     1
 40
30.0
176
     1
 62
     7
420
 16777215
176
     1
 90
        1
176
     1
 90
        4
176
     1
 62
     7
176
     1
 62
   257
176
     1
 90
        1
176
     1
 90
        1
176
     1
 40
1.0
176
     1
 90
        8
176
     1
 62
     7
176
     1
 40
1.0
176
     1
 90
        1
176
     1
 90
        6
176
     1
 90
        2
176
     1
 62
     7
176
     1
 90
        5
176
     1
 90
        0
176
     1
 90
        0
176
     1
290
     0
176
     1
 90
        1
176
     1
 40
0.0
176
     1
 90
        0
176
     1
290
     0
176
     1
290
     1
176
     1
290
     1
176
     1
290
     0
176
     1
290
     0
176
     1
290
     0
176
     1
290
     0
176
     1
290
     0
176
     1
290
     0
176
     1
 90
       50
176
     1
 40
0.0
176
     1
 40
1.0
176
     1
 90
        0
176
     1
 62
    18
420
        0
176
     1
 90
       50
176
     1
 90
        3
176
     1
 62
     5
420
      255
176
     1
290
     0
176
     1
 90
       50
176
     1
 90
       50
176
     1
 90
       50
176
     1
290
     0
176
     1
 90
       50
176
     1
 62
   256
176
     0
 40
1.0
176
     0
 90
        2
176
     1
  1
strokes_ogs.tif
176
     1
290
     0
176
     1
 40
1.0
176
     1
 40
1.0
176
     1
  0
VISUALSTYLE
  5
2A
102
{ACAD_REACTORS
330
29
102
}
330
29
100
AcDbVisualStyle
  2
Flat
 70
     0
177
     3
291
     1
 70
    58
 90
        2
176
     1
 90
        1
176
     1
 90
        1
176
     1
 90
        2
176
     1
 40
0.6
176
     1
 40
30.0
176
     1
 62
     7
420
 16777215
176
     1
 90
        0
176
     1
 90
        0
176
     1
 62
     7
176
     1
 62
   257
176
     1
 90
        1
176
     1
 90
        1
176
     1
 40
1.0
176
     1
 90
        8
176
     1
 62
     7
176
     1
 40
1.0
176
     1
 90
        1
176
     1
 90
        6
176
     1
 90
        2
176
     1
 62
     7
176
     1
 90
        5
176
     1
 90
        0
176
     1
 90
        0
176
     1
290
     0
176
     1
 90
       13
176
     1
 40
0.0
176
     1
 90
        0
176
     1
290
     0
176
     1
290
     1
176
     1
290
     1
176
     1
290
     0
176
     1
290
     0
176
     1
290
     0
176
     1
290
     0
176
     1
290
     0
176
     1
290
     0
176
     1
 90
       50
176
     1
 40
0.0
176
     1
 40
1.0
176
     1
 90
        0
176
     1
 62
    18
420
        0
176
     1
 90
       50
176
     1
 90
        3
176
     1
 62
     5
420
      255
176
     1
290
     0
176
     1
 90
       50
176
     1
 90
       50
176
     1
 90
       50
176
     1
290
     0
176
     1
 90
       50
176
     1
 62
   256
176
     0
 40
1.0
176
     0
 90
        2
176
     1
  1
strokes_ogs.tif
176
     1
290
     0
176
     1
 40
1.0
176
     1
 40
1.0
176
     1
  0
VISUALSTYLE
  5
2B
102
{ACAD_REACTORS
330
29
102
}
330
29
100
AcDbVisualStyle
  2
FlatWithEdges
 70
     1
177
     3
291
     1
 70
    58
 90
        2
176
     1
 90
        1
176
     1
 90
        1
176
     1
 90
        2
176
     1
 40
0.6
176
     1
 40
30.0
176
     1
 62
     7
420
 16777215
176
     1
 90
        1
176
     1
 90
        0
176
     1
 62
     7
176
     1
 62
   257
176
     1
 90
        1
176
     1
 90
        1
176
     1
 40
1.0
176
     1
 90
        0
176
     1
 62
   257
176
     1
 40
1.0
176
     1
 90
        1
176
     1
 90
        6
176
     1
 90
        2
176
     1
 62
     7
176
     1
 90
        5
176
     1
 90
        0
176
     1
 90
        0
176
     1
290
     0
176
     1
 90
       13
176
     1
 40
0.0
176
     1
 90
        0
176
     1
290
     0
176
     1
290
     1
176
     1
290
     1
176
     1
290
     0
176
     1
290
     0
176
     1
290
     0
176
     1
290
     0
176
     1
290
     0
176
     1
290
     0
176
     1
 90
       50
176
     1
 40
0.0
176
     1
 40
1.0
176
     1
 90
        0
176
     1
 62
    18
420
        0
176
     1
 90
       50
176
     1
 90
        3
176
     1
 62
     5
420
      255
176
     1
290
     0
176
     1
 90
       50
176
     1
 90
       50
176
     1
 90
       50
176
     1
290
     0
176
     1
 90
       50
176
     1
 62
   256
176
     0
 40
1.0
176
     0
 90
        2
176
     1
  1
strokes_ogs.tif
176
     1
290
     0
176
     1
 40
1.0
176
     1
 40
1.0
176
     1
  0
VISUALSTYLE
  5
2C
102
{ACAD_REACTORS
330
29
102
}
330
29
100
AcDbVisualStyle
  2
Gouraud
 70
     2
177
     3
291
     1
 70
    58
 90
        2
176
     1
 90
        2
176
     1
 90
        1
176
     1
 90
        2
176
     1
 40
0.6
176
     1
 40
30.0
176
     1
 62
     7
420
 16777215
176
     1
 90
        0
176
     1
 90
        0
176
     1
 62
     7
176
     1
 62
   257
176
     1
 90
        1
176
     1
 90
        1
176
     1
 40
1.0
176
     1
 90
        0
176
     1
 62
     7
176
     1
 40
1.0
176
     1
 90
        1
176
     1
 90
        6
176
     1
 90
        2
176
     1
 62
     7
176
     1
 90
        5
176
     1
 90
        0
176
     1
 90
        0
176
     1
290
     0
176
     1
 90
       13
176
     1
 40
0.0
176
     1
 90
        0
176
     1
290
     0
176
     1
290
     1
176
     1
290
     1
176
     1
290
     0
176
     1
290
     0
176
     1
290
     0
176
     1
290
     0
176
     1
290
     0
176
     1
290
     0
176
     1
 90
       50
176
     1
 40
0.0
176
     1
 40
1.0
176
     1
 90
        0
176
     1
 62
    18
420
        0
176
     1
 90
       50
176
     1
 90
        3
176
     1
 62
     5
420
      255
176
     1
290
     0
176
     1
 90
       50
176
     1
 90
       50
176
     1
 90
       50
176
     1
290
     0
176
     1
 90
       50
176
     1
 62
   256
176
     0
 40
1.0
176
     0
 90
        2
176
     1
  1
strokes_ogs.tif
176
     1
290
     0
176
     1
 40
1.0
176
     1
 40
1.0
176
     1
  0
VISUALSTYLE
  5
2D
102
{ACAD_REACTORS
330
29
102
}
330
29
100
AcDbVisualStyle
  2
GouraudWithEdges
 70
     3
177
     3
291
     1
 70
    58
 90
        2
176
     1
 90
        2
176
     1
 90
        1
176
     1
 90
        2
176
     1
 40
0.6
176
     1
 40
30.0
176
     1
 62
     7
420
 16777215
176
     1
 90
        1
176
     1
 90
        0
176
     1
 62
     7
176
     1
 62
   257
176
     1
 90
        1
176
     1
 90
        1
176
     1
 40
1.0
176
     1
 90
        0
176
     1
 62
   257
176
     1
 40
1.0
176
     1
 90
        1
176
     1
 90
        6
176
     1
 90
        2
176
     1
 62
     7
176
     1
 90
        5
176
     1
 90
        0
176
     1
 90
        0
176
     1
290
     0
176
     1
 90
       13
176
     1
 40
0.0
176
     1
 90
        0
176
     1
290
     0
176
     1
290
     1
176
     1
290
     1
176
     1
290
     0
176
     1
290
     0
176
     1
290
     0
176
     1
290
     0
176
     1
290
     0
176
     1
290
     0
176
     1
 90
       50
176
     1
 40
0.0
176
     1
 40
1.0
176
     1
 90
        0
176
     1
 62
    18
420
        0
176
     1
 90
       50
176
     1
 90
        3
176
     1
 62
     5
420
      255
176
     1
290
     0
176
     1
 90
       50
176
     1
 90
       50
176
     1
 90
       50
176
     1
290
     0
176
     1
 90
       50
176
     1
 62
   256
176
     0
 40
1.0
176
     0
 90
        2
176
     1
  1
strokes_ogs.tif
176
     1
290
     0
176
     1
 40
1.0
176
     1
 40
1.0
176
     1
  0
VISUALSTYLE
  5
31
102
{ACAD_REACTORS
330
29
102
}
330
29
100
AcDbVisualStyle
  2
Hidden
 70
     6
177
     3
291
     0
 70
    58
 90
        1
176
     1
 90
        2
176
     1
 90
        2
176
     1
 90
        0
176
     1
 40
0.6
176
     1
 40
30.0
176
     1
 62
     7
420
 16777215
176
     1
 90
        2
176
     1
 90
        2
176
     1
 62
     7
176
     1
 62
   257
176
     1
 90
        2
176
     1
 90
        1
176
     1
 40
40.0
176
     1
 90
        0
176
     1
 62
   257
176
     1
 40
1.0
176
     1
 90
        1
176
     1
 90
        6
176
     1
 90
        2
176
     1
 62
     7
176
     1
 90
        3
176
     1
 90
        0
176
     1
 90
        0
176
     1
290
     0
176
     1
 90
        1
176
     1
 40
0.0
176
     1
 90
        0
176
     1
290
     0
176
     1
290
     1
176
     1
290
     1
176
     1
290
     0
176
     1
290
     0
176
     1
290
     0
176
     1
290
     0
176
     1
290
     0
176
     1
290
     0
176
     1
 90
       50
176
     1
 40
0.0
176
     1
 40
1.0
176
     1
 90
        0
176
     1
 62
    18
420
        0
176
     1
 90
       50
176
     1
 90
        3
176
     1
 62
     5
420
      255
176
     1
290
     0
176
     1
 90
       50
176
     1
 90
       50
176
     1
 90
       50
176
     1
290
     0
176
     1
 90
       50
176
     1
 62
   256
176
     0
 40
1.0
176
     0
 90
        2
176
     1
  1
strokes_ogs.tif
176
     1
290
     0
176
     1
 40
1.0
176
     1
 40
1.0
176
     1
  0
VISUALSTYLE
  5
3F
102
{ACAD_REACTORS
330
29
102
}
330
29
100
AcDbVisualStyle
  2
JitterOff
 70
    20
177
     3
291
     1
 70
    58
 90
        2
176
     0
 90
        2
176
     0
 90
        0
176
     0
 90
        0
176
     0
 40
0.6
176
     0
 40
30.0
176
     0
 62
     7
420
 16777215
176
     0
 90
        1
176
     0
 90
        4
176
     0
 62
     7
176
     0
 62
   257
176
     0
 90
        1
176
     0
 90
        1
176
     0
 40
1.0
176
     0
 90
       10
176
     2
 62
     7
176
     0
 40
1.0
176
     0
 90
        1
176
     0
 90
        6
176
     0
 90
        2
176
     0
 62
     7
176
     0
 90
        5
176
     0
 90
        0
176
     0
 90
        0
176
     0
290
     0
176
     0
 90
        1
176
     0
 40
0.0
176
     0
 90
        0
176
     0
290
     0
176
     0
290
     1
176
     0
290
     1
176
     0
290
     0
176
     0
290
     0
176
     0
290
     0
176
     0
290
     0
176
     0
290
     0
176
     0
290
     0
176
     0
 90
       50
176
     0
 40
0.0
176
     0
 40
1.0
176
     0
 90
        0
176
     0
 62
    18
420
        0
176
     0
 90
       50
176
     0
 90
        3
176
     0
 62
     5
420
      255
176
     0
290
     0
176
     0
 90
       50
176
     0
 90
       50
176
     0
 90
       50
176
     0
290
     0
176
     0
 90
       50
176
     0
 62
   256
176
     0
 40
1.0
176
     0
 90
        2
176
     0
  1
strokes_ogs.tif
176
     0
290
     0
176
     0
 40
1.0
176
     0
 40
1.0
176
     0
  0
VISUALSTYLE
  5
37
102
{ACAD_REACTORS
330
29
102
}
330
29
100
AcDbVisualStyle
  2
Linepattern
 70
    14
177
     3
291
     1
 70
    58
 90
        2
176
     1
 90
        2
176
     1
 90
        0
176
     1
 90
        0
176
     1
 40
0.6
176
     1
 40
30.0
176
     1
 62
     7
420
 16777215
176
     1
 90
        1
176
     1
 90
        4
176
     1
 62
     7
176
     1
 62
   257
176
     1
 90
        7
176
     1
 90
        7
176
     1
 40
1.0
176
     1
 90
        8
176
     1
 62
     7
176
     1
 40
1.0
176
     1
 90
        1
176
     1
 90
        6
176
     1
 90
        2
176
     1
 62
     7
176
     1
 90
        5
176
     1
 90
        0
176
     1
 90
        0
176
     1
290
     0
176
     1
 90
        1
176
     1
 40
0.0
176
     1
 90
        0
176
     1
290
     0
176
     1
290
     1
176
     1
290
     1
176
     1
290
     0
176
     1
290
     0
176
     1
290
     0
176
     1
290
     0
176
     1
290
     0
176
     1
290
     0
176
     1
 90
       50
176
     1
 40
0.0
176
     1
 40
1.0
176
     1
 90
        0
176
     1
 62
    18
420
        0
176
     1
 90
       50
176
     1
 90
        3
176
     1
 62
     5
420
      255
176
     1
290
     0
176
     1
 90
       50
176
     1
 90
       50
176
     1
 90
       50
176
     1
290
     0
176
     1
 90
       50
176
     1
 62
   256
176
     0
 40
1.0
176
     0
 90
        2
176
     1
  1
strokes_ogs.tif
176
     1
290
     0
176
     1
 40
1.0
176
     1
 40
1.0
176
     1
  0
VISUALSTYLE
  5
40
102
{ACAD_REACTORS
330
29
102
}
330
29
100
AcDbVisualStyle
  2
OverhangOff
 70
    21
177
     3
291
     1
 70
    58
 90
        2
176
     0
 90
        2
176
     0
 90
        0
176
     0
 90
        0
176
     0
 40
0.6
176
     0
 40
30.0
176
     0
 62
     7
420
 16777215
176
     0
 90
        1
176
     0
 90
        4
176
     0
 62
     7
176
     0
 62
   257
176
     0
 90
        1
176
     0
 90
        1
176
     0
 40
1.0
176
     0
 90
        9
176
     2
 62
     7
176
     0
 40
1.0
176
     0
 90
        1
176
     0
 90
        6
176
     0
 90
        2
176
     0
 62
     7
176
     0
 90
        5
176
     0
 90
        0
176
     0
 90
        0
176
     0
290
     0
176
     0
 90
        1
176
     0
 40
0.0
176
     0
 90
        0
176
     0
290
     0
176
     0
290
     1
176
     0
290
     1
176
     0
290
     0
176
     0
290
     0
176
     0
290
     0
176
     0
290
     0
176
     0
290
     0
176
     0
290
     0
176
     0
 90
       50
176
     0
 40
0.0
176
     0
 40
1.0
176
     0
 90
        0
176
     0
 62
    18
420
        0
176
     0
 90
       50
176
     0
 90
        3
176
     0
 62
     5
420
      255
176
     0
290
     0
176
     0
 90
       50
176
     0
 90
       50
176
     0
 90
       50
176
     0
290
     0
176
     0
 90
       50
176
     0
 62
   256
176
     0
 40
1.0
176
     0
 90
        2
176
     0
  1
strokes_ogs.tif
176
     0
290
     0
176
     0
 40
1.0
176
     0
 40
1.0
176
     0
  0
VISUALSTYLE
  5
33
102
{ACAD_REACTORS
330
29
102
}
330
29
100
AcDbVisualStyle
  2
Realistic
 70
     8
177
     3
291
     0
 70
    58
 90
        2
176
     1
 90
        3
176
     1
 90
        0
176
     1
 90
        2
176
     1
 40
0.6
176
     1
 40
30.0
176
     1
 62
     7
420
 16777215
176
     1
 90
        0
176
     1
 90
        0
176
     1
 62
     7
176
     1
 62
   257
176
     1
 90
        1
176
     1
 90
        1
176
     1
 40
1.0
176
     1
 90
        8
176
     1
 62
   257
176
     1
 40
1.0
176
     1
 90
        1
176
     1
 90
        6
176
     1
 90
        2
176
     1
 62
     7
176
     1
 90
        3
176
     1
 90
        0
176
     1
 90
        0
176
     1
290
     0
176
     1
 90
       13
176
     1
 40
0.0
176
     1
 90
        0
176
     1
290
     0
176
     1
290
     1
176
     1
290
     1
176
     1
290
     0
176
     1
290
     0
176
     1
290
     0
176
     1
290
     0
176
     1
290
     0
176
     1
290
     0
176
     1
 90
       50
176
     1
 40
0.0
176
     1
 40
1.0
176
     1
 90
        0
176
     1
 62
    18
420
        0
176
     1
 90
       50
176
     1
 90
        3
176
     1
 62
     5
420
      255
176
     1
290
     0
176
     1
 90
       50
176
     1
 90
       50
176
     1
 90
       50
176
     1
290
     0
176
     1
 90
       50
176
     1
 62
   256
176
     0
 40
1.0
176
     0
 90
        2
176
     1
  1
strokes_ogs.tif
176
     1
290
     0
176
     1
 40
1.0
176
     1
 40
1.0
176
     1
  0
VISUALSTYLE
  5
3E
102
{ACAD_REACTORS
330
29
102
}
330
29
100
AcDbVisualStyle
  2
Shaded
 70
    27
177
     3
291
     0
 70
    58
 90
        2
176
     1
 90
        2
176
     1
 90
        1
176
     1
 90
        2
176
     1
 40
0.6
176
     1
 40
30.0
176
     1
 62
     7
420
 16777215
176
     1
 90
        0
176
     1
 90
        4
176
     1
 62
     7
176
     1
 62
   257
176
     1
 90
        1
176
     1
 90
        1
176
     1
 40
1.0
176
     1
 90
        8
176
     1
 62
   257
176
     1
 40
1.0
176
     1
 90
        1
176
     1
 90
        6
176
     1
 90
        2
176
     1
 62
     8
420
  7895160
176
     1
 90
        3
176
     1
 90
        0
176
     1
 90
        0
176
     1
290
     0
176
     1
 90
        5
176
     1
 40
0.0
176
     1
 90
        0
176
     1
290
     0
176
     1
290
     1
176
     1
290
     1
176
     1
290
     0
176
     1
290
     0
176
     1
290
     0
176
     1
290
     0
176
     1
290
     0
176
     1
290
     0
176
     1
 90
       50
176
     1
 40
0.0
176
     1
 40
1.0
176
     1
 90
        0
176
     1
 62
    18
420
        0
176
     1
 90
       50
176
     1
 90
        3
176
     1
 62
     5
420
      255
176
     1
290
     0
176
     1
 90
       50
176
     1
 90
       50
176
     1
 90
       50
176
     1
290
     0
176
     1
 90
       50
176
     1
 62
   256
176
     0
 40
1.0
176
     0
 90
        2
176
     1
  1
strokes_ogs.tif
176
     1
290
     0
176
     1
 40
1.0
176
     1
 40
1.0
176
     1
  0
VISUALSTYLE
  5
3D
102
{ACAD_REACTORS
330
29
102
}
330
29
100
AcDbVisualStyle
  2
Shaded with edges
 70
    26
177
     3
291
     0
 70
    58
 90
        2
176
     1
 90
        2
176
     1
 90
        1
176
     1
 90
        2
176
     1
 40
0.6
176
     1
 40
30.0
176
     1
 62
     7
420
 16777215
176
     1
 90
        1
176
     1
 90
        2
176
     1
 62
     7
176
     1
 62
   257
176
     1
 90
        2
176
     1
 90
        1
176
     1
 40
1.0
176
     1
 90
        8
176
     1
 62
   257
176
     1
 40
1.0
176
     1
 90
        1
176
     1
 90
        6
176
     1
 90
        2
176
     1
 62
     7
176
     1
 90
        3
176
     1
 90
        0
176
     1
 90
        0
176
     1
290
     0
176
     1
 90
        5
176
     1
 40
0.0
176
     1
 90
        0
176
     1
290
     0
176
     1
290
     1
176
     1
290
     1
176
     1
290
     0
176
     1
290
     0
176
     1
290
     0
176
     1
290
     0
176
     1
290
     0
176
     1
290
     0
176
     1
 90
       50
176
     1
 40
0.0
176
     1
 40
1.0
176
     1
 90
        0
176
     1
 62
    18
420
        0
176
     1
 90
       50
176
     1
 90
        3
176
     1
 62
     5
420
      255
176
     1
290
     0
176
     1
 90
       50
176
     1
 90
       50
176
     1
 90
       50
176
     1
290
     0
176
     1
 90
       50
176
     1
 62
   256
176
     0
 40
1.0
176
     0
 90
        2
176
     1
  1
strokes_ogs.tif
176
     1
290
     0
176
     1
 40
1.0
176
     1
 40
1.0
176
     1
  0
VISUALSTYLE
  5
3A
102
{ACAD_REACTORS
330
29
102
}
330
29
100
AcDbVisualStyle
  2
Shades of Gray
 70
    23
177
     3
291
     0
 70
    58
 90
        2
176
     1
 90
        2
176
     1
 90
        3
176
     1
 90
        0
176
     1
 40
0.6
176
     1
 40
30.0
176
     1
 62
     7
420
 16777215
176
     1
 90
        2
176
     1
 90
        2
176
     1
 62
     7
176
     1
 62
     7
176
     1
 90
        1
176
     1
 90
        1
176
     1
 40
40.0
176
     1
 90
        8
176
     1
 62
     7
176
     1
 40
1.0
176
     1
 90
        1
176
     1
 90
        6
176
     1
 90
        2
176
     1
 62
     7
176
     1
 90
        3
176
     1
 90
        0
176
     1
 90
        0
176
     1
290
     0
176
     1
 90
        1
176
     1
 40
0.0
176
     1
 90
        0
176
     1
290
     0
176
     1
290
     1
176
     1
290
     1
176
     1
290
     0
176
     1
290
     0
176
     1
290
     0
176
     1
290
     0
176
     1
290
     0
176
     1
290
     0
176
     1
 90
       50
176
     1
 40
0.0
176
     1
 40
1.0
176
     1
 90
        0
176
     1
 62
    18
420
        0
176
     1
 90
       50
176
     1
 90
        3
176
     1
 62
     5
420
      255
176
     1
290
     0
176
     1
 90
       50
176
     1
 90
       50
176
     1
 90
       50
176
     1
290
     0
176
     1
 90
       50
176
     1
 62
   256
176
     0
 40
1.0
176
     0
 90
        2
176
     1
  1
strokes_ogs.tif
176
     1
290
     0
176
     1
 40
1.0
176
     1
 40
1.0
176
     1
  0
VISUALSTYLE
  5
3B
102
{ACAD_REACTORS
330
29
102
}
330
29
100
AcDbVisualStyle
  2
Sketchy
 70
    24
177
     3
291
     0
 70
    58
 90
        1
176
     1
 90
        2
176
     1
 90
        2
176
     1
 90
        0
176
     1
 40
0.6
176
     1
 40
30.0
176
     1
 62
     7
420
 16777215
176
     1
 90
        2
176
     1
 90
        2
176
     1
 62
     7
176
     1
 62
     7
176
     1
 90
        1
176
     1
 90
        1
176
     1
 40
40.0
176
     1
 90
       11
176
     1
 62
     7
176
     1
 40
1.0
176
     1
 90
        1
176
     1
 90
        6
176
     1
 90
        2
176
     1
 62
     7
176
     1
 90
        6
176
     1
 90
        0
176
     1
 90
        0
176
     1
290
     0
176
     1
 90
        1
176
     1
 40
0.0
176
     1
 90
        0
176
     1
290
     0
176
     1
290
     1
176
     1
290
     1
176
     1
290
     0
176
     1
290
     0
176
     1
290
     0
176
     1
290
     0
176
     1
290
     0
176
     1
290
     0
176
     1
 90
       50
176
     1
 40
0.0
176
     1
 40
1.0
176
     1
 90
        0
176
     1
 62
    18
420
        0
176
     1
 90
       50
176
     1
 90
        3
176
     1
 62
     5
420
      255
176
     1
290
     0
176
     1
 90
       50
176
     1
 90
       50
176
     1
 90
       50
176
     1
290
     0
176
     1
 90
       50
176
     1
 62
   256
176
     0
 40
1.0
176
     0
 90
        2
176
     1
  1
strokes_ogs.tif
176
     1
290
     0
176
     1
 40
1.0
176
     1
 40
1.0
176
     1
  0
VISUALSTYLE
  5
36
102
{ACAD_REACTORS
330
29
102
}
330
29
100
AcDbVisualStyle
  2
Thicken
 70
    13
177
     3
291
     1
 70
    58
 90
        2
176
     1
 90
        2
176
     1
 90
        0
176
     1
 90
        0
176
     1
 40
0.6
176
     1
 40
30.0
176
     1
 62
     7
420
 16777215
176
     1
 90
        1
176
     1
 90
        4
176
     1
 62
     7
176
     1
 62
   257
176
     1
 90
        1
176
     1
 90
        1
176
     1
 40
1.0
176
     1
 90
       12
176
     1
 62
     7
176
     1
 40
1.0
176
     1
 90
        1
176
     1
 90
        6
176
     1
 90
        2
176
     1
 62
     7
176
     1
 90
        5
176
     1
 90
        0
176
     1
 90
        0
176
     1
290
     0
176
     1
 90
        1
176
     1
 40
0.0
176
     1
 90
        0
176
     1
290
     0
176
     1
290
     1
176
     1
290
     1
176
     1
290
     0
176
     1
290
     0
176
     1
290
     0
176
     1
290
     0
176
     1
290
     0
176
     1
290
     0
176
     1
 90
       50
176
     1
 40
0.0
176
     1
 40
1.0
176
     1
 90
        0
176
     1
 62
    18
420
        0
176
     1
 90
       50
176
     1
 90
        3
176
     1
 62
     5
420
      255
176
     1
290
     0
176
     1
 90
       50
176
     1
 90
       50
176
     1
 90
       50
176
     1
290
     0
176
     1
 90
       50
176
     1
 62
   256
176
     0
 40
1.0
176
     0
 90
        2
176
     1
  1
strokes_ogs.tif
176
     1
290
     0
176
     1
 40
1.0
176
     1
 40
1.0
176
     1
  0
VISUALSTYLE
  5
30
102
{ACAD_REACTORS
330
29
102
}
330
29
100
AcDbVisualStyle
  2
Wireframe
 70
     5
177
     3
291
     0
 70
    58
 90
        0
176
     1
 90
        2
176
     1
 90
        0
176
     1
 90
        0
176
     1
 40
0.6
176
     1
 40
30.0
176
     1
 62
     7
420
 16777215
176
     1
 90
        1
176
     1
 90
        4
176
     1
 62
     7
176
     1
 62
   257
176
     1
 90
        1
176
     1
 90
        1
176
     1
 40
1.0
176
     1
 90
        0
176
     1
 62
   257
176
     1
 40
1.0
176
     1
 90
        1
176
     1
 90
        6
176
     1
 90
        2
176
     1
 62
     7
176
     1
 90
        3
176
     1
 90
        0
176
     1
 90
        0
176
     1
290
     0
176
     1
 90
        1
176
     1
 40
0.0
176
     1
 90
        0
176
     1
290
     0
176
     1
290
     1
176
     1
290
     1
176
     1
290
     0
176
     1
290
     0
176
     1
290
     0
176
     1
290
     0
176
     1
290
     0
176
     1
290
     0
176
     1
 90
       50
176
     1
 40
0.0
176
     1
 40
1.0
176
     1
 90
        0
176
     1
 62
    18
420
        0
176
     1
 90
       50
176
     1
 90
        3
176
     1
 62
     5
420
      255
176
     1
290
     0
176
     1
 90
       50
176
     1
 90
       50
176
     1
 90
       50
176
     1
290
     0
176
     1
 90
       50
176
     1
 62
   256
176
     0
 40
1.0
176
     0
 90
        2
176
     1
  1
strokes_ogs.tif
176
     1
290
     0
176
     1
 40
1.0
176
     1
 40
1.0
176
     1
  0
VISUALSTYLE
  5
3C
102
{ACAD_REACTORS
330
29
102
}
330
29
100
AcDbVisualStyle
  2
X-Ray
 70
    25
177
     3
291
     0
 70
    58
 90
        2
176
     1
 90
        2
176
     1
 90
        1
176
     1
 90
        1
176
     1
 40
0.5
176
     1
 40
30.0
176
     1
 62
     7
420
 16777215
176
     1
 90
        1
176
     1
 90
        0
176
     1
 62
     7
176
     1
 62
   257
176
     1
 90
        1
176
     1
 90
        1
176
     1
 40
1.0
176
     1
 90
        8
176
     1
 62
     7
176
     1
 40
1.0
176
     1
 90
        1
176
     1
 90
        6
176
     1
 90
        2
176
     1
 62
     7
176
     1
 90
        3
176
     1
 90
        0
176
     1
 90
        0
176
     1
290
     0
176
     1
 90
       13
176
     1
 40
0.0
176
     1
 90
        0
176
     1
290
     0
176
     1
290
     1
176
     1
290
     1
176
     1
290
     0
176
     1
290
     0
176
     1
290
     0
176
     1
290
     0
176
     1
290
     0
176
     1
290
     0
176
     1
 90
       50
176
     1
 40
0.0
176
     1
 40
1.0
176
     1
 90
        0
176
     1
 62
    18
420
        0
176
     1
 90
       50
176
     1
 90
        3
176
     1
 62
     5
420
      255
176
     1
290
     0
176
     1
 90
       50
176
     1
 90
       50
176
     1
 90
       50
176
     1
290
     0
176
     1
 90
       50
176
     1
 62
   256
176
     0
 40
1.0
176
     0
 90
        2
176
     1
  1
strokes_ogs.tif
176
     1
290
     0
176
     1
 40
1.0
176
     1
 40
1.0
176
     1
  0
DICTIONARYVAR
  5
200
102
{ACAD_REACTORS
330
1FB
102
}
330
1FB
100
DictionaryVariables
280
     0
  1
1:1
  0
DICTIONARYVAR
  5
1FD
102
{ACAD_REACTORS
330
1FB
102
}
330
1FB
100
DictionaryVariables
280
     0
  1
STANDARD
  0
DICTIONARYVAR
  5
1FC
102
{ACAD_REACTORS
330
1FB
102
}
330
1FB
100
DictionaryVariables
280
     0
  1
STANDARD
  0
DICTIONARYVAR
  5
1FE
102
{ACAD_REACTORS
330
1FB
102
}
330
1FB
100
DictionaryVariables
280
     0
  1
Imperial24
  0
DICTIONARYVAR
  5
1FF
102
{ACAD_REACTORS
330
1FB
102
}
330
1FB
100
DictionaryVariables
280
     0
  1
Imperial24
  0
DICTIONARY
  5
1A
330
19
100
AcDbDictionary
280
     1
281
     1
  3
BUMPTILE
360
1C
  3
DIFFUSETILE
360
1B
  3
OPACITYTILE
360
1F
  3
REFLECTIONTILE
360
1E
  3
REFRACTIONTILE
360
20
  3
SPECULARTILE
360
1D
  0
DICTIONARY
  5
12
330
11
100
AcDbDictionary
280
     1
281
     1
  3
BUMPTILE
360
14
  3
DIFFUSETILE
360
13
  3
OPACITYTILE
360
17
  3
REFLECTIONTILE
360
16
  3
REFRACTIONTILE
360
18
  3
SPECULARTILE
360
15
  0
DICTIONARY
  5
22
330
21
100
AcDbDictionary
280
     1
281
     1
  3
BUMPTILE
360
24
  3
DIFFUSETILE
360
23
  3
OPACITYTILE
360
27
  3
REFLECTIONTILE
360
26
  3
REFRACTIONTILE
360
28
  3
SPECULARTILE
360
25
  0
DICTIONARY
  5
201
330
65
100
AcDbDictionary
280
     1
281
     1
  3
ACAD_ROUNDTRIP_2008_TABLESTYLE_CELLSTYLEMAP
360
202
  0
XRECORD
  5
1C
102
{ACAD_REACTORS
330
1A
102
}
330
1A
100
AcDbXrecord
280
     1
270
     1
271
     1
  0
XRECORD
  5
1B
102
{ACAD_REACTORS
330
1A
102
}
330
1A
100
AcDbXrecord
280
     1
270
     1
271
     1
  0
XRECORD
  5
1F
102
{ACAD_REACTORS
330
1A
102
}
330
1A
100
AcDbXrecord
280
     1
270
     1
271
     1
  0
XRECORD
  5
1E
102
{ACAD_REACTORS
330
1A
102
}
330
1A
100
AcDbXrecord
280
     1
270
     1
271
     1
  0
XRECORD
  5
20
102
{ACAD_REACTORS
330
1A
102
}
330
1A
100
AcDbXrecord
280
     1
270
     1
271
     1
  0
XRECORD
  5
1D
102
{ACAD_REACTORS
330
1A
102
}
330
1A
100
AcDbXrecord
280
     1
270
     1
271
     1
  0
XRECORD
  5
14
102
{ACAD_REACTORS
330
12
102
}
330
12
100
AcDbXrecord
280
     1
270
     1
271
     1
  0
XRECORD
  5
13
102
{ACAD_REACTORS
330
12
102
}
330
12
100
AcDbXrecord
280
     1
270
     1
271
     1
  0
XRECORD
  5
17
102
{ACAD_REACTORS
330
12
102
}
330
12
100
AcDbXrecord
280
     1
270
     1
271
     1
  0
XRECORD
  5
16
102
{ACAD_REACTORS
330
12
102
}
330
12
100
AcDbXrecord
280
     1
270
     1
271
     1
  0
XRECORD
  5
18
102
{ACAD_REACTORS
330
12
102
}
330
12
100
AcDbXrecord
280
     1
270
     1
271
     1
  0
XRECORD
  5
15
102
{ACAD_REACTORS
330
12
102
}
330
12
100
AcDbXrecord
280
     1
270
     1
271
     1
  0
XRECORD
  5
24
102
{ACAD_REACTORS
330
22
102
}
330
22
100
AcDbXrecord
280
     1
270
     1
271
     1
  0
XRECORD
  5
23
102
{ACAD_REACTORS
330
22
102
}
330
22
100
AcDbXrecord
280
     1
270
     1
271
     1
  0
XRECORD
  5
27
102
{ACAD_REACTORS
330
22
102
}
330
22
100
AcDbXrecord
280
     1
270
     1
271
     1
  0
XRECORD
  5
26
102
{ACAD_REACTORS
330
22
102
}
330
22
100
AcDbXrecord
280
     1
270
     1
271
     1
  0
XRECORD
  5
28
102
{ACAD_REACTORS
330
22
102
}
330
22
100
AcDbXrecord
280
     1
270
     1
271
     1
  0
XRECORD
  5
25
102
{ACAD_REACTORS
330
22
102
}
330
22
100
AcDbXrecord
280
     1
270
     1
271
     1
  0
CELLSTYLEMAP
  5
202
102
{ACAD_REACTORS
330
201
102
}
330
201
100
AcDbCellStyleMap
 90
        3
300
CELLSTYLE
  1
TABLEFORMAT_BEGIN
 90
        5
170
     1
 91
        0
 92
    32768
 62
   257
 93
        1
300
CONTENTFORMAT
  1
CONTENTFORMAT_BEGIN
 90
        0
 91
        0
 92
      512
 93
        0
300

 40
0.0
140
1.0
 94
        5
 62
     0
340
55
144
0.25
309
CONTENTFORMAT_END
171
     0
 94
        0
309
TABLEFORMAT_END
  1
CELLSTYLE_BEGIN
 90
        1
 91
        1
300
_TITLE
309
CELLSTYLE_END
300
CELLSTYLE
  1
TABLEFORMAT_BEGIN
 90
        5
170
     1
 91
        0
 92
        0
 62
   257
 93
        1
300
CONTENTFORMAT
  1
CONTENTFORMAT_BEGIN
 90
        0
 91
        0
 92
      512
 93
        0
300

 40
0.0
140
1.0
 94
        5
 62
     0
340
55
144
0.18
309
CONTENTFORMAT_END
171
     0
 94
        0
309
TABLEFORMAT_END
  1
CELLSTYLE_BEGIN
 90
        2
 91
        1
300
_HEADER
309
CELLSTYLE_END
300
CELLSTYLE
  1
TABLEFORMAT_BEGIN
 90
        5
170
     1
 91
        0
 92
        0
 62
   257
 93
        1
300
CONTENTFORMAT
  1
CONTENTFORMAT_BEGIN
 90
        0
 91
        0
 92
      512
 93
        0
300

 40
0.0
140
1.0
 94
        2
 62
     0
340
55
144
0.18
309
CONTENTFORMAT_END
171
     0
 94
        0
309
TABLEFORMAT_END
  1
CELLSTYLE_BEGIN
 90
        3
 91
        2
300
_DATA
309
CELLSTYLE_END
  0
ENDSEC
  0
EOF
