<?xml version="1.0" encoding="utf-8"?>
<!-- Generator: Adobe Illustrator 26.5.0, SVG Export Plug-In . SVG Version: 6.00 Build 0)  -->
<svg version="1.1" id="Layer_1" xmlns="http://www.w3.org/2000/svg" xmlns:xlink="http://www.w3.org/1999/xlink" x="0px" y="0px"
	 viewBox="0 0 452.4 452.4" style="enable-background:new 0 0 452.4 452.4;" xml:space="preserve">
<g>
	<path d="M388.4,32.2H64c-32.2,0-58.3,26.2-58.3,58.3v183.8c0,32.2,26.2,58.3,58.3,58.3h24.3c7.4,0,13.3-6,13.3-13.3
		c0-7.4-6-13.3-13.3-13.3L64,306c-17.5,0-31.7-14.2-31.7-31.7V90.5c0-5.5,1.6-10.6,4-15.2L191,192c10.3,7.9,22.7,11.8,35.1,11.8
		c12.4,0,24.8-3.9,35.1-11.8L416,75.3c2.5,4.5,4.1,9.6,4.1,15.2v183.8c0,17.5-14.2,31.7-31.7,31.7h-24.6c-7.4,0-13.3,6-13.3,13.3
		c0,7.4,6,13.3,13.3,13.3h24.6c32.2,0,58.3-26.2,58.3-58.3V90.5C446.7,58.3,420.5,32.2,388.4,32.2L388.4,32.2z M245.2,170.8
		c-11.2,8.5-26.9,8.5-38.1,0L59.3,59.3c1.5-0.2,3-0.5,4.6-0.5h324.4c1.6,0,3.1,0.2,4.6,0.5L245.2,170.8z"/>
	<path d="M261.8,228.7c-22.2-7.7-69.2-12-103.9,21c-27.8,26.3-38.2,67.7-26,102.9c2.6,7.4,17.3,44.8,57.6,58.1
		c9.8,3.3,19.2,4.5,27.7,4.5c10.5,0,19.7-1.8,26.8-3.9c7.1-2.1,11.1-9.5,9-16.6c-2.1-7-9.4-11.1-16.6-9c-9.1,2.7-23.2,4.8-38.6-0.3
		c-28.4-9.4-38.9-36.3-40.8-41.6c-8.9-25.5-1.1-55.6,19.2-74.9c31.9-30.3,76.5-15.3,76.9-15.2c17.4,6.1,30.7,16.8,38.4,31
		c3,5.7,9.8,20.7,6.6,38.1c-0.9,4.9-2.2,11.7-7.3,17.3c-5.1,5.5-12.9,10.2-16.2,8.7c-2.6-1.2-5.2-6-5.2-12.6c0-0.2-0.1-0.4-0.1-0.6
		c0-0.2,0.1-0.4,0.1-0.6c-0.5-6.3,0.4-14.8,2.6-23.7c1.4-5.4,3.3-11.5,5.7-18c2.6-6.9-0.9-14.6-7.8-17.2c-6.1-2.3-12.6,0.3-15.9,5.7
		c-8.9-6.7-19.6-10.6-30.6-10.6c-15.6-0.1-30.8,7-39.1,18.3c-10.7,13.5-13.1,33.6-6.4,52.4c5.8,16.1,17.4,27.4,30.8,30.3
		c2.7,0.6,5.4,0.9,8.3,0.9c10.8,0,22.5-4.5,33-12.4c3.5,5.2,7.9,9.5,13.3,12c17.2,7.9,35.5-2.5,46.9-14.8
		c10.4-11.3,12.7-23.8,13.9-30.5c4.7-25.7-5-47.4-9.3-55.5C304.2,252.3,285.3,236.9,261.8,228.7L261.8,228.7z M214.7,346.5
		c-4.6-1-9-6.1-11.7-13.3c-3.6-9.9-2.7-20.7,2.5-27.3c2.8-3.9,9.2-7.8,17.2-7.8c8.6,0.2,17.1,5.2,22.3,13.1
		c-1.4,7.1-2.1,13.8-2.1,19.9C233.3,342.4,221.3,348.1,214.7,346.5L214.7,346.5z"/>
</g>
</svg>
